<svg xmlns="http://www.w3.org/2000/svg" xmlns:xlink="http://www.w3.org/1999/xlink" viewBox="0 0 16 16"><path d="M3.5,6a.5.5,0,1,1-.5.5A.5.5,0,0,1,3.5,6m3,0a.5.5,0,1,0,.5.5A.5.5,0,0,0,6.5,6m3,0a.5.5,0,1,0,.5.5A.5.5,0,0,0,9.5,6m3,0a.5.5,0,1,0,.5.5.5.5,0,0,0-.5-.5m-9,3a.5.5,0,1,0,.5.5A.5.5,0,0,0,3.5,9m3,0a.5.5,0,1,0,.5.5A.5.5,0,0,0,6.5,9m3,0a.5.5,0,1,0,.5.5A.5.5,0,0,0,9.5,9m3,0a.5.5,0,1,0,.5.5.5.5,0,0,0-.5-.5m-9,3a.5.5,0,1,0,.5.5.5.5,0,0,0-.5-.5m3,0a.5.5,0,1,0,.5.5.5.5,0,0,0-.5-.5m3,0a.5.5,0,1,0,.5.5.5.5,0,0,0-.5-.5m3,0a.5.5,0,1,0,.5.5.5.5,0,0,0-.5-.5M15,2H14V3h1V15H1V3H2V2H1A1,1,0,0,0,0,3V15a1,1,0,0,0,1,1H15a1,1,0,0,0,1-1V3a1,1,0,0,0-1-1M11,2H5V3h6ZM4,4.5V.5a.5.5,0,0,0-1,0v4a.5.5,0,0,0,1,0m9,0V.5a.5.5,0,0,0-1,0v4a.5.5,0,0,0,1,0" fill="currentColor" /></svg>