<svg xmlns="http://www.w3.org/2000/svg" xmlns:xlink="http://www.w3.org/1999/xlink" viewBox="0 0 30 24.9"><defs><clipPath id="a" transform="translate(0 0)"><rect width="30" height="24.9" fill="none"/></clipPath></defs><g clip-path="url(#a)"><path d="M29.28.72A2.37,2.37,0,0,0,27.54,0H2.46A2.37,2.37,0,0,0,.72.72,2.37,2.37,0,0,0,0,2.46v20a2.37,2.37,0,0,0,.72,1.74,2.37,2.37,0,0,0,1.74.72H27.54A2.46,2.46,0,0,0,30,22.44v-20A2.37,2.37,0,0,0,29.28.72M7.62,2H26.53L15.86,12.64H14.12L3.45,2H7.62Zm14.76,21H3.62l6.87-6.87a1,1,0,0,0,0-1.46,1,1,0,0,0-.73-.3,1,1,0,0,0-.73.3L2,21.67V3.4L12.9,14.34a1,1,0,0,0,.83.28l.11,0h2.33l.09,0,.08,0a1,1,0,0,0,.73-.3l11-11V21.48l-6.87-6.87a1,1,0,0,0-1.46,0,1,1,0,0,0-.3.73,1,1,0,0,0,.3.73l6.87,6.87H22.38Z" transform="translate(0 0)" fill="currentColor"/></g></svg>