<svg xmlns="http://www.w3.org/2000/svg" xmlns:xlink="http://www.w3.org/1999/xlink" viewBox="0 0 16.17 13.42"><path d="M15.78.39A1.28,1.28,0,0,0,14.84,0H1.32A1.27,1.27,0,0,0,.39.39,1.28,1.28,0,0,0,0,1.33V12.1A1.27,1.27,0,0,0,.39,13a1.27,1.27,0,0,0,.93.39H14.84a1.33,1.33,0,0,0,1.33-1.32V1.33a1.28,1.28,0,0,0-.39-.94M5.66,8.65,2,12.35a.53.53,0,0,1-.77,0,.54.54,0,0,1,0-.78l3.7-3.7a.54.54,0,0,1,.78,0,.56.56,0,0,1,0,.78M15,12.35a.54.54,0,0,1-.78,0l-3.7-3.7a.56.56,0,0,1,0-.78.54.54,0,0,1,.78,0l3.7,3.7a.54.54,0,0,1,0,.78m.17-10.41L9.35,7.75a.54.54,0,0,1-.45.15H7.26a.55.55,0,0,1-.45-.15L1,2a.54.54,0,0,1,0-.78.55.55,0,0,1,.77,0L7.43,6.81H8.74l5.64-5.65a.56.56,0,0,1,.78,0,.54.54,0,0,1,0,.78" transform="translate(0 0)" fill="currentColor"/></svg>