<svg xmlns="http://www.w3.org/2000/svg" viewBox="0 0 17.9 23.5"><path d="M86.8,115.32a8.33,8.33,0,0,1,2.52.38,7.7,7.7,0,0,1,5,5A8.05,8.05,0,0,1,93.15,128l-6.37,8.18L80.41,128a7.9,7.9,0,0,1-1.58-4.77,7.9,7.9,0,0,1,8-7.94m0-1a9,9,0,0,0-7.19,14.31l7.17,9.18,7.16-9.19a9,9,0,0,0,1.35-8.2,8.73,8.73,0,0,0-5.68-5.68,9.67,9.67,0,0,0-2.81-.42Z" transform="translate(-77.83 -114.32)" fill="currentColor"/><path d="M86.78,119.44A3.82,3.82,0,1,1,83,123.26a3.83,3.83,0,0,1,3.82-3.82m0-1a4.82,4.82,0,1,0,4.82,4.82,4.82,4.82,0,0,0-4.82-4.82Z" transform="translate(-77.83 -114.32)" fill="currentColor"/></svg>