<svg xmlns="http://www.w3.org/2000/svg" xmlns:xlink="http://www.w3.org/1999/xlink" viewBox="0 0 16.03 17.01"><defs><clipPath id="a" transform="translate(0 0)"><rect width="16.03" height="17.01" fill="none"/></clipPath></defs><g clip-path="url(#a)"><path d="M3.23,1h0a.8.8,0,0,1,.59.32L6.08,4.27a.78.78,0,0,1,.19.56A.75.75,0,0,1,6,5.36c-.18.17-.5.52-.69.69a1.73,1.73,0,0,0,0,2.21L8.48,11.7a1.45,1.45,0,0,0,1,.41,1.91,1.91,0,0,0,1.15-.39l.57-.53a.83.83,0,0,1,.51-.18h.05a.73.73,0,0,1,.48.2l2.51,2.33a.78.78,0,0,1,.24.6.83.83,0,0,1-.32.6A5.07,5.07,0,0,1,11.55,16a3.24,3.24,0,0,1-.36,0C7.87,15.81.82,7.94,1,4.59A6.3,6.3,0,0,1,2.58,1.34l0-.06A.78.78,0,0,1,3.23,1m0-1A1.8,1.8,0,0,0,1.86.64L1.81.7A7.15,7.15,0,0,0,0,4.54C-.21,8.38,7.23,16.72,11.1,17l.45,0a6,6,0,0,0,3.78-1.5,1.76,1.76,0,0,0,.7-1.32,1.79,1.79,0,0,0-.54-1.37L13,10.48A1.77,1.77,0,0,0,11.85,10h-.1a1.84,1.84,0,0,0-1.16.42L10,11a1.12,1.12,0,0,1-.48.13A.49.49,0,0,1,9.19,11L6.12,7.62A.79.79,0,0,1,6,6.74l.35-.34.29-.3a1.74,1.74,0,0,0,.59-1.22,1.82,1.82,0,0,0-.4-1.23L4.67.72A1.79,1.79,0,0,0,3.33,0h-.1Z" transform="translate(0 0)" fill="currentColor"/></g></svg>