<svg xmlns="http://www.w3.org/2000/svg" xmlns:xlink="http://www.w3.org/1999/xlink" viewBox="0 0 16.03 17.01"><path d="M3.23,0A1.8,1.8,0,0,0,1.86.64L1.81.7A7.15,7.15,0,0,0,0,4.54C-.21,8.38,7.23,16.72,11.1,17l.45,0a6,6,0,0,0,3.78-1.5,1.76,1.76,0,0,0,.7-1.32,1.79,1.79,0,0,0-.54-1.37L13,10.48A1.77,1.77,0,0,0,11.85,10h-.1a1.84,1.84,0,0,0-1.16.42L10,11a1.12,1.12,0,0,1-.48.13A.49.49,0,0,1,9.19,11L6.12,7.62A.79.79,0,0,1,6,6.74l.35-.34.29-.3a1.74,1.74,0,0,0,.59-1.22,1.82,1.82,0,0,0-.4-1.23L4.67.72A1.79,1.79,0,0,0,3.33,0h-.1Z" transform="translate(0 0)" fill="currentColor"/></svg>