<svg xmlns="http://www.w3.org/2000/svg" xmlns:xlink="http://www.w3.org/1999/xlink" viewBox="0 0 17.15 17.15"><path d="M8.58,1A7.58,7.58,0,1,1,1,8.58,7.59,7.59,0,0,1,8.58,1m0-1a8.58,8.58,0,1,0,8.57,8.58A8.58,8.58,0,0,0,8.58,0" transform="translate(0 0)" fill="currentColor"/><path d="M8.58,2.59a.5.5,0,0,0-.5.5V8.62a.5.5,0,0,0,.5.5.5.5,0,0,0,.5-.5V3.09a.5.5,0,0,0-.5-.5" transform="translate(0 0)" fill="currentColor"/><path d="M8.58,8.14a.5.5,0,0,0-.36.14.51.51,0,0,0,0,.71l3.92,3.92a.52.52,0,0,0,.35.14.54.54,0,0,0,.36-.14.51.51,0,0,0,0-.71L8.93,8.28a.49.49,0,0,0-.35-.14" transform="translate(0 0)" fill="currentColor"/></svg>