<svg xmlns="http://www.w3.org/2000/svg" xmlns:xlink="http://www.w3.org/1999/xlink" viewBox="0 0 25.84 15.49"><path d="M13.8,15.48c.85,0,.85-1.24.85-1.72A1.85,1.85,0,0,1,16.38,12c.85,0,2.33,1.48,3.44,2.58.86.86.86.86,1.72.86h2.58a1.75,1.75,0,0,0,1.72-1.72c0-.54-.59-1.45-2.58-3.44-1.72-1.72-2.61-.83,0-4.3C24.84,3.91,26,2,25.8,1.44S21.2.08,20.68.86a31.52,31.52,0,0,0-2.58,4.3c-.87,1.72-1,2.58-1.72,2.58s-.87-1.67-.87-2.58c0-2.84.42-4.85-.86-5.16H12.08A5,5,0,0,0,9.49.86s-1.06.83-.85.86,1.72-.36,1.72.86V4.3s0,3.44-.87,3.44S6.91,4.3,5.2,1.72C4.52.71,4.34.86,3.47.86S1.76.9.89.9s-1,.54-.86.82c1.72,4.3,3,7,6.23,10.4,3,3.12,5,3.29,6.68,3.36.42,0,0,0,.86,0" transform="translate(0 0)" fill="currentColor"/></svg>