<svg xmlns="http://www.w3.org/2000/svg" xmlns:xlink="http://www.w3.org/1999/xlink" viewBox="0 0 25.84 15.49"><path d="M14.44,1a8.22,8.22,0,0,1,.11,2.44c0,.53,0,1.1,0,1.72,0,.89,0,3.58,1.86,3.58,1.21,0,1.63-1,2.07-2,.15-.34.32-.73.54-1.17a29.58,29.58,0,0,1,2.41-4,2.64,2.64,0,0,1,.53,0A10.72,10.72,0,0,1,24.68,2a20.58,20.58,0,0,1-2.22,3.45c-1.39,1.85-1.95,2.64-1.83,3.49a2.15,2.15,0,0,0,1,1.38,7,7,0,0,1,.88.74c2,2,2.26,2.62,2.29,2.73,0,.54-.41.69-.76.72H21.13a5.75,5.75,0,0,1-.61-.57c-1.68-1.68-3-2.87-4.14-2.87a2.83,2.83,0,0,0-2.72,2.72,3.15,3.15,0,0,1-.06.72H13c-1.43-.06-3.2-.13-6-3.05S2.84,6,1.18,1.9l1,0,1.32,0H4a2.59,2.59,0,0,1,.32.42c.5.75,1,1.59,1.49,2.39C7.57,7.49,8.38,8.74,9.5,8.74a1.37,1.37,0,0,0,1-.41c.79-.79.9-2.86.9-4V2.58a1.92,1.92,0,0,0-.49-1.32A3.26,3.26,0,0,1,12.08,1h2.36m.22-1H12.08A5,5,0,0,0,9.5.86s-1.07.83-.86.86h0c.11,0,.35,0,.61,0,.49,0,1.07.13,1.07.89V4.3s0,3.44-.86,3.44-2.58-3.44-4.3-6C4.68.94,4.45.85,4,.85h-.5C2.55.86,1.76.9.9.9s-1,.54-.86.82c1.72,4.3,3,7,6.22,10.4,3,3.12,5,3.29,6.68,3.36h.86c.86,0,.86-1.24.86-1.72A1.85,1.85,0,0,1,16.38,12c.86,0,2.33,1.48,3.44,2.58.86.86.86.86,1.72.86h2.58a1.75,1.75,0,0,0,1.72-1.72c0-.54-.59-1.45-2.58-3.44-1.72-1.72-2.6-.83,0-4.3C24.84,3.91,26,2,25.8,1.44c-.14-.37-2.38-.9-3.87-.9-.62,0-1.1.09-1.25.32a31.52,31.52,0,0,0-2.58,4.3c-.86,1.72-1,2.58-1.72,2.58s-.86-1.67-.86-2.58c0-2.84.41-4.85-.86-5.16" transform="translate(0 0)" fill="currentColor"/></svg>