<svg xmlns="http://www.w3.org/2000/svg" xmlns:xlink="http://www.w3.org/1999/xlink" viewBox="0 0 34.33 34.49"><path d="M29.33,5A17.1,17.1,0,0,0,.14,17.09a17.18,17.18,0,0,0,2.28,8.55L0,34.49l9.06-2.38a17.11,17.11,0,0,0,8.17,2.09h0A17.1,17.1,0,0,0,29.33,5M25.6,23.2a4.4,4.4,0,0,1-2.89,2A5.8,5.8,0,0,1,20,25.06a25.55,25.55,0,0,1-2.43-.9c-4.28-1.85-7.08-6.16-7.3-6.45a8.3,8.3,0,0,1-1.74-4.42,4.76,4.76,0,0,1,1.5-3.56,1.54,1.54,0,0,1,1.13-.53H12c.26,0,.62-.1,1,.74s1.21,3,1.32,3.17a.77.77,0,0,1,0,.74,3.27,3.27,0,0,1-.43.72c-.21.25-.45.55-.64.75s-.44.44-.19.87a13.28,13.28,0,0,0,2.38,3,11.52,11.52,0,0,0,3.43,2.11c.43.22.68.18.93-.1s1.06-1.25,1.35-1.68.57-.35,1-.21S24.6,20.46,25,20.67s.71.32.82.5a3.7,3.7,0,0,1-.25,2" transform="translate(0 0)" fill="currentColor" fill-rule="evenodd"/></svg>