<svg xmlns="http://www.w3.org/2000/svg" xmlns:xlink="http://www.w3.org/1999/xlink" viewBox="0 0 35.84 35.15"><path d="M21.57,1A13.15,13.15,0,0,1,34.84,14,13.14,13.14,0,0,1,21.57,27,13.15,13.15,0,0,1,8.3,14,13.15,13.15,0,0,1,21.57,1m0-1A14.14,14.14,0,0,0,7.3,14,14.13,14.13,0,0,0,21.57,28,14.13,14.13,0,0,0,35.84,14,14.14,14.14,0,0,0,21.57,0" transform="translate(0)" fill="currentColor"/><line x1="11.79" y1="23.59" x2="0.5" y2="34.65" fill="none" stroke="currentColor" stroke-linecap="round" stroke-miterlimit="10"/><path d="M28.57,14.49h-14a.5.5,0,0,1-.5-.5.51.51,0,0,1,.5-.5h14a.5.5,0,0,1,.5.5.5.5,0,0,1-.5.5" transform="translate(0)" fill="currentColor"/><path d="M21.07,21V7a.51.51,0,0,1,.5-.5.5.5,0,0,1,.5.5V21a.5.5,0,0,1-.5.5.5.5,0,0,1-.5-.5" transform="translate(0)" fill="currentColor"/></svg>