<svg xmlns="http://www.w3.org/2000/svg" xmlns:xlink="http://www.w3.org/1999/xlink" width="109.97" height="98.62" viewBox="0 0 109.97 98.62"><defs><clipPath id="a" transform="translate(0 0)" fill="#ff895a" ><rect width="109.97" height="98.62" fill="none"/></clipPath></defs><g clip-path="url(#a)"><path d="M7.09,56.66a1,1,0,0,0,.71-.29l1.52-1.52A1,1,0,1,0,7.9,53.44h0L6.39,55a1,1,0,0,0,0,1.41,1,1,0,0,0,.7.29" transform="translate(0 0)" fill="#ff895a" /><path d="M.3,62.46a1,1,0,0,0,.71.29,1,1,0,0,0,.71-.29l1.51-1.52a1,1,0,0,0,0-1.41h0a1,1,0,0,0-1.41,0L.3,61a1,1,0,0,0,0,1.42Z" transform="translate(0 0)" fill="#ff895a" /><path d="M.3,53.44a1,1,0,0,0,0,1.41l1.52,1.52a1,1,0,0,0,1.41,0,1,1,0,0,0,0-1.41L1.72,53.44a1,1,0,0,0-1.42,0Z" transform="translate(0 0)" fill="#ff895a" /><path d="M6.39,60.94,7.9,62.46a1,1,0,0,0,1.41,0h0a1,1,0,0,0,0-1.41h0L7.8,59.52a1,1,0,0,0-1.42,0,1,1,0,0,0,0,1.41" transform="translate(0 0)" fill="#ff895a" /><path d="M91.23,15.31a1,1,0,0,0,.71-.29l1.51-1.52A1,1,0,0,0,92,12.09L90.53,13.6a1,1,0,0,0,0,1.42,1,1,0,0,0,.71.29" transform="translate(0 0)" fill="#ff895a" /><path d="M84.44,21.13a1,1,0,0,0,1.41,0h0l1.51-1.52a1,1,0,0,0-.22-1.39,1,1,0,0,0-1.16,0l-1.52,1.52a1,1,0,0,0,0,1.41" transform="translate(0 0)" fill="#ff895a" /><path d="M86,15.05a1,1,0,0,0,.71.29,1,1,0,0,0,1-1,1,1,0,0,0-.29-.71l-1.51-1.51a1,1,0,0,0-1.42,0,1,1,0,0,0,0,1.41Z" transform="translate(0 0)" fill="#ff895a" /><path d="M90.53,19.61,92,21.13a1,1,0,0,0,1.71-.69,1,1,0,0,0-.29-.72L92,18.2a1,1,0,0,0-1.41.11,1,1,0,0,0,0,1.3Z" transform="translate(0 0)" fill="#ff895a" /><path d="M27.46,12.43a1,1,0,0,0,.71-.29l1.52-1.52a1,1,0,1,0-1.42-1.41h0l-1.52,1.52a1,1,0,0,0,.71,1.7" transform="translate(0 0)" fill="#ff895a" /><path d="M20.67,18.23a1,1,0,0,0,.71.29,1,1,0,0,0,.7-.29l1.52-1.52a1,1,0,0,0,0-1.41h0a1,1,0,0,0-1.41,0l-1.52,1.52a1,1,0,0,0,0,1.42Z" transform="translate(0 0)" fill="#ff895a" /><path d="M22.19,12.14a1,1,0,0,0,1.41,0,1,1,0,0,0,0-1.41L22.08,9.21a1,1,0,0,0-1.52,1.3.57.57,0,0,0,.11.11Z" transform="translate(0 0)" fill="#ff895a" /><path d="M26.75,16.71l1.52,1.52a1,1,0,0,0,1.41,0h0a1,1,0,0,0,0-1.41h0l-1.52-1.5a1,1,0,0,0-1.42,0,1,1,0,0,0,0,1.42Z" transform="translate(0 0)" fill="#ff895a" /><path d="M93.21,83.14a1.2,1.2,0,1,0,2.4,0,1.2,1.2,0,1,0-2.4,0" transform="translate(0 0)" fill="#ff895a" /><path d="M107.51,22.15a1.2,1.2,0,0,0-2.4,0,1.2,1.2,0,1,0,2.4,0" transform="translate(0 0)" fill="#ff895a" /><path d="M83.16,55.13a1.2,1.2,0,0,0-2.4,0,1.19,1.19,0,0,0,1.18,1.22h0a1.2,1.2,0,0,0,1.17-1.18" transform="translate(0 0)" fill="#ff895a" /><path d="M76.83,8.81A1.2,1.2,0,0,0,78,7.62a1.21,1.21,0,0,0-1.19-1.21A1.2,1.2,0,0,0,75.64,7.6v0a1.19,1.19,0,0,0,1.19,1.19" transform="translate(0 0)" fill="#ff895a" /><path d="M29.09,27.07a1.2,1.2,0,1,0,1.2,1.24,1.21,1.21,0,0,0-1.16-1.24h0" transform="translate(0 0)" fill="#ff895a" /><path d="M13.41,69.58a1.2,1.2,0,1,0-1.2-1.2h0a1.19,1.19,0,0,0,1.19,1.19Z" transform="translate(0 0)" fill="#ff895a" /><path d="M4.41,81a1.2,1.2,0,0,0,2.4,0,1.2,1.2,0,1,0-2.4,0" transform="translate(0 0)" fill="#ff895a" /><path d="M8,19a1.2,1.2,0,0,0-2.4,0A1.2,1.2,0,0,0,8,19" transform="translate(0 0)" fill="#ff895a" /><path d="M6.35,73.91a1,1,0,0,0,1,1,39.53,39.53,0,0,1,19.47,5.48.9.9,0,0,0,.51.13,1,1,0,0,0,.86-.49,1,1,0,0,0-.35-1.37A41.65,41.65,0,0,0,7.35,72.91a1,1,0,0,0-1,1" transform="translate(0 0)" fill="#ff895a" /><path d="M39,97.62a1,1,0,0,0,2,0c0-5.44-2.76-10.71-8-15.24a1,1,0,0,0-1.41.1,1,1,0,0,0,.1,1.41C35.06,86.78,39,91.5,39,97.62" transform="translate(0 0)" fill="#ff895a" /><path d="M109.34,73.91a1,1,0,0,0-1-1,38.57,38.57,0,0,0-4.17.25,1,1,0,0,0,.12,2h.11a32.31,32.31,0,0,1,3.94-.24,1,1,0,0,0,1-1Z" transform="translate(0 0)" fill="#ff895a" /><path d="M97.16,75.65A1,1,0,0,0,95.9,75h0C85.32,78.53,74.66,86.89,74.66,97.62a1,1,0,0,0,2,0c0-9.73,10-17.42,19.86-20.71a1,1,0,0,0,.64-1.26" transform="translate(0 0)" fill="#ff895a" /><path d="M13.55,57.6a1,1,0,0,0-1.15.86,1,1,0,0,0,.86,1.14A38.18,38.18,0,0,1,45.83,97.22a1,1,0,0,0,2,0A40.17,40.17,0,0,0,13.55,57.6" transform="translate(0 0)" fill="#ff895a" /><path d="M67.86,97.19a1,1,0,0,0,2,0,38,38,0,0,1,38-38,1,1,0,1,0,0-2,40,40,0,0,0-40,40" transform="translate(0 0)" fill="#ff895a" /><path d="M59.85,97.19a1,1,0,0,0,2,0c0-23.5,10.83-44.7,27-52.75A1,1,0,0,0,88,42.65C71.12,51,59.85,73,59.85,97.19" transform="translate(0 0)" fill="#ff895a" /><path d="M23.19,41.78a1,1,0,0,0,.58,1.29C41.48,49.76,53.84,72,53.84,97.19a1,1,0,0,0,2,0c0-26-12.89-49-31.36-56a1,1,0,0,0-1.29.59h0" transform="translate(0 0)" fill="#ff895a" /><path d="M57.84,49a1,1,0,0,0,1-1V25.36a1,1,0,0,0-2,0V48a1,1,0,0,0,1,1" transform="translate(0 0)" fill="#ff895a" /><path d="M56.84,59.31a1,1,0,0,0,2,0v-5.7a1,1,0,0,0-2,0Z" transform="translate(0 0)" fill="#ff895a" /><path d="M41.5,32.17a1.12,1.12,0,0,0,.35-.06,1,1,0,0,0,.59-1.28l-2.6-7a1,1,0,0,0-1.29-.59A1,1,0,0,0,38,24.52l2.6,7a1,1,0,0,0,.94.65" transform="translate(0 0)" fill="#ff895a" /><path d="M43.65,37a1,1,0,0,0-.6,1.28L49.3,55.19a1,1,0,0,0,.94.66.87.87,0,0,0,.35-.07,1,1,0,0,0,.59-1.28L44.93,37.58A1,1,0,0,0,43.65,37" transform="translate(0 0)" fill="#ff895a" /><path d="M53.54,60.9a1,1,0,0,0-1.29-.59,1,1,0,0,0-.59,1.28L54.4,69a1,1,0,0,0,.93.65,1.07,1.07,0,0,0,.35-.06,1,1,0,0,0,.59-1.28Z" transform="translate(0 0)" fill="#ff895a" /><path d="M75.49,27.66a.93.93,0,0,0,.34.06,1,1,0,0,0,.94-.66l1-2.58a1,1,0,0,0-1.88-.69l-1,2.58a1,1,0,0,0,.58,1.29h0" transform="translate(0 0)" fill="#ff895a" /><path d="M73.3,30.69,67.57,46.22a1,1,0,0,0,.59,1.28.84.84,0,0,0,.35.07,1,1,0,0,0,.94-.66l5.73-15.53a1,1,0,0,0-1.88-.69" transform="translate(0 0)" fill="#ff895a" /><path d="M62.43,64a1,1,0,0,0,.94-.66L67.21,53a1,1,0,0,0-1.87-.65L61.49,62.69A1,1,0,0,0,62.08,64a.84.84,0,0,0,.35.07" transform="translate(0 0)" fill="#ff895a" /><path d="M45.79,15.11a1,1,0,0,0,.83.77l5.72.87-.42,5.78a1,1,0,0,0,.93,1.06,1,1,0,0,0,.74-.26l4.26-3.93,4.25,3.91a1,1,0,0,0,1.11.17,1,1,0,0,0,.56-1l-.42-5.78,5.73-.87a1,1,0,0,0,.84-1.13,1,1,0,0,0-.43-.69l-4.78-3.27,2.89-5a1,1,0,0,0-1.16-1.43L60.9,6,58.78.63a1,1,0,0,0-1.3-.56,1,1,0,0,0-.56.56L54.79,6l-5.54-1.7A1,1,0,0,0,48,5a1,1,0,0,0,.09.78l2.89,5L46.2,14a1,1,0,0,0-.41,1.08m7.08-3.19a1,1,0,0,0,.3-1.32L51.09,7l4,1.23a1,1,0,0,0,1.22-.59l1.54-3.89,1.53,3.89a1,1,0,0,0,1.22.59L64.6,7,62.52,10.6a1,1,0,0,0,.3,1.32l3.45,2.39-4.13.63A1,1,0,0,0,61.29,16l.31,4.17-3.07-2.87a1,1,0,0,0-.68-.27,1,1,0,0,0-.68.27L54.1,20.15,54.4,16a1,1,0,0,0-.85-1.07l-4.13-.6Z" transform="translate(0 0)" fill="#ff895a" /><path d="M85.91,39.25a1,1,0,0,0,.75.84l5.63,1.37-.93,5.72a1,1,0,0,0,1.6.93l4.58-3.54,3.89,4.29a1,1,0,0,0,.74.33.87.87,0,0,0,.35-.07,1,1,0,0,0,.65-.92l.09-5.79,5.78-.36A1,1,0,0,0,110,41a1,1,0,0,0-.36-.71l-4.47-3.68,3.31-4.75a1,1,0,0,0-1-1.55l-5.67,1.2L100.14,26a1,1,0,0,0-1.85-.17L95.69,31l-5.36-2.18A1,1,0,0,0,89,29.2a1,1,0,0,0,0,.95l2.43,5.25-5,2.84a1,1,0,0,0-.51,1m7.33-2.55a1,1,0,0,0,.42-1.3L91.9,31.61l3.88,1.57a1,1,0,0,0,1.27-.48L98.92,29l1.19,4a1,1,0,0,0,1.16.7l4.09-.87L103,36.23a1,1,0,0,0,.18,1.34l3.23,2.66-4.17.26a1,1,0,0,0-.94,1l-.06,4.18-2.81-3.1a1,1,0,0,0-1.35-.12L93.76,45l.67-4.13a1,1,0,0,0-.75-1.13l-4.06-1Z" transform="translate(0 0)" fill="#ff895a" /><path d="M2,38.7a1,1,0,0,0,.87.72L8.62,40l-.1,5.79a1,1,0,0,0,.61.94,1,1,0,0,0,.39.08,1,1,0,0,0,.71-.3l4-4.16L18.7,46a1,1,0,0,0,1.62-.9l-.73-5.74,5.66-1.19A1,1,0,0,0,26,37a1,1,0,0,0-.45-.65l-4.95-3,2.6-5.17A1,1,0,0,0,22,26.8l-5.43,2-2.36-5.27A1,1,0,0,0,12.86,23a1,1,0,0,0-.53.59l-1.82,5.5L4.89,27.74a1,1,0,0,0-1.06.39,1,1,0,0,0,0,1.12L7,34.11,2.4,37.64A1,1,0,0,0,2,38.7m6.9-3.57a1,1,0,0,0,.22-1.34L6.86,30.31l4.06,1a1,1,0,0,0,1.19-.66l1.32-4,1.75,3.8a1,1,0,0,0,1.25.52l3.93-1.45-1.88,3.79a1,1,0,0,0,.37,1.3l3.57,2.17-4.09.86a1,1,0,0,0-.78,1.11l.53,4.14-3.22-2.66a1,1,0,0,0-1.36.07l-2.91,3,.08-4.18a1,1,0,0,0-.91-1l-4.16-.4Z" transform="translate(0 0)" fill="#ff895a" /></g></svg>