<svg xmlns="http://www.w3.org/2000/svg" xmlns:xlink="http://www.w3.org/1999/xlink" width="84.88" height="56.67" viewBox="0 0 84.88 56.67"><defs><clipPath id="a" transform="translate(8.88 1.72)"><path d="M28.19,0A12.91,12.91,0,0,0,28,1.74c0,.15,0,.3,0,.44v.88c0,.15,0,.29,0,.44a17.36,17.36,0,0,0,.2,1.75c0,.29.11.58.16.87s.14.58.22.86a16.15,16.15,0,0,0,.57,1.7,15.3,15.3,0,0,0,.76,1.65,15.39,15.39,0,0,0,2.08,3,14.48,14.48,0,0,0,1.17,1.18,34.65,34.65,0,0,1,1.14-3.81A29.09,29.09,0,0,1,31.1,6c-.51-.92-1-1.89-1.46-2.89l-.18-.37-.09-.19-.09-.19A3.26,3.26,0,0,0,29.1,2l-.17-.39C28.69,1.05,28.46.53,28.19,0Z" fill="none"/></clipPath><linearGradient id="b" y1="50.64" x2="1" y2="50.64" gradientTransform="matrix(0, 16.15, 16.15, 0, -786.89, -0.74)" gradientUnits="userSpaceOnUse"><stop offset="0" stop-color="#ffc330"/><stop offset="0.36" stop-color="#e99135"/><stop offset="0.57" stop-color="#da7039"/><stop offset="0.83" stop-color="#c54c14"/><stop offset="1" stop-color="#b93900"/></linearGradient><clipPath id="c" transform="translate(8.88 1.72)"><path d="M38.72,17.25l.17,0,.49,0a6.68,6.68,0,0,0,1,0,5.73,5.73,0,0,0,1-.18l.25-.07.12,0-.13-.78-.18-1.09a6.12,6.12,0,0,1-2.29-.56,10.24,10.24,0,0,1-1-.54c.22,1,.43,2.08.62,3.22" fill="none"/></clipPath><linearGradient id="d" y1="50.63" y2="50.63" gradientTransform="matrix(0, 4.1, 4.1, 0, -167.5, 13.53)" xlink:href="#b"/><clipPath id="e" transform="translate(8.88 1.72)"><path d="M43.91,14.4a4.37,4.37,0,0,1-.55.32l.12.71.07.45a3.27,3.27,0,0,0,.3-.35,4.21,4.21,0,0,0,.48-.81,4,4,0,0,0,.23-.87,6.54,6.54,0,0,1-.65.55" fill="none"/></clipPath><linearGradient id="f" y1="50.58" y2="50.58" gradientTransform="matrix(0, 1.75, 1.75, 0, -44.56, 14.04)" xlink:href="#b"/><clipPath id="g" transform="translate(8.88 1.72)"><path d="M39.25,10.08a1,1,0,0,0,1,1h.14l1.26.66h0l.55,3.38.17,1,.1.62L42.61,18l1.51,9.2.32,1.92.28,1.71.21,1.28.32,1.93.17,1.09.49,3H41.16l-.07,0a.3.3,0,0,0-.18.27.28.28,0,0,0,.23.29H48.4a.3.3,0,0,0,0-.59H46.49L46,34.78l-.19-1.18-.33-2-.23-1.35-.27-1.65-.31-1.93L43.13,17.6l-.2-1.2-.14-.85L42.7,15l-.48-3,1,.5.1,0a.22.22,0,0,0,.18-.08.26.26,0,0,0,0-.35L41.18,10a1,1,0,0,0-1.93.08" fill="none"/></clipPath><linearGradient id="h" y1="50.63" x2="1" y2="50.63" gradientTransform="matrix(9.44, 0, 0, -9.44, 48.13, 503.32)" gradientUnits="userSpaceOnUse"><stop offset="0" stop-color="#daf1ef"/><stop offset="0.1" stop-color="#daf1ef"/><stop offset="0.58" stop-color="#00b4f2"/><stop offset="0.64" stop-color="#0dacf2"/><stop offset="0.76" stop-color="#3196f2"/><stop offset="0.91" stop-color="#6973f3"/><stop offset="0.99" stop-color="#8760f3"/><stop offset="1" stop-color="#8760f3"/></linearGradient><clipPath id="i" transform="translate(8.88 1.72)"><path d="M50.66,11.32a2.59,2.59,0,0,0-2.1,1.62c-.05.12-.09.24-.13.36l2.15-.62a1.63,1.63,0,0,1,.41-.36,3.4,3.4,0,0,1,.84-.38,7.84,7.84,0,0,1,1-.22,4.39,4.39,0,0,0-1-.35,4.66,4.66,0,0,0-.76-.08l-.4,0" fill="none"/></clipPath><linearGradient id="j" y1="50.67" y2="50.67" gradientTransform="matrix(0, 1.49, 1.49, 0, -24.76, 11.23)" xlink:href="#b"/><clipPath id="k" transform="translate(8.88 1.72)"><path d="M48.45,15.72a7.73,7.73,0,0,0,.86,2.11,12.47,12.47,0,0,0,3,3.46l.51.39q.26-.48.51-.93a12.19,12.19,0,0,1,.71-1.1c.14-.22.39-.61.72-1.06a3,3,0,0,1-.33-.21A14.71,14.71,0,0,1,53,17.33a12.07,12.07,0,0,1-1.27-1.2A7.8,7.8,0,0,1,50.88,15Z" fill="none"/></clipPath><linearGradient id="l" y1="50.58" y2="50.58" gradientTransform="matrix(0, 7.89, 7.89, 0, -347.64, 14.4)" xlink:href="#b"/><clipPath id="m" transform="translate(8.88 1.72)"><path d="M58.55,22.84c0,.3-.08.61-.11.91s-.06.48-.08.71c.58.21,1.17.4,1.77.58a24.41,24.41,0,0,0,4.2.84,17.6,17.6,0,0,0,2.19.08,9.43,9.43,0,0,0,2.26-.33,5,5,0,0,0,.79-.28l-.25-.54h0v0l-.12-.27h0v0l0,0L69,24.27,68.68,24l-.35-.29a11.6,11.6,0,0,1-1.59-.29c-.6-.15-1.21-.33-1.82-.52-1.21-.4-2.43-.85-3.63-1.32l-2.48-1c-.08.72-.17,1.46-.26,2.25" fill="none"/></clipPath><linearGradient id="n" y1="50.68" y2="50.68" gradientTransform="matrix(0, 8.78, 8.78, 0, -381.09, 18.62)" xlink:href="#b"/><clipPath id="o" transform="translate(8.88 1.72)"><path d="M70.87,23.05l.11.13.08.12v0l.07.1.15.26a1.86,1.86,0,0,0,.1-.39,2.54,2.54,0,0,0-.09-1.11,2.83,2.83,0,0,1-.43.87" fill="none"/></clipPath><linearGradient id="p" y1="50.61" y2="50.61" gradientTransform="matrix(0, 1.6, 1.6, 0, -9.87, 22.16)" xlink:href="#b"/><clipPath id="q" transform="translate(8.88 1.72)"><path d="M13.33,13.88c-.12,1.4.58,2.65,1.57,2.81s1.9-.85,2-2.25-.58-2.65-1.57-2.81h-.2c-.91,0-1.7,1-1.82,2.26" fill="none"/></clipPath><linearGradient id="r" y1="50.63" y2="50.63" gradientTransform="matrix(-29.44, 0, 0, -29.44, 26.44, 1504.67)" xlink:href="#b"/><clipPath id="s" transform="translate(8.88 1.72)"><path d="M11.57,23.06a10.12,10.12,0,0,1,1.16-.65,4.88,4.88,0,0,1,1.14-2.58A28.57,28.57,0,0,1,0,16.06c2.49,4,7.06,6.22,11.57,7" fill="none"/></clipPath><linearGradient id="t" y1="50.6" y2="50.6" gradientTransform="matrix(0, 14.86, 14.86, 0, -745.07, 11.47)" xlink:href="#b"/><clipPath id="u" transform="translate(8.88 1.72)"><path d="M25.2,12.32h0c0,.1-.32.71-.36.79,1.56,2.83.31,4.75-2.57,5.69l-1.23,2.7a10.37,10.37,0,0,1,.53,1c2.84-.85,6.16-3,5.93-6.36a5.24,5.24,0,0,0-2.28-3.83l0,0" fill="none"/></clipPath><linearGradient id="v" y1="50.72" y2="50.72" gradientTransform="matrix(0, 4.48, 4.48, 0, -202.77, 15.87)" xlink:href="#b"/><clipPath id="w" transform="translate(8.88 1.72)"><path d="M16.12,36.05a107.24,107.24,0,0,1-5,13.67h0A86.69,86.69,0,0,0,19,34.6a6.22,6.22,0,0,1-2.84,1.45" fill="none"/></clipPath><linearGradient id="x" y1="50.62" y2="50.62" gradientTransform="matrix(0, 3.95, 3.95, 0, -184.95, 38.46)" xlink:href="#b"/><clipPath id="y" transform="translate(8.88 1.72)"><path d="M15.26,17.54c-.32,0-.22.54.07,1.4h0a2.26,2.26,0,0,1,.44-.08,4.22,4.22,0,0,1,2.13.36L18,19a6,6,0,0,0-2.66-1.47h-.11" fill="none"/></clipPath><linearGradient id="z" y1="50.71" y2="50.71" gradientTransform="matrix(0, 4.06, 4.06, 0, -189.58, 15.43)" xlink:href="#b"/><clipPath id="aa" transform="translate(8.88 1.72)"><path d="M21.14,27.33A4.2,4.2,0,0,0,21,29.19a5.48,5.48,0,0,1-.45,3.27h0c.75,6.29-2,15.62-2.74,17.6h0c.09,0,5.46-9.69,5-18.87A24.52,24.52,0,0,0,22,25.67a4.28,4.28,0,0,1-.86,1.66" fill="none"/></clipPath><linearGradient id="ab" y1="50.66" y2="50.66" gradientTransform="matrix(0, 12.18, 12.18, 0, -596.24, 28.36)" xlink:href="#b"/><clipPath id="ac" transform="translate(8.88 1.72)"><path d="M18.18,20.22c-2.32-1.42-4.48-.36-4.75,2.71-11.1,5.09-.58,18.51,6.25,9.58,1.29-1.92-.49-3.83.8-5.62.5-.68,1.37-2.74.51-3.11-.07,1.94-3,1.37-3.61,5.21,0,.27-.08,2.45-1.75,2.61-4.45.44-4.63-4-1.12-6.21C17.26,23.55,14,20.5,17.69,21l-4.42,7.21,3.14,1.67c.28-.61,5.77-12.75,7.81-17.24l-1-.56s-4.74,7.73-5,8.12" fill="none"/></clipPath><linearGradient id="ad" x1="0" y1="50.62" x2="1" y2="50.62" gradientTransform="matrix(25.96, 0, 0, -25.96, 3.18, 1341.13)" xlink:href="#h"/><clipPath id="ae" transform="translate(8.88 1.72)"><polygon points="23.66 11.18 24.71 11.73 27.35 9.29 24.2 7.62 23.66 11.18" fill="none"/></clipPath><linearGradient id="af" x1="0" y1="50.54" x2="1" y2="50.54" gradientTransform="matrix(4.95, 0, 0, -4.95, 22.39, 259.9)" xlink:href="#h"/><clipPath id="ag" transform="translate(8.88 1.72)"><path d="M34.92,6.2c-.43,1.19-.07,2.35.8,2.59a1,1,0,0,0,.34.05,2.4,2.4,0,0,0,2-1.74c.43-1.18.07-2.34-.8-2.59a1.26,1.26,0,0,0-.33,0,2.4,2.4,0,0,0-2,1.74" fill="none"/></clipPath><linearGradient id="ah" y1="50.63" y2="50.63" gradientTransform="matrix(0, 32.9, 32.9, 0, -1629.3, -2.53)" xlink:href="#b"/><clipPath id="ai" transform="translate(8.88 1.72)"><path d="M35,10.72l-.21.58A32.48,32.48,0,0,0,33.75,15c-1.5,6.56-1.38,14.12-1.1,24.09.83-9.46,2.33-14.55,2.88-18,1.13,4.61,2.33,9.21,4.7,17.09.09.28.17.57.26.86h0c0-.11-.06-.54-.12-1.22-.3-3.46-1.09-13.39-2.37-20.75-.23-1.31-.47-2.54-.74-3.63a24.17,24.17,0,0,0-.79-2.77c-.23-.5-.45-.74-.68-.74s-.49.26-.76.74" fill="none"/></clipPath><linearGradient id="aj" y1="50.67" y2="50.67" gradientTransform="matrix(0, 38.15, 38.15, 0, -1896.62, -0.9)" xlink:href="#b"/><clipPath id="ak" transform="translate(8.88 1.72)"><path d="M58.45,12.93c-1.05.93-1.33,2.25-.62,3a1.37,1.37,0,0,0,.23.19,2.64,2.64,0,0,0,3-.58c1-.93,1.33-2.25.61-3a1.06,1.06,0,0,0-.23-.19,1.71,1.71,0,0,0-.93-.25,3.15,3.15,0,0,0-2,.83" fill="none"/></clipPath><linearGradient id="al" y1="50.62" y2="50.62" gradientTransform="matrix(0, -32.56, 32.56, 0, -1588.54, 23.41)" xlink:href="#b"/><clipPath id="am" transform="translate(8.88 1.72)"><path d="M57.94,16.91h0c-.69,0-1.67,1-2.45,2.07-.29.39-.55.77-.75,1.09s-.47.69-.68,1.06-.37.65-.53,1a18.64,18.64,0,0,0-1,2.37c-3,9-1.53,22.55.52,25.8a19.93,19.93,0,0,1-.26-3.92,78,78,0,0,1,1.55-15.51s-.23,4.32,3.28,14.21l.32.87c.17.46.34.93.53,1.42,0,.14.1.28.16.42.13.35.27.7.42,1.07l.15.37q.27.69.57,1.41c0-.11-.14-.71-.3-1.65h0c0-.17-.06-.34-.09-.53-.07-.4-.15-.86-.23-1.35,0-.22-.06-.43-.1-.66-.11-.68-.22-1.42-.34-2.21h0c-.07-.51-.15-1-.23-1.56C57.74,37.5,57,31.1,57.31,27.57c.06-1.05.18-2.21.31-3.38l.06-.53c.14-1.16.29-2.32.4-3.39,0-.19,0-.38.05-.56a2.6,2.6,0,0,0,0-.26c.1-.95.13-2.48-.17-2.55h-.05" fill="none"/></clipPath><linearGradient id="an" y1="50.6" y2="50.6" gradientTransform="matrix(0, 34.89, 34.89, 0, -1711.05, 8.05)" xlink:href="#b"/><clipPath id="ao" transform="translate(8.88 1.72)"><path d="M59.8,17.79h0m4.06,2.76h0l0,0m2-.8h0m.34-.29a.3.3,0,0,1,0,.17l0,.06Zm-1.63-.71h0s0,0,0,0M60.1,16.37a3,3,0,0,0-.68.26,1.78,1.78,0,0,0-.32.24,1.37,1.37,0,0,0-.3.36.61.61,0,0,0,0,.12.5.5,0,0,0,0,.13l0,.13s0,.08,0,.13a1.32,1.32,0,0,0,.07.49,1.79,1.79,0,0,0,.45.67,2.9,2.9,0,0,0,.52.42,5.64,5.64,0,0,0,.53.31l.55.25.27.11.29.1.59-.18h0a.25.25,0,0,1,.16,0,1.44,1.44,0,0,1,.52.17,1.49,1.49,0,0,1,.46.34,1,1,0,0,1,.12.15h0l-.08.36a.37.37,0,0,0,.05.11s0,0,0,0v0l0,0,0,0,.07.06.12.09.22.15.43.27c.29.17.58.34.88.5l0,0h0l.31.08.31,0a3.22,3.22,0,0,0,.62,0,2.49,2.49,0,0,0,.6-.14,1.71,1.71,0,0,0,.5-.32,1.48,1.48,0,0,1-.54.17,1.75,1.75,0,0,1-.56,0,2.62,2.62,0,0,1-.54-.12,2.67,2.67,0,0,1-.26-.09l-.2-.09-.78-.62-.38-.31L64,20.7v0a.31.31,0,0,0,0-.1s0-.06,0-.09a.86.86,0,0,0,0-.17,1.25,1.25,0,0,0-.24-.49,2,2,0,0,0-.31-.34,2.11,2.11,0,0,0-.35-.26,2.29,2.29,0,0,0-.86-.35,1.65,1.65,0,0,0-.58,0,.82.82,0,0,0-.24.1l-.22-.1-.46-.24a3.38,3.38,0,0,1-.77-.55.85.85,0,0,1-.18-.25.35.35,0,0,0,0-.06h0a.46.46,0,0,1,.19-.16,1.29,1.29,0,0,1,.36-.14,1.51,1.51,0,0,1,.42-.05h.33l.12,0,.48.12c.16.06.32.11.48.18a7.61,7.61,0,0,1,1.56.9h0v.08a.19.19,0,0,0,0,.08.76.76,0,0,0,0,.16l.06.13a1.43,1.43,0,0,0,.14.2,1.65,1.65,0,0,0,.64.42,2.32,2.32,0,0,0,.7.17,1.64,1.64,0,0,0,.38,0,1,1,0,0,0,.28-.1l.11.05.28.17c.19.12.37.25.55.38a3,3,0,0,1,.47.47,1.29,1.29,0,0,1,.31.59,1.4,1.4,0,0,0-.16-.69,2.62,2.62,0,0,0-.4-.6,5.9,5.9,0,0,0-.49-.51,3.11,3.11,0,0,0-.28-.23l-.15-.12-.08,0,0,0h-.16a.28.28,0,0,0-.13,0l0,0v0h0a.7.7,0,0,1-.13,0,.82.82,0,0,1-.21,0,1.3,1.3,0,0,1-.46-.18,1,1,0,0,1-.33-.27s0,0,0,0h0l.11-.44-.16-.15a7.15,7.15,0,0,0-1.94-1.38,5,5,0,0,0-1.16-.42l-.16,0-.16,0h-.42a3.15,3.15,0,0,0-.61.06" fill="none"/></clipPath><linearGradient id="ap" x1="0" y1="50.64" x2="1" y2="50.64" gradientTransform="matrix(0, 10.22, 10.22, 0, -454.27, 14.55)" xlink:href="#h"/><clipPath id="aq" transform="translate(8.88 1.72)"><path d="M64.33,19.66l2.43,1.89L68,22.5l1.2.95.29.24.08.07c.06.06.13.12.18.18s0,0,.07.09l0,.06a.3.3,0,0,0,0,.08c0,.1.1.22.15.33s.14.32.22.48.07.15.11.23a3.31,3.31,0,0,0,.49.7l.09.08.1.09a1,1,0,0,0,.22.13,1.2,1.2,0,0,0,.49.14h.08a1.11,1.11,0,0,0,.44-.08.93.93,0,0,0,.44-.36.77.77,0,0,0,.07-.26v0s0,0,0,0a.38.38,0,0,0,0-.16.47.47,0,0,0-.07-.12.9.9,0,0,0-.74-.39h-.08a1,1,0,0,0-.39.14l0,.07h.15a.76.76,0,0,1,.21,0,.69.69,0,0,1,.28.15.57.57,0,0,1,.16.23v0a0,0,0,0,0,0,0s0,0,0,0l0,0a.46.46,0,0,1-.17.07H72l-.15,0a.67.67,0,0,1-.23-.1l-.1-.08,0,0,0-.06s0,0,0-.06l0-.06a1.1,1.1,0,0,0-.09-.14l-.17-.31-.21-.39-.15-.28-.2-.34-.06-.09a.61.61,0,0,0-.07-.1l-.07-.09-.11-.1-.33-.25L69.53,23l-1.27-.87L67,21.24l-1.3-.82L65,20l-.65-.4Z" fill="none"/></clipPath><linearGradient id="ar" x1="0" y1="50.65" x2="1" y2="50.65" gradientTransform="matrix(0, 10.56, 10.56, 0, -466.43, 17.6)" xlink:href="#h"/><clipPath id="as" transform="translate(8.88 1.72)"><polygon points="50.35 13.54 48.29 14.13 47.33 14.41 48.14 15.01 48.31 14.96 50.53 14.28 61.02 11.07 61.58 10.32 50.35 13.54" fill="none"/></clipPath><linearGradient id="at" x1="0" y1="50.63" x2="1" y2="50.63" gradientTransform="matrix(14.26, 0, 0, -14.26, 56.2, 736.34)" xlink:href="#h"/></defs><g clip-path="url(#a)"><rect x="26.04" y="-0.6" width="10.18" height="15.72" transform="translate(8.1 10.83) rotate(-16.44)" fill="url(#b)"/></g><g clip-path="url(#c)"><rect x="37.71" y="13.58" width="4.42" height="4.19" transform="translate(6.07 13.66) rotate(-16.44)" fill="url(#d)"/></g><g clip-path="url(#e)"><rect x="43.1" y="13.72" width="1.73" height="2.29" transform="translate(6.47 14.77) rotate(-16.44)" fill="url(#f)"/></g><g clip-path="url(#g)"><rect x="48.13" y="10.81" width="9.44" height="29.61" fill="url(#h)"/></g><g clip-path="url(#i)"><rect x="48.23" y="10.68" width="4.81" height="3.24" transform="translate(7.52 17.47) rotate(-17.45)" fill="url(#j)"/></g><g clip-path="url(#k)"><rect x="47.59" y="14.17" width="8.07" height="8.31" transform="translate(5.76 18.04) rotate(-17.45)" fill="url(#l)"/></g><g clip-path="url(#m)"><rect x="57.81" y="19.03" width="12.32" height="8.51" transform="translate(4.84 21.97) rotate(-17.45)" fill="url(#n)"/></g><g clip-path="url(#o)"><rect x="70.66" y="22.13" width="1" height="1.6" transform="translate(5.28 24.11) rotate(-17.45)" fill="url(#p)"/></g><g clip-path="url(#q)"><rect x="12.68" y="11.26" width="4.9" height="5.94" transform="translate(6.11 5.41) rotate(-12.75)" fill="url(#r)"/></g><g clip-path="url(#s)"><rect x="0.83" y="11.8" width="12.22" height="15.53" transform="translate(-4.84 19.26) rotate(-64.9)" fill="url(#t)"/></g><g clip-path="url(#u)"><rect x="18.36" y="12.2" width="12.06" height="10.37" transform="translate(7.18 33.82) rotate(-64.9)" fill="url(#v)"/></g><g clip-path="url(#w)"><rect x="6.5" y="34.76" width="17" height="14.8" transform="matrix(0.54, -0.84, 0.84, 0.54, -19.73, 33.87)" fill="url(#x)"/></g><g clip-path="url(#y)"><rect x="14.94" y="16.63" width="3.08" height="3.51" transform="translate(1 24.12) rotate(-57.49)" fill="url(#z)"/></g><g clip-path="url(#aa)"><rect x="8.8" y="29.01" width="23.51" height="17.72" transform="matrix(0.54, -0.84, 0.84, 0.54, -13.55, 36.57)" fill="url(#ab)"/></g><g clip-path="url(#ac)"><rect x="-2.83" y="8.86" width="32.21" height="35.83" transform="translate(-1.16 9.8) rotate(-24.91)" fill="url(#ad)"/></g><g clip-path="url(#ae)"><rect x="22.96" y="7.03" width="5.08" height="5.29" transform="translate(7.18 13.36) rotate(-24.91)" fill="url(#af)"/></g><g clip-path="url(#ag)"><rect x="33.58" y="3.71" width="5.81" height="5.89" transform="translate(12.08 24.73) rotate(-36.51)" fill="url(#ah)"/></g><g clip-path="url(#ai)"><rect x="24.39" y="10.39" width="23.95" height="28.31" transform="translate(1.41 28.17) rotate(-36.51)" fill="url(#aj)"/></g><g clip-path="url(#ak)"><rect x="56.98" y="11.28" width="5.52" height="6.1" transform="translate(41.07 70.95) rotate(-76.84)" fill="url(#al)"/></g><g clip-path="url(#am)"><rect x="42.03" y="16.5" width="25.18" height="34.53" transform="translate(-0.62 32) rotate(-28.61)" fill="url(#an)"/></g><g clip-path="url(#ao)"><rect x="58.05" y="13.88" width="10.26" height="10.88" transform="translate(18.76 60.09) rotate(-53.23)" fill="url(#ap)"/></g><g clip-path="url(#aq)"><rect x="63.32" y="17.58" width="10.46" height="10.8" transform="translate(17.99 65.85) rotate(-53.23)" fill="url(#ar)"/></g><g clip-path="url(#as)"><rect x="56.2" y="12.04" width="14.26" height="4.69" fill="url(#at)"/></g></svg>