<svg xmlns="http://www.w3.org/2000/svg" xmlns:xlink="http://www.w3.org/1999/xlink" width="1285.42" height="973.62" viewBox="0 0 1285.42 973.62"><defs><clipPath id="a" transform="translate(135.33 56.36)"><path d="M386,392.09c-8.95,12.41,2.55,30.05,13.89,33.9h20.51c-17.48,42-40.75,85.53-71.75,126.94-8.68,11.6,2.27,33.91,13.9,33.91h32.49a623.93,623.93,0,0,1-72.45,115.85c-8.89,11.24,2.26,33.9,13.89,33.9H609.73c11.63,0,22.8-22.69,13.9-33.9a621,621,0,0,1-72.69-115.85h32.73c11.64,0,22.58-22.31,13.9-33.91C566.57,511.52,543.3,468,525.82,426h20.26c11.34-3.86,22.5-21.71,13.89-33.9-86.77-123-87-254.93-87-256.1,0,1.18-.26,135.75-87,256.1M473,136h0" fill="none"/></clipPath><linearGradient id="b" y1="803.52" x2="1" y2="803.52" gradientTransform="matrix(0, 811.28, 811.28, 0, -651406.64, 45.3)" gradientUnits="userSpaceOnUse"><stop offset="0" stop-color="#daf1ef"/><stop offset="0.1" stop-color="#daf1ef"/><stop offset="0.58" stop-color="#00b4f2"/><stop offset="0.61" stop-color="#0dacf2"/><stop offset="0.68" stop-color="#3196f2"/><stop offset="0.76" stop-color="#6973f3"/><stop offset="0.8" stop-color="#8760f3"/><stop offset="1" stop-color="#8760f3"/></linearGradient><clipPath id="c" transform="translate(135.33 56.36)"><path d="M687,245.8c5.09-10.86,10.77-21.84,16.68-32.15q6.65-11.55,13.07-20.76c-78-17.94-162.12-18-229.86-64.6,38,72.94,127.26,96.22,200.11,117.51" fill="none"/></clipPath><linearGradient id="d" y1="803.37" x2="1" y2="803.37" gradientTransform="matrix(0, 222.66, 222.66, 0, -178274.55, 73.12)" gradientUnits="userSpaceOnUse"><stop offset="0" stop-color="#ffc330"/><stop offset="0.36" stop-color="#e99135"/><stop offset="0.57" stop-color="#da7039"/><stop offset="0.83" stop-color="#c54c14"/><stop offset="1" stop-color="#b93900"/></linearGradient><clipPath id="e" transform="translate(135.33 56.36)"><path d="M785.36,277.33c91,37.74,88.73,108,54.08,188.5C871.6,441,895.09,404.7,900.83,363.62c10.49-73.27-51.22-129.34-115.13-151.29.56,21.74.07,41.06-.34,65" fill="none"/></clipPath><linearGradient id="f" y1="803.47" y2="803.47" gradientTransform="matrix(0, 257.63, 257.63, 0, -206147.86, 197.01)" xlink:href="#d"/><clipPath id="g" transform="translate(135.33 56.36)"><path d="M781.18,64.73c-16.71,1.46-32.76,19-37.39,42.11-5.16,25.66,5.71,48.47,24.28,50.94a25.14,25.14,0,0,0,5.55.12c16.71-1.46,32.77-19,37.41-42.11,5.15-25.67-5.72-48.47-24.29-50.94a24.14,24.14,0,0,0-3.29-.22c-.76,0-1.51,0-2.27.1" fill="none"/></clipPath><linearGradient id="h" y1="803.44" y2="803.44" gradientTransform="matrix(0, 551.96, 551.96, 0, -442689.06, -28.04)" xlink:href="#d"/><clipPath id="i" transform="translate(135.33 56.36)"><path d="M761.94,172.78c-17.13,2-35.25,31.14-45.27,48.35-104.19,158.11-37.6,511.64,17.39,582.31-15.47-40.88-28.6-246.63-12.89-364,.85-.54,5.05,110.72,138.73,357.88-4.83-9.89-104.91-366-90.06-489.87.38-28.9,1.37-60.17,1-87.86,0-14-1.51-47-8.15-47a2.13,2.13,0,0,0-.77.14" fill="none"/></clipPath><linearGradient id="j" y1="803.42" y2="803.42" gradientTransform="matrix(0, 575.81, 575.81, 0, -461879.89, 55.01)" xlink:href="#d"/><clipPath id="k" transform="translate(135.33 56.36)"><polygon points="474.21 0 460.29 48.86 409.66 44.62 451.83 72.96 432.15 119.8 472.13 88.45 510.6 121.64 493.14 73.93 536.59 47.6 485.82 49.46 474.21 0" fill="none"/></clipPath><linearGradient id="l" y1="803.52" x2="1" y2="803.52" gradientTransform="matrix(122.06, 0, 0, -122.06, 395.76, 98139.18)" gradientUnits="userSpaceOnUse"><stop offset="0" stop-color="#daf1ef"/><stop offset="0.19" stop-color="#daf1ef"/><stop offset="0.58" stop-color="#00b4f2"/><stop offset="0.62" stop-color="#0dacf2"/><stop offset="0.69" stop-color="#3196f2"/><stop offset="0.79" stop-color="#6973f3"/><stop offset="0.84" stop-color="#8760f3"/><stop offset="1" stop-color="#8760f3"/></linearGradient><clipPath id="m" transform="translate(135.33 56.36)"><path d="M148.72,399.19c-.05-2.51-.09-5-.14-7.49-.31-16.42-.59-30.95-.47-45.12C86.21,391.82,39.4,361,0,305.62c8.64,75.5,75.05,125.6,148.72,93.57" fill="none"/></clipPath><linearGradient id="n" y1="803.34" y2="803.34" gradientTransform="matrix(0, 171.04, 171.04, 0, -137326.83, 273.83)" xlink:href="#d"/><clipPath id="o" transform="translate(135.33 56.36)"><path d="M196.1,305.89c8.38,8.22,19.36,25,27,39.38C272,297.81,307.28,234.71,370.93,205.62c-2.24-.13-4.45-.18-6.66-.18-68.51,0-121,57.53-168.17,100.45" fill="none"/></clipPath><linearGradient id="p" y1="803.27" y2="803.27" gradientTransform="matrix(0, 65.48, 65.48, 0, -52318.7, 238.6)" xlink:href="#d"/><clipPath id="q" transform="translate(135.33 56.36)"><path d="M143.26,208.37c-14.62,1.94-23.17,19.88-19.12,40.09,3.65,18.19,16.3,32,29.45,33.14a20,20,0,0,0,4.37-.09c14.61-1.94,23.17-19.9,19.11-40.09-3.65-18.2-16.28-32-29.43-33.15-.6-.05-1.19-.08-1.79-.08a18.79,18.79,0,0,0-2.59.18" fill="none"/></clipPath><linearGradient id="r" y1="803.44" y2="803.44" gradientTransform="translate(260.37 349294.28) rotate(180) scale(434.45)" xlink:href="#d"/><clipPath id="s" transform="translate(135.33 56.36)"><path d="M163.27,338.18c-.59,23.72-.87,49.81.67,74.87,6.16,100.3-66.36,374.59-70.88,385.59,64.31-121.68,97.23-203,109.16-281.8,12.44,92.34,2.05,254.41-10.11,286.6,43.28-55.63,95.71-333.84,13.69-458.33C196,329.75,186.47,311,170.17,307.05a1.81,1.81,0,0,0-.55-.09c-4.35,0-6.14,17.34-6.35,31.22" fill="none"/></clipPath><linearGradient id="t" y1="803.54" y2="803.54" gradientTransform="matrix(0, 425.77, 425.77, 0, -341933.52, 201.8)" xlink:href="#d"/><clipPath id="u" transform="translate(135.33 56.36)"><path d="M123.51,245.62a51.62,51.62,0,0,0,35.75-33.43l-66.9-35.71Z" fill="none"/></clipPath><linearGradient id="v" y1="803.42" x2="1" y2="803.42" gradientTransform="matrix(0, 73.37, -73.37, 0, 59075.79, 172.16)" gradientUnits="userSpaceOnUse"><stop offset="0" stop-color="#daf1ef"/><stop offset="0.1" stop-color="#daf1ef"/><stop offset="0.58" stop-color="#00b4f2"/><stop offset="0.64" stop-color="#0dacf2"/><stop offset="0.76" stop-color="#3196f2"/><stop offset="0.91" stop-color="#6973f3"/><stop offset="0.99" stop-color="#8760f3"/><stop offset="1" stop-color="#8760f3"/></linearGradient><clipPath id="w" transform="translate(135.33 56.36)"><path d="M88.31,179a6.22,6.22,0,1,0,6.22-6.22A6.23,6.23,0,0,0,88.31,179" fill="none"/></clipPath><linearGradient id="x" y1="803.44" y2="803.44" gradientTransform="translate(100.75 10170.51) rotate(180) scale(12.44)" xlink:href="#v"/><clipPath id="y" transform="translate(135.33 56.36)"><path d="M781.05,39.72c-9.29,15.37-9.79,16.05-16.42,26.94l54.6,33c6.66-11,13.75-22.74,14.77-24.42a6.67,6.67,0,1,1,11.41,6.9L837.1,95.9l6.81,4.11,9.87-16.32a42.49,42.49,0,1,0-72.73-44" fill="none"/></clipPath><linearGradient id="z" y1="803.45" y2="803.45" gradientTransform="matrix(-104.78, 0, 0, 104.78, 893.52, -84122.62)" xlink:href="#v"/><clipPath id="aa" transform="translate(135.33 56.36)"><path d="M759.16,67.28l-4.38,7.25a4.46,4.46,0,0,0,1.5,6.1l54.13,32.73a4.47,4.47,0,0,0,6.11-1.5l4.38-7.25a4.47,4.47,0,0,0-1.51-6.11L765.27,65.78a4.36,4.36,0,0,0-2.29-.64,4.45,4.45,0,0,0-3.82,2.14" fill="none"/></clipPath><linearGradient id="ab" y1="803.44" y2="803.44" gradientTransform="matrix(-45.34, 0, 0, 45.34, 821.24, -36339.62)" xlink:href="#v"/><clipPath id="ac" transform="translate(135.33 56.36)"><path d="M832.29,98.7A6.7,6.7,0,1,0,838,95.47a6.68,6.68,0,0,0-5.73,3.23" fill="none"/></clipPath><linearGradient id="ad" y1="803.44" y2="803.44" gradientTransform="matrix(-17.84, 0, 0, 17.84, 851.53, -14234.6)" xlink:href="#v"/><clipPath id="ae" transform="translate(135.33 56.36)"><path d="M342.85,246.63a28.08,28.08,0,1,0,28.08-28.08,28.08,28.08,0,0,0-28.08,28.08" fill="none"/></clipPath><linearGradient id="af" y1="803.44" y2="803.44" gradientTransform="matrix(0, -54.09, -54.09, 0, 43831.33, 279.92)" xlink:href="#l"/></defs><g clip-path="url(#a)"><rect x="218.03" y="99.06" width="510.19" height="674.46" transform="translate(11.83 251.34) rotate(-20.66)" fill="url(#b)"/></g><g clip-path="url(#c)"><rect x="473.52" y="74.65" width="256.55" height="224.78" transform="translate(131.96 419.23) rotate(-33.47)" fill="url(#d)"/></g><g clip-path="url(#e)"><rect x="725.91" y="198.61" width="244.86" height="280.93" transform="translate(89 580.4) rotate(-33.47)" fill="url(#f)"/></g><g clip-path="url(#g)"><rect x="717.99" y="50.65" width="118.84" height="121.4" transform="translate(234.72 564) rotate(-38.46)" fill="url(#h)"/></g><g clip-path="url(#i)"><rect x="459.06" y="156.7" width="554.26" height="662.66" transform="translate(-11.74 543.25) rotate(-33.47)" fill="url(#j)"/></g><g clip-path="url(#k)"><rect x="387.29" y="-24.13" width="171.66" height="169.89" transform="translate(172.64 311.12) rotate(-31.31)" fill="url(#l)"/></g><g clip-path="url(#m)"><rect x="-22.3" y="275.02" width="193.33" height="186.79" transform="translate(-55.51 158.45) rotate(-33.47)" fill="url(#n)"/></g><g clip-path="url(#o)"><rect x="172.04" y="168.82" width="222.95" height="213.06" transform="translate(30.49 258.36) rotate(-33.47)" fill="url(#p)"/></g><g clip-path="url(#q)"><rect x="102.83" y="198.19" width="95.55" height="93.54" transform="translate(0.45 266.91) rotate(-51.54)" fill="url(#r)"/></g><g clip-path="url(#s)"><rect x="-27.69" y="294.41" width="436.26" height="521.57" transform="translate(-139.26 253.43) rotate(-33.47)" fill="url(#t)"/></g><g clip-path="url(#u)"><rect x="77.72" y="162.94" width="96.17" height="96.21" transform="translate(23.64 204.47) rotate(-44.36)" fill="url(#v)"/></g><g clip-path="url(#w)"><rect x="85.91" y="170.36" width="17.23" height="17.23" transform="translate(28.43 215.5) rotate(-56.53)" fill="url(#x)"/></g><g clip-path="url(#y)"><rect x="762.73" y="-0.04" width="105.08" height="119.3" transform="matrix(0.27, -0.96, 0.96, 0.27, 673.85, 885.15)" fill="url(#z)"/></g><g clip-path="url(#aa)"><rect x="754.77" y="50.16" width="66.13" height="79.43" transform="translate(624.64 880.85) rotate(-74.39)" fill="url(#ab)"/></g><g clip-path="url(#ac)"><rect x="829.06" y="93.35" width="17.91" height="18.57" transform="translate(649.04 938.5) rotate(-74.39)" fill="url(#ad)"/></g><g clip-path="url(#ae)"><rect x="332.34" y="208.04" width="77.17" height="77.17" transform="translate(102.78 491.71) rotate(-58.69)" fill="url(#af)"/></g></svg>