<svg xmlns="http://www.w3.org/2000/svg" xmlns:xlink="http://www.w3.org/1999/xlink" width="69.99" height="68.46" viewBox="0 0 69.99 68.46"><defs><clipPath id="a" transform="translate(0 0)"><rect width="69.99" height="68.46" fill="none"/></clipPath></defs><g clip-path="url(#a)"><path d="M53.63,57.3c0,.09,0,.19.08.28.66-.26,1.31-.54,1.95-.85.31-.14.69-.34,1-.51a25.62,25.62,0,0,0,2.88-1.74c-.71.45-1.44.87-2.19,1.25l-1.26.6c-.49.21-1,.46-1.55.65l-.91.32" transform="translate(0 0)" fill="#e2e2e2"/><path d="M41.37,59c0-.13-.06-.27-.1-.4-.67-.08-1.34-.19-2-.33a27.26,27.26,0,0,1-13.81-7.39,26.72,26.72,0,0,1-5.33-30.32,1.55,1.55,0,0,0-2.86-1.2,28.89,28.89,0,0,0,20.15,39.5c.52.1,1.16.25,1.68.32.33,0,.81.13,1.13.15s.84.09,1.26.12L41.37,59" transform="translate(0 0)" fill="#e2e2e2"/><path d="M49.77,58.32a27.87,27.87,0,0,1-4.57.46l.09.65a27.2,27.2,0,0,0,4.52-.65l.14,0-.18-.43" transform="translate(0 0)" fill="#e2e2e2"/><path d="M54.77,61.31l.06.18a29.94,29.94,0,0,0,3.46-3,30,30,0,0,1-3.52,2.84" transform="translate(0 0)" fill="#e2e2e2"/><path d="M51.9,63.08a31.82,31.82,0,0,1-5.59,2.35c0,.18.07.34.11.51A32.29,32.29,0,0,0,52,63.35l-.12-.27" transform="translate(0 0)" fill="#e2e2e2"/><path d="M43.66,66.13a30.16,30.16,0,0,1-8.21.66,30.48,30.48,0,0,1-25.7-17A29.85,29.85,0,0,1,9,25.21,1.55,1.55,0,1,0,6.1,24.07,32.69,32.69,0,0,0,4.39,40.41,32.26,32.26,0,0,0,24.56,65.58,31.62,31.62,0,0,0,43.88,66.7c-.07-.17-.14-.36-.22-.57" transform="translate(0 0)" fill="#e2e2e2"/><rect x="65" y="49.97" width="1.02" height="16.07" transform="translate(-5.73 7.2) rotate(-6.03)" fill="#e2e2e2"/><path d="M62.27,50.27a1.41,1.41,0,0,0-.67.26l-.89-8.48-.69.07,1.8,17.05L62.44,65A1.38,1.38,0,0,0,64,66.25l.73-.08L63,50.19Z" transform="translate(0 0)" fill="#e2e2e2"/><path d="M70,64.22,68.58,51a1.38,1.38,0,0,0-1.52-1.23l-.73.08,1.69,16,.73-.08A1.38,1.38,0,0,0,70,64.22" transform="translate(0 0)" fill="#e2e2e2"/><path d="M63.77,66.53a.75.75,0,0,0-.67.82.74.74,0,0,0,.83.66.74.74,0,1,0-.16-1.48" transform="translate(0 0)" fill="#e2e2e2"/><path d="M54.12,14.35c-.76,2-.22,3.9,1.21,4.35s3.2-.76,4-2.71.22-3.9-1.21-4.35-3.2.76-4,2.71" transform="translate(0 0)" fill="#c6c6c6"/><path d="M42.17,15.86a24.35,24.35,0,0,0,2.35,9.69,18.73,18.73,0,0,1,4-4.33c-1.28-3.62-3.07-8.57-.44-11.93a6.46,6.46,0,0,1,7.7-1.36c-2.2-3.22-7.24-3-10.12-.8-2.68,2-3.61,5.54-3.53,8.73" transform="translate(0 0)" fill="#c6c6c6"/><path d="M49.39,35.23c.06-.61.14-1.22.25-1.81a32,32,0,0,1,1.85-6.35C53.2,22.75,55.09,20,53.87,20h0A9.79,9.79,0,0,0,49,22.33a18.44,18.44,0,0,0-3.91,4.43,30.74,30.74,0,0,0-4.28,12.56C39,52.94,45.63,68.07,45.74,68.07s0,0,0,0c-1-3.34-4.22-20.21-1-29.12,0,0,0,0,0,0,.25,0,.43,8.73,11,29.56v0c.1,0-7.63-21.14-6.42-33.23" transform="translate(0 0)" fill="#c6c6c6"/><path d="M64.94,44.32a139.5,139.5,0,0,1-12.68-16,28.89,28.89,0,0,0-1.65,6.44l0-.2A41.26,41.26,0,0,0,65.51,45l-.57-.68" transform="translate(0 0)" fill="#c6c6c6"/><path d="M11.67,12.08c1.36.77,2.78,1.54,4.23,2.3-2.72,2.8-7.56,7-8.41,6.83-1.1-.17-1.67-3.08-1.16-5.08A35.68,35.68,0,0,1,8.41,10.2c1,.59,2.09,1.21,3.26,1.88" transform="translate(0 0)" fill="#e2e2e2"/><path d="M26.68,9.25A74.06,74.06,0,0,0,19,3.75C23.54,3,30,2.63,32,2.45c0,0,4.82.58,4.61,1.88-.11.67-5.43,3.6-9.88,4.92" transform="translate(0 0)" fill="#e2e2e2"/><path d="M38.33,14c-.86.71-2.75,3.21-4.27,4.33h0c.72,1,1.61,3-.61,2.44a32,32,0,0,1-4.86-1.64A164.13,164.13,0,0,1,7.75,8.46C5.84,7.3,3.93,6.12,2.15,4.78,1.13,3.9-1,2.59.59,1.25S4.57-.1,6.73.1C13.6,1,19.82,5.38,25.28,9.61a65.94,65.94,0,0,1,5.17,4.55,42.94,42.94,0,0,1,4.69-1.36c.88-.24,3.84.65,3.19,1.18" transform="translate(0 0)" fill="#e2e2e2"/></g></svg>