<svg xmlns="http://www.w3.org/2000/svg" xmlns:xlink="http://www.w3.org/1999/xlink" width="54.44" height="55.52" viewBox="0 0 54.44 55.52"><defs><clipPath id="a" transform="translate(0 0)"><rect width="54.44" height="55.52" fill="none"/></clipPath></defs><polygon points="38.89 7.83 23.61 3.09 8.34 7.83 8.07 6.96 23.61 2.14 39.16 6.96 38.89 7.83" fill="#e2e2e2"/><g clip-path="url(#a)"><path d="M26.11,2.5A2.5,2.5,0,1,1,23.61,0a2.5,2.5,0,0,1,2.5,2.5" transform="translate(0 0)" fill="#e2e2e2"/><path d="M43.63,34.88h0m2.88-18.43a2.41,2.41,0,0,0,.72,2.81V15.1a3.43,3.43,0,0,0-.72,1.35M0,6.92v28H39.45c0-.3.07-.6.11-.9H.91V7.83H46.32V15a4.53,4.53,0,0,1,.56-.66,3.07,3.07,0,0,1,.35-.28V6.92ZM46.32,19.57v.05l0,0,0,0" transform="translate(0 0)" fill="#e2e2e2"/><path d="M19.08,22a7.23,7.23,0,1,1-4.42-6.68L10.82,23l7.69-3.84A7.16,7.16,0,0,1,19.08,22" transform="translate(0 0)" fill="#c6c6c6"/><path d="M19.8,16.49l-5,2.5,2.5-5a7.41,7.41,0,0,1,2.51,2.5" transform="translate(0 0)" fill="#c6c6c6"/><polygon points="26.66 19.11 27.32 20.23 19.91 13.72 20 13.61 20.1 13.49 27.65 19.38 26.45 18.77 26.66 19.11" fill="#c6c6c6"/><path d="M50.21,17.27a2.75,2.75,0,0,1-2.29,2.17,1.63,1.63,0,0,1-.31,0c-1-.23-1.52-1.56-1.11-3a2.77,2.77,0,0,1,2.3-2.17l.31,0c1,.23,1.51,1.56,1.1,3" transform="translate(0 0)" fill="#c6c6c6"/><path d="M42.43,24.38A20.42,20.42,0,0,0,41,27.61h-.5a14.8,14.8,0,0,1-2.29-.17,13.77,13.77,0,0,1-9.62-6.68C33.37,23.18,35.77,24,38.93,24a36.85,36.85,0,0,0,3.89-.26c-.17.29-.3.53-.39.69" transform="translate(0 0)" fill="#c6c6c6"/><path d="M49.24,34.79h-.11a4.91,4.91,0,0,0,2.51-6.42,3.74,3.74,0,0,0-3.43-1.5h-.32l.06-.57c.13-1.2.23-2.19.3-3a7.67,7.67,0,0,1,4.22,1.53c3.9,2.95,1.59,10-3.23,10" transform="translate(0 0)" fill="#c6c6c6"/><path d="M49.62,55.52h0c-6.25-14.44-5.95-20.64-6-20.64h0c-1.44,6.47-1.71,18-1,20.36-2.1-3.35-4.08-17.21-1-26.85,0-.14.09-.28.14-.41s.09-.28.14-.42a19.83,19.83,0,0,1,1.26-2.8c.2-.35.44-.77.71-1.19l.28-.45.31-.44c.9-1.29,2-2.48,2.76-2.48.32,0,.37.9.29,2.25,0,.13,0,.27,0,.41s0,.27,0,.4c-.09,1.09-.23,2.37-.36,3.66,0,.14,0,.28,0,.42s0,.27,0,.41c-.13,1.28-.24,2.54-.28,3.63s0,2.27,0,3.53c0,.21,0,.42,0,.63a171.32,171.32,0,0,0,2.85,20" transform="translate(0 0)" fill="#c6c6c6"/></g></svg>