<svg xmlns="http://www.w3.org/2000/svg" xmlns:xlink="http://www.w3.org/1999/xlink" width="784.61" height="862.19" viewBox="0 0 784.61 862.19"><defs><clipPath id="a" transform="translate(141.45 157.28)"><path d="M463.24,450.14c-2.84,1.4-7.36,3.52-10.18,4.9-4,1.69-8.43,3.66-12.5,5.18q-3.62,1.36-7.35,2.64c.2.74.4,1.48.61,2.23,5.35-2.09,10.61-4.38,15.73-6.86,2.52-1.14,5.63-2.72,8.11-4.1a209.67,209.67,0,0,0,23.26-14.08c-5.74,3.63-11.66,7-17.68,10.09" fill="none"/></clipPath><linearGradient id="b" y1="553.01" x2="1" y2="553.01" gradientTransform="matrix(0, 551.2, 551.2, 0, -304363.15, -108.31)" gradientUnits="userSpaceOnUse"><stop offset="0" stop-color="#daf1ef"/><stop offset="0.1" stop-color="#daf1ef"/><stop offset="0.58" stop-color="#00b4f2"/><stop offset="0.64" stop-color="#0dacf2"/><stop offset="0.76" stop-color="#3196f2"/><stop offset="0.91" stop-color="#6973f3"/><stop offset="0.99" stop-color="#8760f3"/><stop offset="1" stop-color="#8760f3"/></linearGradient><clipPath id="c" transform="translate(141.45 157.28)"><path d="M139.49,156C83.05,289.84,160,443.36,302.27,475.11c4.18.8,9.37,2,13.58,2.55,2.61.37,6.53,1,9.11,1.28,3.39.4,6.79.71,10.2,1-.32-1.21-.65-2.43-1-3.67-.28-1.07-.55-2.14-.83-3.2q-8.14-1-16.19-2.7a220,220,0,0,1-111.53-59.69c-64.29-63.48-82.26-163.5-43-244.92,3.74-10-4-17.38-11.8-17.39-4.39,0-8.82,2.3-11.33,7.7" fill="none"/></clipPath><linearGradient id="d" y1="553" x2="1" y2="553" gradientTransform="matrix(0, 551.2, 551.2, 0, -304607.4, 35.37)" xlink:href="#b"/><clipPath id="e" transform="translate(141.45 157.28)"><path d="M365.12,474.76c.23,1.78.46,3.54.7,5.29a223.56,223.56,0,0,0,36.55-5.26l1.12-.27c-.5-1.15-1-2.29-1.48-3.44a224.54,224.54,0,0,1-36.89,3.68" fill="none"/></clipPath><linearGradient id="f" y1="553.01" x2="1" y2="553.01" gradientTransform="matrix(0, 551.2, 551.2, 0, -304436.32, -39.64)" xlink:href="#b"/><clipPath id="g" transform="translate(141.45 157.28)"><path d="M442.43,495.22c.15.47.28.95.43,1.42a246.21,246.21,0,0,0,28-24.32,244.72,244.72,0,0,1-28.41,22.9" fill="none"/></clipPath><linearGradient id="h" y1="553.01" x2="1" y2="553.01" gradientTransform="matrix(0, 551.2, 551.2, 0, -304363.63, -94.73)" xlink:href="#b"/><clipPath id="i" transform="translate(141.45 157.28)"><path d="M374.06,528.52c.3,1.41.59,2.76.88,4.06a254,254,0,0,0,45.26-20.9l-1-2.2a253.12,253.12,0,0,1-45.11,19" fill="none"/></clipPath><linearGradient id="j" y1="553.01" x2="1" y2="553.01" gradientTransform="matrix(0, 551.2, 551.2, 0, -304423.31, -31.55)" xlink:href="#b"/><clipPath id="k" transform="translate(141.45 157.28)"><path d="M49.23,194.42A266,266,0,0,0,32.55,282a263.21,263.21,0,0,0,2.92,44.44C49.1,417.59,112.2,496.82,198.38,529.74a255.48,255.48,0,0,0,156,9q-.84-2.12-1.78-4.58a243.28,243.28,0,0,1-66.27,5.26C198,534.77,117.47,482.07,78.78,402.34a240.76,240.76,0,0,1-6.21-198.73,12.56,12.56,0,0,0-7.21-16.56,12.54,12.54,0,0,0-16.13,7.37" fill="none"/></clipPath><linearGradient id="l" y1="553.07" x2="1" y2="553.07" gradientTransform="matrix(0, 551.2, 551.2, 0, -304658.56, 70.82)" xlink:href="#b"/><clipPath id="m" transform="translate(141.45 157.28)"><rect x="525.05" y="403.64" width="8.22" height="129.78" transform="translate(-46.25 58.13) rotate(-6.02)" fill="none"/></clipPath><linearGradient id="n" y1="553.01" x2="1" y2="553.01" gradientTransform="matrix(0, 237.88, 237.88, 0, -131019, 293.58)" xlink:href="#b"/><clipPath id="o" transform="translate(141.45 157.28)"><path d="M484.82,340.23,499.36,478l5,47.22a11.17,11.17,0,0,0,12.28,9.93l5.91-.63L508.91,405.42,503,406a11.18,11.18,0,0,0-5.42,2.11l-7.23-68.51Z" fill="none"/></clipPath><linearGradient id="p" y1="553.02" x2="1" y2="553.02" gradientTransform="matrix(0, 237.88, 237.88, 0, -131047.21, 302.67)" xlink:href="#b"/><clipPath id="q" transform="translate(141.45 157.28)"><path d="M541.7,402l-5.91.62,13.62,129.07,5.92-.63a11.16,11.16,0,0,0,9.93-12.27L554,411.89a11.17,11.17,0,0,0-11.09-10c-.39,0-.79,0-1.19.06" fill="none"/></clipPath><linearGradient id="r" y1="553.02" x2="1" y2="553.02" gradientTransform="matrix(0, 237.88, 237.88, 0, -130998.83, 280.39)" xlink:href="#b"/><clipPath id="s" transform="translate(141.45 157.28)"><path d="M515.1,537.36a6.1,6.1,0,1,0,.65,0c-.22,0-.43,0-.65,0" fill="none"/></clipPath><linearGradient id="t" y1="553.01" x2="1" y2="553.01" gradientTransform="matrix(0, 237.88, 237.88, 0, -131032.33, 316.29)" xlink:href="#b"/><clipPath id="u" transform="translate(141.45 157.28)"><path d="M437.11,115.94c-6.13,15.76-1.75,31.48,9.79,35.13s25.89-6.19,32-21.95,1.76-31.49-9.79-35.13a16.63,16.63,0,0,0-5-.76c-10.41,0-21.73,9.16-27,22.71" fill="none"/></clipPath><linearGradient id="v" y1="553.01" x2="1" y2="553.01" gradientTransform="matrix(0, 355.31, 355.31, 0, -196032.82, -13.17)" gradientUnits="userSpaceOnUse"><stop offset="0" stop-color="#ffc330"/><stop offset="0.36" stop-color="#e99135"/><stop offset="0.57" stop-color="#da7039"/><stop offset="0.83" stop-color="#c54c14"/><stop offset="1" stop-color="#b93900"/></linearGradient><clipPath id="w" transform="translate(141.45 157.28)"><path d="M369.14,57.62C347.5,73.67,340,102.36,340.61,128.07c.54,27.08,7.6,53.77,19,78.28a152.74,152.74,0,0,1,32.65-35c-10.35-29.25-24.78-69.25-3.54-96.36,15-16.32,42.3-22.65,62.16-11-9.37-13.75-25.16-19.82-41.4-19.82-14.49,0-29.33,4.83-40.3,13.36" fill="none"/></clipPath><linearGradient id="x" y1="553.01" y2="553.01" gradientTransform="matrix(0, 355.26, 355.26, 0, -196069.68, 35.84)" xlink:href="#v"/><clipPath id="y" transform="translate(141.45 157.28)"><path d="M435.14,161.62h-.31c-6.57.29-21.81,5.1-38.86,18.75a147.45,147.45,0,0,0-31.62,35.75c-15.08,23.45-28.25,56.22-34.53,101.49-15.25,110,38.74,232.24,39.66,232.24t0-.21c-7.69-27-34.06-163.22-7.69-235.23.09-.27.18-.4.27-.4,2,0,3.43,70.54,88.7,238.83.06.11.09.16.1.16.79,0-61.68-170.79-51.91-268.42.49-5,1.18-9.86,2-14.64a260.93,260.93,0,0,1,14.94-51.33c13.82-34.86,29.07-57,19.27-57h0" fill="none"/></clipPath><linearGradient id="z" y1="552.97" y2="552.97" gradientTransform="matrix(0, 355.31, 355.31, 0, -196095.08, 131.16)" xlink:href="#v"/><clipPath id="aa" transform="translate(141.45 157.28)"><path d="M408.82,280.69c.07-.53.15-1.06.22-1.6,33.52,36,74.15,66.33,120.12,84.39-1.5-1.87-3-3.67-4.59-5.46-36.24-41.47-72.66-83-102.48-129.37-5.73,15.37-10.93,33.29-13.27,52" fill="none"/></clipPath><linearGradient id="ab" y1="553.02" y2="553.02" gradientTransform="matrix(0, 355.31, 355.31, 0, -196025.75, 41.86)" xlink:href="#v"/><clipPath id="ac" transform="translate(141.45 157.28)"><path d="M51.12,130.32c-4.1,16.13.45,39.58,9.38,41,6.85,1.1,46-32.54,67.89-55.2-11.64-6.13-23.12-12.37-34.11-18.57Q80,89.52,67.93,82.41c-7.44,15.64-13.58,35.21-16.81,47.91" fill="none"/></clipPath><linearGradient id="ad" y1="553.04" x2="1" y2="553.04" gradientTransform="matrix(0, 311.19, 311.19, 0, -172012.08, -38.21)" xlink:href="#b"/><clipPath id="ae" transform="translate(141.45 157.28)"><path d="M153.61,30.29a598.51,598.51,0,0,1,61.93,44.39C251.46,64.09,294.45,40.37,295.31,35c1.69-10.53-37.26-15.14-37.26-15.14C242.67,21.24,190.12,24,153.61,30.29" fill="none"/></clipPath><linearGradient id="af" y1="552.97" x2="1" y2="552.97" gradientTransform="matrix(0, 311.19, 311.19, 0, -171853.33, -176.55)" xlink:href="#b"/><clipPath id="ag" transform="translate(141.45 157.28)"><path d="M39.2,0C26.67,0,14.46,2.25,4.72,10.09-8.4,20.94,9.12,31.51,17.35,38.57,31.72,49.43,47.16,59,62.6,68.3c53.47,31.92,110.55,62,168.36,86,13.74,5.44,25.5,10.22,39.27,13.22,17.9,4.65,10.71-11.26,4.88-19.68h0c12.26-9,27.56-29.2,34.45-34.93,5.27-4.35-18.63-11.49-25.77-9.57-11.91,3.23-25.94,6.2-37.82,11a546.92,546.92,0,0,0-41.77-36.74h0C160.06,43.47,109.82,8.16,54.33.81,49.48.35,44.55,0,39.67,0Z" fill="none"/></clipPath><linearGradient id="ah" y1="552.96" x2="1" y2="552.96" gradientTransform="matrix(0, 311.19, 311.19, 0, -171922.16, -105.43)" xlink:href="#b"/></defs><g clip-path="url(#a)"><rect x="432.93" y="425.91" width="48.27" height="53.32" transform="translate(-36.15 714.36) rotate(-54.07)" fill="url(#b)"/></g><g clip-path="url(#c)"><rect x="0.9" y="114.76" width="416.42" height="398.71" transform="translate(-26.49 456.38) rotate(-54.07)" fill="url(#d)"/></g><g clip-path="url(#e)"><rect x="369.42" y="457.4" width="29.77" height="36.33" transform="translate(-84.83 664.95) rotate(-54.07)" fill="url(#f)"/></g><g clip-path="url(#g)"><rect x="438.46" y="465.84" width="36.36" height="37.27" transform="translate(-62.16 727.21) rotate(-54.07)" fill="url(#h)"/></g><g clip-path="url(#i)"><rect x="374.24" y="495.58" width="45.78" height="50.91" transform="translate(-116.35 694.13) rotate(-54.07)" fill="url(#j)"/></g><g clip-path="url(#k)"><rect x="-49.2" y="131.35" width="485.06" height="475.39" transform="translate(-77.48 466.31) rotate(-54.07)" fill="url(#l)"/></g><g clip-path="url(#m)"><rect x="481.81" y="409.79" width="94.69" height="117.49" transform="translate(-33.37 563.04) rotate(-36.43)" fill="url(#n)"/></g><g clip-path="url(#o)"><rect x="430.28" y="347.61" width="146.79" height="180.19" transform="translate(-20.04 541.88) rotate(-36.43)" fill="url(#p)"/></g><g clip-path="url(#q)"><rect x="500.21" y="405.63" width="101.28" height="122.28" transform="translate(-28.09 575.57) rotate(-36.43)" fill="url(#r)"/></g><g clip-path="url(#s)"><rect x="506.91" y="534.74" width="17.64" height="17.56" transform="translate(-80.52 569.72) rotate(-36.43)" fill="url(#t)"/></g><g clip-path="url(#u)"><rect x="417.11" y="83.6" width="81.81" height="80.73" transform="translate(214.5 558.64) rotate(-50.92)" fill="url(#v)"/></g><g clip-path="url(#w)"><rect x="297.58" y="31.2" width="195.69" height="188.22" transform="translate(190.33 510.55) rotate(-50.92)" fill="url(#x)"/></g><g clip-path="url(#y)"><rect x="187.99" y="180.75" width="390.22" height="353.13" transform="translate(5.67 586.72) rotate(-50.92)" fill="url(#z)"/></g><g clip-path="url(#aa)"><rect x="378.73" y="206.86" width="180.53" height="178.42" transform="translate(84.97 630.76) rotate(-50.92)" fill="url(#ab)"/></g><g clip-path="url(#ac)"><rect x="27.16" y="67.58" width="121.09" height="119.67" transform="translate(74.81 274.43) rotate(-51.65)" fill="url(#ad)"/></g><g clip-path="url(#ae)"><rect x="159.31" y="-25.99" width="131.98" height="146.49" transform="translate(189.91 351.92) rotate(-51.65)" fill="url(#af)"/></g><g clip-path="url(#ag)"><rect x="-14.58" y="-94.07" width="335.61" height="360.35" transform="translate(132.08 310.13) rotate(-51.65)" fill="url(#ah)"/></g></svg>