<svg xmlns="http://www.w3.org/2000/svg" xmlns:xlink="http://www.w3.org/1999/xlink" width="52.82" height="63.59" viewBox="0 0 52.82 63.59"><defs><clipPath id="a" transform="translate(0 0)"><rect width="52.82" height="63.59" fill="none"/></clipPath></defs><g clip-path="url(#a)"><path d="M15.56,18.62A55.21,55.21,0,0,0,14.3,24.4c-5.14-.89-10.56-3.41-13-8.28C-1.67,10.67.79,3,6,0A14.66,14.66,0,0,0,4.12,10.84c1.11,5.07,6.68,7.21,11.44,7.78" transform="translate(0 0)" fill="#c6c6c6"/><path d="M43.75,35.09a17.18,17.18,0,0,0-8.19-8.31c-3.43-1.4-7.22-1.62-10.89-1.83-.41-2.18-.79-4-1.29-5.95,4.6.36,9.31,1.19,13.32,3.61,4.18,2.66,7.22,7.49,7,12.48" transform="translate(0 0)" fill="#c6c6c6"/><path d="M17.08,8.13c.13,2.16,1.53,3.76,3.12,3.58S23,9.62,22.85,7.46,21.32,3.7,19.73,3.89,17,6,17.08,8.13" transform="translate(0 0)" fill="#c6c6c6"/><path d="M28.71,63.59c-3.64-11.67-6-19.39-7.47-24.2s-2-6.69-2.12-6.69h0c-1,5.88-2.91,14.64-4.37,30.88-1.53-17.13-.78-30.44.67-39a52,52,0,0,1,1.28-5.82,16.24,16.24,0,0,1,1.7-4.23l-.1.83C17.65,21,17.65,21,17.65,21a.75.75,0,0,0,.26.61l1.13,1a.76.76,0,0,0,1,0l1.13-1A.72.72,0,0,0,21.4,21l-.73-6.44a20.84,20.84,0,0,1,1.54,4.4c.44,1.7.88,3.73,1.31,6,2.83,14.73,5.19,38.55,5.19,38.69" transform="translate(0 0)" fill="#c6c6c6"/><path d="M51.17,37.08H48.11V35.5A1.45,1.45,0,0,0,46.66,34H40.84a1.46,1.46,0,0,0-1.46,1.46v1.58H36.33a1.65,1.65,0,0,0-1.65,1.65v9.1a1.65,1.65,0,0,0,1.65,1.65H51.17a1.65,1.65,0,0,0,1.65-1.65v-9.1a1.65,1.65,0,0,0-1.65-1.65M40.5,35.5a.34.34,0,0,1,.34-.34h5.82a.34.34,0,0,1,.33.34v1.58H40.5Z" transform="translate(0 0)" fill="#e2e2e2"/><path d="M52.09,39.94c-.27,2.12-4.14,3.13-5.94,3.42-.32,0-.63.1-.95.13V42.35a.9.9,0,0,0-.89-.9H43.19a.91.91,0,0,0-.9.9v1.13A15.54,15.54,0,0,1,39,42.79c-1.31-.45-3.39-1.29-3.59-2.85A2.2,2.2,0,0,0,36,41.53a7.27,7.27,0,0,0,2.77,1.82,13.21,13.21,0,0,0,3.5.87.9.9,0,0,0,.89.8h1.12a.9.9,0,0,0,.89-.8,12.85,12.85,0,0,0,3.5-.88c1.32-.52,3.5-1.75,3.39-3.4" transform="translate(0 0)" fill="#fff"/><path d="M20.66,21.06l-1.13,1-1.13-1,.78-6.94a.4.4,0,0,1,.7,0Z" transform="translate(0 0)" fill="#e2e2e2"/></g></svg>