<svg xmlns="http://www.w3.org/2000/svg" xmlns:xlink="http://www.w3.org/1999/xlink" width="1216.54" height="926.9" viewBox="0 0 1216.54 926.9"><defs><clipPath id="a" transform="translate(191.2)"><path d="M530,325.18c-3.74-7.44-7.61-14.45-10.75-20.15-7-13.61-12.09-19.44-14.94-33.53C465,258.22,429.78,232.61,396,208.11,411.3,268.49,467.4,319,530,325.18" fill="none"/></clipPath><linearGradient id="b" y1="682.09" x2="1" y2="682.09" gradientTransform="matrix(0, 367.67, 367.67, 0, -250324.02, 157.4)" gradientUnits="userSpaceOnUse"><stop offset="0" stop-color="#ffc330"/><stop offset="0.36" stop-color="#e99135"/><stop offset="0.57" stop-color="#da7039"/><stop offset="0.83" stop-color="#c54c14"/><stop offset="1" stop-color="#b93900"/></linearGradient><clipPath id="c" transform="translate(191.2)"><path d="M566,276.22a274.51,274.51,0,0,1,30.82,35.33c33.54-18.62,56.12-52.17,63.57-89-29.26,21.05-58.56,46.12-94.39,53.68" fill="none"/></clipPath><linearGradient id="d" y1="682.06" x2="1" y2="682.06" gradientTransform="matrix(0, 367.67, 367.67, 0, -250163.53, 68.89)" xlink:href="#b"/><clipPath id="e" transform="translate(191.2)"><path d="M680.16,316.74c-20.73,6.47-43.44,10.35-65.23,14,22.62,16.21,51.66,22.14,79.07,20.14,2.69-18,4.34-28.4,7.19-41.25q-10.22,3.87-21,7.15" fill="none"/></clipPath><linearGradient id="f" y1="682.07" x2="1" y2="682.07" gradientTransform="matrix(0, 250.69, 250.69, 0, -170330.34, 241.53)" xlink:href="#b"/><clipPath id="g" transform="translate(191.2)"><path d="M738.32,292.38c9,9.7,12.55,25.23,16.1,39.87a136.4,136.4,0,0,0,46.44-43.44l-17.62-28.19a247.59,247.59,0,0,1-44.92,31.76" fill="none"/></clipPath><linearGradient id="h" y1="682.09" x2="1" y2="682.09" gradientTransform="matrix(0, 210.11, 210.11, 0, -142543.16, 193.27)" xlink:href="#b"/><clipPath id="i" transform="translate(191.2)"><path d="M808.51,235.85l9.08,14.55a108.29,108.29,0,0,0,2.78-19.31c0-2.86.1-5.69-.08-8.56q-5.74,6.78-11.78,13.32" fill="none"/></clipPath><linearGradient id="j" y1="682.06" x2="1" y2="682.06" gradientTransform="matrix(0, 103.36, 103.36, 0, -69680.46, 188.51)" xlink:href="#b"/><clipPath id="k" transform="translate(191.2)"><path d="M159.58,208.53c-8.59,13.37,2,32,23.36,41.48,21,9.28,44.44,6,52.53-7.06S233.59,211.8,213,202.24a61.39,61.39,0,0,0-25.56-5.81c-12.18,0-22.8,4.17-27.89,12.1" fill="none"/></clipPath><linearGradient id="l" y1="682.09" x2="1" y2="682.09" gradientTransform="matrix(0, 345.99, 345.99, 0, -235796.16, 141.38)" xlink:href="#b"/><clipPath id="m" transform="translate(191.2)"><path d="M490.29,205.38c-1,17,9.51,31.92,23.39,33.24,13.72,1.31,25.51-11.16,26.5-27.82s-9.17-31.46-22.85-33.13a19.38,19.38,0,0,0-2.52-.16c-12.76,0-23.55,11.9-24.52,27.87" fill="none"/></clipPath><linearGradient id="n" y1="682.09" x2="1" y2="682.09" gradientTransform="matrix(0, 367.67, 367.67, 0, -250271.56, 115.44)" xlink:href="#b"/><clipPath id="o" transform="translate(191.2)"><path d="M711.56,246.6c-5.41,14.2-1.06,29.58,9.63,34.24s23.34-3.07,28.55-17.06,1-29-9.37-33.84a16,16,0,0,0-6.78-1.5c-8.77,0-17.77,7-22,18.16" fill="none"/></clipPath><linearGradient id="p" y1="682.09" x2="1" y2="682.09" gradientTransform="matrix(0, 250.69, 250.69, 0, -170263.36, 184.73)" xlink:href="#b"/><clipPath id="q" transform="translate(191.2)"><path d="M317.42,443.58l-.54-.66.54.66m-.54-.66c-.93-1.09-1.86-2.18-2.81-3.26.94,1.09,1.88,2.17,2.81,3.26" fill="none"/></clipPath><linearGradient id="r" y1="682.09" x2="1" y2="682.09" gradientTransform="matrix(0, 802.32, 802.32, 0, -546937.32, 96.72)" gradientUnits="userSpaceOnUse"><stop offset="0" stop-color="#daf1ef"/><stop offset="0.1" stop-color="#daf1ef"/><stop offset="0.58" stop-color="#00b4f2"/><stop offset="0.64" stop-color="#0dacf2"/><stop offset="0.76" stop-color="#3196f2"/><stop offset="0.91" stop-color="#6973f3"/><stop offset="0.99" stop-color="#8760f3"/><stop offset="1" stop-color="#8760f3"/></linearGradient><clipPath id="s" transform="translate(191.2)"><path d="M878.39,419.88A127,127,0,0,0,868.52,406a164.41,164.41,0,0,1,9.87,13.85" fill="none"/></clipPath><linearGradient id="t" y1="682.09" y2="682.09" gradientTransform="matrix(0, 802.32, 802.32, 0, -546379.61, -422.43)" xlink:href="#r"/><clipPath id="u" transform="translate(191.2)"><path d="M890,441.87a107.1,107.1,0,0,0-11.56-22,145.34,145.34,0,0,1,11.56,22" fill="none"/></clipPath><linearGradient id="v" y1="682.09" y2="682.09" gradientTransform="matrix(0, 802.32, 802.32, 0, -546368.9, -422.41)" xlink:href="#r"/><clipPath id="w" transform="translate(191.2)"><path d="M694.73,484.74q.38,3.87,1,7.72c-33.83,2.66-67.88,3.55-101.73,3.28,3,5.69,8.28,13.55,17.24,24,30.61.75,61.25.6,91.81-1,26.68,67.32,108.52,115.19,169.49,57.6,34.65-35.24,36-90.43,17.42-134.45,20.87,53.42,6.21,128.94-56.53,139.69-45,5-82.74-25.46-102.64-64.74q20.19-1.71,40.32-4.45c-8.89-7.73-15.08-16.72-22.89-25.59q-13.85,1.94-27.79,3.41a129.13,129.13,0,0,1-4.77-31.27C714,361.09,813.48,340,867.9,405.27c-24.54-30.43-55-44.3-83.52-44.3-52.47,0-98.51,46.85-89.65,123.77" fill="none"/></clipPath><linearGradient id="x" y1="682.06" y2="682.06" gradientTransform="matrix(0, 802.32, 802.32, 0, -546477.71, -271.58)" xlink:href="#r"/><clipPath id="y" transform="translate(191.2)"><path d="M127.85,369.59C-38.33,399.34-38,591.87,102.74,659.83c27.63,14.86,59.92,22.22,92,22.26h.57c82-.11,162.52-47.92,161.14-140.38a149.77,149.77,0,0,0-14.42-59.3c60.08,16.51,122.52,25.77,183.87,32.21-4.2-7-5.79-14.22-6.28-21.83-62.59-5-126.47-13-187.79-29.11a193.37,193.37,0,0,0-14.43-20.1,187.37,187.37,0,0,1,14.26,20.06C280.4,450.14,230.92,431,185.5,403.15c-5.5-3.66-11.05,5-5.65,8.55,49.76,32.6,104.66,54.86,161.7,70.58C395.07,602.65,247.37,707,127.78,631.49c-108.27-58.63-131-215.28,6.48-250.95,22.92,38.13,56.38,68.81,78,107.33-1.54-38.12-36.63-79.48-57.35-110.84,59.16-6.1,120.76,18.61,159.21,62.63-40.14-46.4-103.19-74.87-165.77-72.07-24.66-25.5,26.77-40.21,43.42-52.86-25.23,6-84.57,17.42-63.87,54.86" fill="none"/></clipPath><linearGradient id="z" y1="682.12" y2="682.12" gradientTransform="matrix(0, 802.32, 802.32, 0, -547029.81, 200.65)" xlink:href="#r"/><clipPath id="aa" transform="translate(191.2)"><path d="M754.22,470.34q2.31,2.55,4.53,5.12l-4.42-5.14Z" fill="none"/></clipPath><linearGradient id="ab" y1="682.09" y2="682.09" gradientTransform="matrix(0, 802.32, 802.32, 0, -546496.56, -284.45)" xlink:href="#r"/><clipPath id="ac" transform="translate(191.2)"><path d="M768.93,487.57l-.76-.93-.47-.56,1.23,1.49" fill="none"/></clipPath><linearGradient id="ad" y1="682.09" y2="682.09" gradientTransform="matrix(0, 802.32, 802.32, 0, -546484.75, -286.52)" xlink:href="#r"/><clipPath id="ae" transform="translate(191.2)"><path d="M829.61,468.47c-7.55.7-14.38,4.77-22,6.4,11.39,11.76,20.77,16.86,34,18.6,8-9.1.64-25-11.33-25h-.65" fill="none"/></clipPath><linearGradient id="af" y1="682.09" y2="682.09" gradientTransform="matrix(0, 802.32, 802.32, 0, -546421.81, -343.7)" xlink:href="#r"/><clipPath id="ag" transform="translate(191.2)"><path d="M490.31,543.57a251.16,251.16,0,0,1-16.79-19.48q-9.93-1.35-19.64-2.82a341.32,341.32,0,0,0,36.43,22.3" fill="none"/></clipPath><linearGradient id="ah" y1="682.09" x2="1" y2="682.09" gradientTransform="matrix(0, 367.67, 367.67, 0, -250315.05, 203.28)" xlink:href="#b"/><clipPath id="ai" transform="translate(191.2)"><path d="M521.61,276.13C632.46,466,469.86,347.51,421.13,466.29q18.42,2.94,37.64,5.28c22.22-26.71,67.84-31,94.56-30.47,24.46,1.09-9.87,9.11-17.15,37.33C518,527.64,640,571.51,647.73,576.75c-7.83-6.53-71.39-61.23-72.27-89,6.11-20,27.41-37.32,36.82-63.45,18.47-49.9-29.67-114.17-66.72-145.8-7.66-6.57-17.79-13.62-22.82-13.62-3.29,0-4.39,3-1.13,11.28" fill="none"/></clipPath><linearGradient id="aj" y1="682.12" x2="1" y2="682.12" gradientTransform="matrix(0, 367.67, 367.67, 0, -250262.13, 144.95)" xlink:href="#b"/><clipPath id="ak" transform="translate(191.2)"><path d="M670,535.3c4.24,4.77,7,7.56,7,7.56a69.55,69.55,0,0,1-4.54-7.61l-2.46,0" fill="none"/></clipPath><linearGradient id="al" y1="682.09" x2="1" y2="682.09" gradientTransform="matrix(0, 250.69, 250.69, 0, -170321, 271.67)" xlink:href="#b"/><clipPath id="am" transform="translate(191.2)"><path d="M720.36,301.54c-6.28,2.94-17.57,101.08-17.7,101.33-32.54-1.83-99.7,16.72-69.87,77.27q11.79-.24,23.56-.74c-11-59.08,45-50.18,74.48-30,19.75,12.29,33.71,35.81,50.85,51.85,24.59,21.51,58.59,28.14,85.77,2.72C810.24,532.42,761,444.59,752.09,403.66,747,390.12,740.91,301.32,722,301.32a6.81,6.81,0,0,0-1.65.22" fill="none"/></clipPath><linearGradient id="an" y1="682.21" x2="1" y2="682.21" gradientTransform="matrix(0, 250.74, 250.74, 0, -170321.26, 212.58)" xlink:href="#b"/><clipPath id="ao" transform="translate(191.2)"><path d="M756.08,46c-6.91,5-12.92,6.67-18.65,6.67-11.64,0-22.12-6.93-36.64-6.93-7,0-15,1.62-24.53,6.44l-1.42-2.27-4.08,2.45,123.7,198L809.26,274l5.14,8.23,3.64-2.71L811.5,269l-13.71-22L703.38,95.61c23.36-8.88,43.27,1.51,73.93-11.72,31.39-13.56,44.71-61,44.71-61L786.76,51.37,802.18,0c-.56.79-18.71,26.14-46.1,46" fill="none"/></clipPath><linearGradient id="ap" y1="682.09" y2="682.09" gradientTransform="matrix(151.26, 0, 0, -151.26, 861.96, 103314.33)" xlink:href="#r"/><clipPath id="aq" transform="translate(191.2)"><path d="M233.76,270.28c-21,47.72,23.74,107.44-65.83,67.92,19,28.51,66.42,51.38,86.55,11.12,10.34-14.38,8.19-61.81,23.73-61.08,55.06,2.6,108.91,70.33,102.13,70.5-11.92.29-24-.35-36.11-1-23.75-1.25-47.63-2.49-70.71,3.22-77.72,42.79,58.4,125.26,99.82,138.61-46.15-18.42-78.67-93.79-75.8-93.49,199,50,199.52-68.81,45.7-151.76C326.79,245.62,306.11,239,286.66,239c-21.74,0-41.93,8.31-52.9,31.3" fill="none"/></clipPath><linearGradient id="ar" y1="682.09" x2="1" y2="682.09" gradientTransform="matrix(0, 345.99, 345.99, 0, -235663.15, 87.64)" xlink:href="#b"/></defs><g clip-path="url(#a)"><rect x="374.36" y="179.85" width="177.29" height="173.6" transform="translate(123.04 324.46) rotate(-36.15)" fill="url(#b)"/></g><g clip-path="url(#c)"><rect x="548.83" y="203.27" width="128.72" height="127.56" transform="translate(151.72 413.13) rotate(-36.15)" fill="url(#d)"/></g><g clip-path="url(#e)"><rect x="610.46" y="288.34" width="95.19" height="85.74" transform="translate(122.31 450.78) rotate(-36.06)" fill="url(#f)"/></g><g clip-path="url(#g)"><rect x="723.23" y="249.08" width="92.72" height="94.72" transform="translate(164.15 509.76) rotate(-36.06)" fill="url(#h)"/></g><g clip-path="url(#i)"><rect x="801.45" y="221.68" width="26.07" height="29.57" transform="translate(208.05 524.7) rotate(-36.06)" fill="url(#j)"/></g><g clip-path="url(#k)"><rect x="141.57" y="174.16" width="111.37" height="107.4" transform="translate(91.24 177.92) rotate(-39.58)" fill="url(#l)"/></g><g clip-path="url(#m)"><rect x="475.84" y="168.21" width="78.74" height="81.02" transform="translate(167.26 344.1) rotate(-36.15)" fill="url(#n)"/></g><g clip-path="url(#o)"><rect x="694.05" y="219.55" width="72.98" height="74.79" transform="translate(179.91 479.21) rotate(-36.06)" fill="url(#p)"/></g><g clip-path="url(#q)"><rect x="313.25" y="439.26" width="4.98" height="4.72" transform="translate(-27.76 535.55) rotate(-64.4)" fill="url(#r)"/></g><g clip-path="url(#s)"><rect x="865.08" y="405.51" width="16.75" height="14.88" transform="translate(314.83 1022.24) rotate(-64.4)" fill="url(#t)"/></g><g clip-path="url(#u)"><rect x="871.76" y="420.91" width="24.83" height="19.93" transform="translate(304.75 1042.08) rotate(-64.4)" fill="url(#v)"/></g><g clip-path="url(#w)"><rect x="551.42" y="280.59" width="401.96" height="412.72" transform="translate(179.35 955.09) rotate(-64.4)" fill="url(#x)"/></g><g clip-path="url(#y)"><rect x="-55" y="171.7" width="597.59" height="678.36" transform="translate(-131.08 510) rotate(-64.4)" fill="url(#z)"/></g><g clip-path="url(#aa)"><rect x="753.19" y="469.74" width="6.6" height="6.31" transform="matrix(0.43, -0.9, 0.9, 0.43, 194.35, 950.79)" fill="url(#ab)"/></g><g clip-path="url(#ac)"><rect x="767.38" y="485.95" width="1.87" height="1.75" transform="translate(188.51 969.37) rotate(-64.4)" fill="url(#ad)"/></g><g clip-path="url(#ae)"><rect x="808.26" y="456.61" width="40.71" height="48.71" transform="translate(228.03 1020.42) rotate(-64.4)" fill="url(#af)"/></g><g clip-path="url(#ag)"><rect x="450.81" y="512.67" width="42.57" height="39.49" transform="translate(-31.99 380.99) rotate(-36.15)" fill="url(#ah)"/></g><g clip-path="url(#ai)"><rect x="350.95" y="228.04" width="366.96" height="385.52" transform="translate(45.86 396.27) rotate(-36.15)" fill="url(#aj)"/></g><g clip-path="url(#ak)"><rect x="668.45" y="533.92" width="10.14" height="10.27" transform="translate(2.94 499.7) rotate(-36.06)" fill="url(#al)"/></g><g clip-path="url(#am)"><rect x="560.28" y="245.62" width="349.85" height="342.51" transform="translate(86.67 512.6) rotate(-36.06)" fill="url(#an)"/></g><g clip-path="url(#ao)"><rect x="861.96" width="151.26" height="282.18" fill="url(#ap)"/></g><g clip-path="url(#aq)"><rect x="122.64" y="164" width="419.72" height="410.57" transform="translate(32.13 296.51) rotate(-39.58)" fill="url(#ar)"/></g></svg>