<svg xmlns="http://www.w3.org/2000/svg" xmlns:xlink="http://www.w3.org/1999/xlink" width="1045.06" height="1115.1" viewBox="0 0 1045.06 1115.1"><defs><clipPath id="a" transform="translate(155.74 85.41)"><path d="M257,60.61c-12.28,25.26-9.71,53.48,5.08,66.93a29.88,29.88,0,0,0,5.35,3.89c19.38,11.06,46.16-2.72,59.78-30.77,12.29-25.25,9.73-53.47-5.06-66.91a29.87,29.87,0,0,0-5.36-3.9A29.13,29.13,0,0,0,302.25,26c-16.63,0-34.76,13.1-45.21,34.58" fill="none"/></clipPath><linearGradient id="b" y1="908.3" x2="1" y2="908.3" gradientTransform="matrix(0, 862.26, 862.26, 0, -782897.64, -109.34)" gradientUnits="userSpaceOnUse"><stop offset="0" stop-color="#ffc330"/><stop offset="0.36" stop-color="#e99135"/><stop offset="0.57" stop-color="#da7039"/><stop offset="0.83" stop-color="#c54c14"/><stop offset="1" stop-color="#b93900"/></linearGradient><clipPath id="c" transform="translate(155.74 85.41)"><path d="M23.28,0A553.32,553.32,0,0,0,193,266.2a64.29,64.29,0,0,1,31.36-8,58.76,58.76,0,0,1,9.75.94c1.84-19.73,3.37-35.87,5.69-54.13C161.46,143.93,95.52,68.32,23.28,0Z" fill="none"/></clipPath><linearGradient id="d" y1="908.29" x2="1" y2="908.29" gradientTransform="matrix(0, 862.26, 862.26, 0, -783050.75, -33.93)" xlink:href="#b"/><clipPath id="e" transform="translate(155.74 85.41)"><path d="M401.52,284.3,363.65,314c2,10.89,3.76,22.44,5,33.6a174.85,174.85,0,0,0,71.09-9.36c67.15-25,82.09-102.47,28.4-149.84,17.57,50.42-3.64,103.4-66.65,95.87" fill="none"/></clipPath><linearGradient id="f" y1="908.32" x2="1" y2="908.32" gradientTransform="matrix(0, 862.26, 862.26, 0, -782766.19, -156.64)" xlink:href="#b"/><clipPath id="g" transform="translate(155.74 85.41)"><path d="M248.7,263.71c12.67,5.76,24.23,15.9,33.91,29.94,9.26-5.53,31.37-18.84,52.35-31.38-11.41-33-36.53-101.15-64.77-106.9-16.52,8.62-17.44,82.24-21.49,108.34" fill="none"/></clipPath><linearGradient id="h" y1="908.31" x2="1" y2="908.31" gradientTransform="matrix(0, 862.26, 862.26, 0, -782914.16, -94.93)" xlink:href="#b"/><clipPath id="i" transform="translate(155.74 85.41)"><path d="M231.83,417.56c29.8-8.08,53,1.26,65.78-29.64,32.79,28.58-17.34,64.18-36.84,75.36-39.79,21.78-26.68,74.6-68.89,98.94C142.72,719.85,73.69,882.51,74,882.53c190.2-275.39,209.75-406.12,210.65-406.11,3.52,141-38.79,383.21-62.39,429.64,60.28-62.17,164.83-371.22,128-581.52l-118.44,93" fill="none"/></clipPath><linearGradient id="j" y1="908.31" x2="1" y2="908.31" gradientTransform="matrix(0, 862.26, 862.26, 0, -782972.25, -28.18)" xlink:href="#b"/><clipPath id="k" transform="translate(155.74 85.41)"><path d="M616.64,104.49a27.92,27.92,0,0,0,27.92,27.92,28.22,28.22,0,0,0,4-.29l36.51,18.33-1.17.2L809.05,891.59H673a8.36,8.36,0,1,0,0,16.71H881a8.36,8.36,0,0,0,0-16.71H826L702.31,159.1l27.49,13.8a6.94,6.94,0,0,0,7.79-11.32l-65.23-59.45a27.91,27.91,0,0,0-55.72,2.36" fill="none"/></clipPath><linearGradient id="l" y1="908.3" x2="1" y2="908.3" gradientTransform="matrix(272.68, 0, 0, -272.68, 772.38, 248248.01)" gradientUnits="userSpaceOnUse"><stop offset="0" stop-color="#daf1ef"/><stop offset="0.1" stop-color="#daf1ef"/><stop offset="0.58" stop-color="#00b4f2"/><stop offset="0.64" stop-color="#0dacf2"/><stop offset="0.76" stop-color="#3196f2"/><stop offset="0.91" stop-color="#6973f3"/><stop offset="0.99" stop-color="#8760f3"/><stop offset="1" stop-color="#8760f3"/></linearGradient><clipPath id="m" transform="translate(155.74 85.41)"><path d="M277.68,314.09c-29.47-56.51-81.72-52.25-113.18,2C54.43,304.5,3.67,374.68.19,444.86c-.12,2.42-.18,4.85-.19,7.27v1C.27,538.84,70.62,619.73,189,546c15-9.32,20.34-26.13,25.71-42.66,17.16-52.78,41.56-44.91,73.12-81.78-21.78,9.6-47.55,5-69.85,17.06-14.27,7.73-24.32,15.72-36,31.84-5,6.95-11,17.5-23.25,27.41-40.42,34.27-110.23-21-101-65.81,7.09-42.94,54.27-69.25,98.16-72.53,29.36-3.25,38.93-22.23,47.38-39,6.34-12.69,14.86-26.11,27.55-26.89,17.73-1.09,31,11.33,45.34,21.32C226.78,344.6,161.09,384,114.48,412L149.65,463c90.62-71.18,221.92-174.28,314-246.56l-6.76-9.8C430,222.78,310.77,294.26,277.68,314.09" fill="none"/></clipPath><linearGradient id="n" x1="0" y1="908.28" x2="1" y2="908.28" gradientTransform="matrix(623.79, 0, 0, -623.79, -110.09, 566992.83)" xlink:href="#l"/><clipPath id="o" transform="translate(155.74 85.41)"><polygon points="487.1 183.74 495.8 196.39 556.49 179.81 524.25 132.97 487.1 183.74" fill="none"/></clipPath><linearGradient id="p" x1="0" y1="908.27" x2="1" y2="908.27" gradientTransform="matrix(80.16, 0, 0, -80.16, 469.83, 72969.83)" xlink:href="#l"/></defs><g clip-path="url(#a)"><rect x="224" y="11.13" width="136.3" height="146.26" transform="translate(148.42 222.27) rotate(-26.05)" fill="url(#b)"/></g><g clip-path="url(#c)"><rect x="-24.18" y="-34.01" width="311.38" height="334.22" transform="translate(110.65 156.68) rotate(-26.05)" fill="url(#d)"/></g><g clip-path="url(#e)"><rect x="336.37" y="161.86" width="212.77" height="213.98" transform="translate(82.66 307.15) rotate(-26.05)" fill="url(#f)"/></g><g clip-path="url(#g)"><rect x="222.71" y="143.45" width="138.22" height="162.12" transform="translate(86.8 236.37) rotate(-26.05)" fill="url(#h)"/></g><g clip-path="url(#i)"><rect x="-38.08" y="285.27" width="536.9" height="660.06" transform="translate(-91.07 249.08) rotate(-26.05)" fill="url(#j)"/></g><g clip-path="url(#k)"><rect x="772.38" y="161.99" width="272.68" height="831.72" fill="url(#l)"/></g><g clip-path="url(#m)"><rect x="-53.21" y="144.22" width="570.02" height="537.95" transform="translate(37.5 179.33) rotate(-18.34)" fill="url(#n)"/></g><g clip-path="url(#o)"><rect x="478.88" y="123.66" width="85.82" height="82.03" transform="translate(130.43 257.95) rotate(-18.34)" fill="url(#p)"/></g></svg>