<svg xmlns="http://www.w3.org/2000/svg" xmlns:xlink="http://www.w3.org/1999/xlink" width="1091.25" height="1070.06" viewBox="0 0 1091.25 1070.06"><defs><clipPath id="a" transform="translate(0 65.4)"><polygon points="644.21 129.62 391.19 51.17 138.17 129.62 133.73 115.29 391.19 35.47 648.65 115.29 644.21 129.62" fill="none"/></clipPath><linearGradient id="b" y1="919.73" x2="1" y2="919.73" gradientTransform="matrix(-142.84, 0, 0, 142.84, 437.32, -131287.85)" gradientUnits="userSpaceOnUse"><stop offset="0" stop-color="#daf1ef"/><stop offset="0.1" stop-color="#daf1ef"/><stop offset="0.58" stop-color="#00b4f2"/><stop offset="0.64" stop-color="#0dacf2"/><stop offset="0.76" stop-color="#3196f2"/><stop offset="0.91" stop-color="#6973f3"/><stop offset="0.99" stop-color="#8760f3"/><stop offset="1" stop-color="#8760f3"/></linearGradient><clipPath id="c" transform="translate(0 65.4)"><path d="M349.81,41.38A41.39,41.39,0,1,0,391.19,0a41.38,41.38,0,0,0-41.38,41.38" fill="none"/></clipPath><linearGradient id="d" y1="919.78" y2="919.78" gradientTransform="matrix(0, 82.57, 82.57, 0, -75554.19, -26.11)" xlink:href="#b"/><clipPath id="e" transform="translate(0 65.4)"><path d="M722.66,577.88h.07q0-.09,0-.09s0,0,0,.09M767.38,325l.5-.24-.5-.51Zm3-52.51c-5.92,20.18-.55,39.34,12,46.56V250.19a59.09,59.09,0,0,0-12,22.25M0,114.69V577.88H653.49q.82-7.56,1.8-15H15V129.69H767.38V247.58a65.62,65.62,0,0,1,9.2-10.81,57.07,57.07,0,0,1,5.8-4.77V114.69Z" fill="none"/></clipPath><linearGradient id="f" y1="919.78" y2="919.78" gradientTransform="matrix(782.38, 0, 0, -782.38, 0, 720025.28)" xlink:href="#b"/><clipPath id="g" transform="translate(0 65.4)"><path d="M75.84,363.71a120.11,120.11,0,0,0,240.21,0,118.76,118.76,0,0,0-9.48-46.84L179.21,380.44l63.57-127.36A118.93,118.93,0,0,0,196,243.6,120.24,120.24,0,0,0,75.84,363.71" fill="none"/></clipPath><linearGradient id="h" y1="919.78" x2="1" y2="919.78" gradientTransform="matrix(-240.26, 0, 0, 240.26, 316.08, -220621.64)" gradientUnits="userSpaceOnUse"><stop offset="0" stop-color="#ffc330"/><stop offset="0.36" stop-color="#e99135"/><stop offset="0.57" stop-color="#da7039"/><stop offset="0.83" stop-color="#c54c14"/><stop offset="1" stop-color="#b93900"/></linearGradient><clipPath id="i" transform="translate(0 65.4)"><path d="M245,314.62,328,273.23a121.83,121.83,0,0,0-41.54-41.53Z" fill="none"/></clipPath><linearGradient id="j" y1="919.73" y2="919.73" gradientTransform="matrix(-89.52, 0, 0, 89.52, 327.1, -82062.01)" xlink:href="#h"/><clipPath id="k" transform="translate(0 65.4)"><polygon points="331.35 225.42 329.75 227.35 452.62 335.19 441.58 316.63 438.24 311.02 458.09 321.05 332.94 223.5 331.35 225.42" fill="none"/></clipPath><linearGradient id="l" y1="919.77" y2="919.77" gradientTransform="matrix(0, 163.36, 163.36, 0, -149862.26, 196.75)" xlink:href="#h"/><clipPath id="m" transform="translate(0 65.4)"><path d="M770.37,272.44c-6.84,23.29,1.37,45.24,18.33,49a23.26,23.26,0,0,0,5.11.56c15.56,0,31.82-14.91,38-35.89,6.83-23.3-1.38-45.24-18.33-49a23.44,23.44,0,0,0-5.13-.56c-15.56,0-31.81,14.91-38,35.89" fill="none"/></clipPath><linearGradient id="n" y1="919.78" y2="919.78" gradientTransform="matrix(0, 511.91, 511.91, 0, -470043.06, 149.87)" xlink:href="#h"/><clipPath id="o" transform="translate(0 65.4)"><path d="M633,454.71a243.18,243.18,0,0,0,37.89,2.8q4.16,0,8.31-.12a343.23,343.23,0,0,1,23.61-53.56c1.49-2.67,3.73-6.64,6.57-11.39-24.82,2.65-45.49,4.33-64.49,4.33-52.34,0-92.11-12.73-171.36-52.78C507.6,401.2,566.21,445.2,633,454.71" fill="none"/></clipPath><linearGradient id="p" y1="919.74" y2="919.74" gradientTransform="matrix(0, 511.91, 511.91, 0, -470234.84, 285.75)" xlink:href="#h"/><clipPath id="q" transform="translate(0 65.4)"><path d="M794.34,435.82q-.5,4.69-1,9.42c1.76-.06,3.53-.1,5.31-.1,22.41,0,44.7,5.16,56.74,24.82,19.82,37.4-2.47,89.77-41.59,106.37l1.81,0c80,0,118.12-116,53.58-164.81-20-16.1-44.78-23.28-70-25.35-1.12,13.43-2.77,29.74-4.89,49.62" fill="none"/></clipPath><linearGradient id="r" y1="919.82" y2="919.82" gradientTransform="matrix(0, 511.91, 511.91, 0, -470003.63, 149.06)" xlink:href="#h"/><clipPath id="s" transform="translate(0 65.4)"><path d="M736.09,375.85c-1.7,2.44-3.37,4.91-5,7.37s-3.19,4.91-4.72,7.33c-4.47,7.1-8.47,13.93-11.73,19.82a323.36,323.36,0,0,0-20.83,46.32c-.84,2.3-1.65,4.6-2.45,6.92s-1.54,4.58-2.28,6.88c-51.43,159.66-18.72,389.21,16.11,444.77-11-39-6.53-230.17,17.45-337.33,0-.09,0-.14.06-.14.67,0-4.28,102.73,99.25,342h0c.19,0-39-188.22-47.26-330.81-.2-3.52-.39-7-.55-10.46-1-20.93-1.28-40.71-.6-58.57s2.57-38.88,4.71-60c.23-2.29.47-4.58.7-6.87s.48-4.56.72-6.85c2.26-21.47,4.6-42.62,6.08-60.63q.29-3.45.52-6.73c.18-2.32.32-4.57.44-6.74,1.34-22.35.54-37.26-4.9-37.26-13.3,0-30.83,19.68-45.73,41" fill="none"/></clipPath><linearGradient id="t" y1="919.75" y2="919.75" gradientTransform="matrix(0, 511.91, 511.91, 0, -470100.98, 247)" xlink:href="#h"/></defs><g clip-path="url(#a)"><rect x="293.59" y="-179.13" width="195.2" height="523.35" transform="translate(232.1 514.74) rotate(-78.47)" fill="url(#b)"/></g><g clip-path="url(#c)"><rect x="333.85" y="-15.96" width="114.69" height="114.69" transform="translate(42.04 287.99) rotate(-33.47)" fill="url(#d)"/></g><g clip-path="url(#e)"><rect y="180.1" width="782.38" height="463.19" fill="url(#f)"/></g><g clip-path="url(#g)"><rect x="54.25" y="222.01" width="283.39" height="283.39" transform="translate(-199.6 548.38) rotate(-78.47)" fill="url(#h)"/></g><g clip-path="url(#i)"><rect x="237.58" y="224.25" width="97.83" height="97.83" transform="translate(-38.43 564.66) rotate(-78.47)" fill="url(#j)"/></g><g clip-path="url(#k)"><rect x="310.12" y="194.33" width="167.61" height="170.04" transform="translate(-71.26 474.43) rotate(-50.92)" fill="url(#l)"/></g><g clip-path="url(#m)"><rect x="746.19" y="222.94" width="109.76" height="112.7" transform="translate(-21.2 553.46) rotate(-33.47)" fill="url(#n)"/></g><g clip-path="url(#o)"><rect x="461.81" y="288.37" width="259.35" height="224.76" transform="translate(-122.93 458.02) rotate(-33.47)" fill="url(#p)"/></g><g clip-path="url(#q)"><rect x="752.55" y="363.26" width="221.98" height="236.05" transform="translate(-122.23 621.4) rotate(-33.47)" fill="url(#r)"/></g><g clip-path="url(#s)"><rect x="491.66" y="332.44" width="476.49" height="589.72" transform="translate(-224.91 571.91) rotate(-33.47)" fill="url(#t)"/></g></svg>