<svg xmlns="http://www.w3.org/2000/svg" xmlns:xlink="http://www.w3.org/1999/xlink" width="64.78" height="57.7" viewBox="0 0 64.78 57.7"><defs><clipPath id="a" transform="translate(0 0)"><rect width="64.78" height="57.7" fill="none"/></clipPath></defs><g clip-path="url(#a)"><path d="M44.79,50.47a44.35,44.35,0,0,1-5.22-8.32h2.35c.83,0,1.62-1.61,1-2.44a42.25,42.25,0,0,1-5.16-9.12h1.46c.81-.27,1.61-1.56,1-2.43A35.1,35.1,0,0,1,34,9.77a34.66,34.66,0,0,1-6.25,18.39c-.64.89.19,2.16,1,2.43h1.47A41.77,41.77,0,0,1,25,39.71c-.62.83.16,2.44,1,2.44h2.33a44.72,44.72,0,0,1-5.2,8.32c-.64.8.16,2.43,1,2.43H43.79c.84,0,1.64-1.63,1-2.43" transform="translate(0 0)" fill="#e2e2e2"/><path d="M50.54,15.34c-.43.74-.84,1.53-1.2,2.31C44.11,16.12,37.7,14.45,35,9.21c4.86,3.35,10.9,3.35,16.5,4.64-.3.44-.62.94-.93,1.49" transform="translate(0 0)" fill="#c6c6c6"/><path d="M64.7,26.11a11.44,11.44,0,0,1-4.41,7.35c2.49-5.78,2.65-10.83-3.89-13.54,0-1.72.07-3.11,0-4.67,4.59,1.58,9,5.6,8.27,10.86" transform="translate(0 0)" fill="#c6c6c6"/><path d="M58.25,8.32a3.54,3.54,0,0,1-2.69,3,1.79,1.79,0,0,1-.4,0c-1.33-.18-2.11-1.81-1.74-3.66.33-1.66,1.48-2.92,2.68-3a1.77,1.77,0,0,1,.4,0c1.34.17,2.12,1.81,1.75,3.66" transform="translate(0 0)" fill="#c6c6c6"/><path d="M51.79,31.56c-1.12,8.43-.18,23.21.93,26.14C48.77,52.63,44,27.24,51.47,15.88c.72-1.24,2-3.33,3.25-3.47.53-.19.65,2.32.64,3.36,0,2,0,4.24-.07,6.31-1.07,8.9,6.12,34.47,6.47,35.18-9.6-17.75-9.91-25.74-10-25.7" transform="translate(0 0)" fill="#c6c6c6"/><polygon points="29.42 3.21 33.06 3.51 34.06 0 34.89 3.55 38.54 3.42 35.42 5.31 36.67 8.74 33.91 6.35 31.04 8.6 32.45 5.24 29.42 3.21" fill="#e2e2e2"/><path d="M10.67,28.13c0,.18,0,.36,0,.54C5.39,31,.62,27.37,0,22c2.83,4,6.19,6.19,10.64,2.94,0,1,0,2.06,0,3.24" transform="translate(0 0)" fill="#c6c6c6"/><path d="M26.64,14.77c-4.57,2.09-7.11,6.62-10.62,10A12.9,12.9,0,0,0,14.08,22c3.5-3.18,7.4-7.48,12.56-7.2" transform="translate(0 0)" fill="#c6c6c6"/><path d="M8.92,17.84A2.77,2.77,0,0,0,11,20.22a1.61,1.61,0,0,0,.31,0c1.05-.14,1.67-1.43,1.38-2.88A2.77,2.77,0,0,0,10.6,15a1.61,1.61,0,0,0-.31,0c-1,.14-1.67,1.43-1.37,2.88" transform="translate(0 0)" fill="#c6c6c6"/><path d="M13.8,57.7c.87-2.31,1.62-14,.72-20.58-.85,5.65-3.22,11.5-7.84,20.24.33-.79,5.54-20.49,5.09-27.69-.11-1.8-.09-3.68,0-5.38,0-1,.15-2.35.49-2.24,1.17.28,1.86,1.63,2.56,2.74,5.89,8.94,2.12,28.92-1,32.91" transform="translate(0 0)" fill="#c6c6c6"/><path d="M10.46,16.76a3.64,3.64,0,0,1-1.59.88l-2.24-5,4.81,2.57a3.72,3.72,0,0,1-1,1.52" transform="translate(0 0)" fill="#e2e2e2"/><path d="M7.24,12.85a.45.45,0,1,1-.45-.44.45.45,0,0,1,.45.44" transform="translate(0 0)" fill="#e2e2e2"/><path d="M60.28,1.82a3.06,3.06,0,0,0-4.19,1C55.43,4,55.39,4,54.91,4.79l3.93,2.37L59.9,5.4a.47.47,0,0,1,.65-.16.49.49,0,0,1,.17.66l-.6,1,.49.29L61.32,6a3,3,0,0,0-1-4.19" transform="translate(0 0)" fill="#e2e2e2"/><path d="M57.94,8,54.58,6a.62.62,0,1,1,.64-1.07l3.37,2A.62.62,0,1,1,57.94,8" transform="translate(0 0)" fill="#e2e2e2"/><path d="M60.6,7.59a.48.48,0,0,0-.17-.66.48.48,0,0,0-.66.16.48.48,0,0,0,.83.5" transform="translate(0 0)" fill="#e2e2e2"/><path d="M28.66,17.71a2,2,0,1,1-2-2,2,2,0,0,1,2,2" transform="translate(0 0)" fill="#e2e2e2"/></g></svg>