<svg xmlns="http://www.w3.org/2000/svg" xmlns:xlink="http://www.w3.org/1999/xlink" width="753.08" height="813.54" viewBox="0 0 753.08 813.54"><defs><clipPath id="a" transform="translate(140.72 87.34)"><path d="M60.71,0C8,30.52-17,108.7,12.72,164.17c25.38,49.59,80.58,75.29,132.93,84.34a576.62,576.62,0,0,1,12.78-58.85C110,183.82,53.22,162,42,110.41,32.35,73.6,41.44,32.91,60.71,0Z" fill="none"/></clipPath><linearGradient id="b" y1="647.63" x2="1" y2="647.63" gradientTransform="matrix(0, 558.47, 558.47, 0, -361606.81, 1.64)" gradientUnits="userSpaceOnUse"><stop offset="0" stop-color="#ffc330"/><stop offset="0.36" stop-color="#e99135"/><stop offset="0.57" stop-color="#da7039"/><stop offset="0.83" stop-color="#c54c14"/><stop offset="1" stop-color="#b93900"/></linearGradient><clipPath id="c" transform="translate(140.72 87.34)"><path d="M251.28,254.06c37.38,2.18,76,4.45,110.82,18.65,36.73,17,65.95,47.62,83.46,84.65,1.7-50.86-29.24-100-71.77-127-40.85-24.71-88.88-33.11-135.65-36.81,5.05,19.95,8.89,38.44,13.14,60.56" fill="none"/></clipPath><linearGradient id="d" y1="647.62" y2="647.62" gradientTransform="matrix(0, 558.47, 558.47, 0, -361332.99, -141.99)" xlink:href="#b"/><clipPath id="e" transform="translate(140.72 87.34)"><path d="M201,39.62c-16.21,1.89-28.28,21.23-27,43.22s15.52,38.27,31.73,36.38S234,98,232.69,76c-1.25-20.82-14.06-36.53-29.18-36.53a21.91,21.91,0,0,0-2.55.14" fill="none"/></clipPath><linearGradient id="f" y1="647.63" y2="647.63" gradientTransform="matrix(0, 558.47, 558.47, 0, -361474.62, -99.04)" xlink:href="#b"/><clipPath id="g" transform="translate(140.72 87.34)"><rect width="537.91" height="647.63" fill="none"/></clipPath><clipPath id="h" transform="translate(140.72 87.34)"><path d="M195.37,143.84l-8,70.62,11.53,10,11.53-10-8-70.62a3.92,3.92,0,0,0-7,0" fill="none"/></clipPath><linearGradient id="i" y1="647.62" y2="647.62" gradientTransform="matrix(0, 71.32, 71.32, 0, -45989.89, 131.09)" xlink:href="#b"/><clipPath id="j" transform="translate(140.72 87.34)"><path d="M169.93,190.92a551.7,551.7,0,0,0-13,59.31c-14.76,87.34-22.36,222.89-6.85,397.4C165,482.23,184.85,393,194.66,333.16c0-.1.05-.15.1-.15.83,0,6.67,19.25,21.59,68.19s38.92,127.61,76.08,246.42c0-1.47-24.06-244-52.86-394-4.38-22.81-8.87-43.47-13.39-60.82-5.2-19.87-10.44-35.41-15.63-44.83L218,213.61a7.59,7.59,0,0,1-2.58,6.6l-11.53,10a7.58,7.58,0,0,1-10,0l-11.53-10a7.59,7.59,0,0,1-2.62-6.26c0-.18,0-.18,6.53-57.65l.95-8.38c-5.72,8.81-11.68,23.25-17.32,43" fill="none"/></clipPath><linearGradient id="k" y1="647.67" y2="647.67" gradientTransform="matrix(0, 558.47, 558.47, 0, -361489.6, -23.23)" xlink:href="#b"/><clipPath id="l" transform="translate(140.72 87.34)"><path d="M412.5,361.51a3.47,3.47,0,0,1,3.43-3.42h59.26a3.47,3.47,0,0,1,3.42,3.42v16.12H412.5Zm3.43-14.83a14.85,14.85,0,0,0-14.83,14.83v16.12H370a16.83,16.83,0,0,0-16.83,16.83v92.62A16.82,16.82,0,0,0,370,503.91H521.08a16.82,16.82,0,0,0,16.83-16.83V394.46a16.83,16.83,0,0,0-16.83-16.83H490V361.51a14.86,14.86,0,0,0-14.83-14.83Z" fill="none"/></clipPath><linearGradient id="m" y1="647.68" x2="1" y2="647.68" gradientTransform="matrix(0, 244.75, 244.75, 0, -158074.5, 301.94)" gradientUnits="userSpaceOnUse"><stop offset="0" stop-color="#daf1ef"/><stop offset="0.54" stop-color="#00b4f2"/><stop offset="0.6" stop-color="#0dacf2"/><stop offset="0.73" stop-color="#3196f2"/><stop offset="0.91" stop-color="#6973f3"/><stop offset="0.99" stop-color="#8760f3"/><stop offset="1" stop-color="#8760f3"/></linearGradient><linearGradient id="p" y1="647.62" y2="647.62" gradientTransform="matrix(0, 62.16, 62.16, 0, -40054.12, 150.36)" xlink:href="#m"/></defs><g clip-path="url(#a)"><rect x="-77.8" y="-26.69" width="297.02" height="301.88" transform="translate(75.51 167.28) rotate(-42.3)" fill="url(#b)"/></g><g clip-path="url(#c)"><rect x="210.22" y="144.46" width="264.95" height="261.94" transform="translate(44.58 389.7) rotate(-42.3)" fill="url(#d)"/></g><g clip-path="url(#e)"><rect x="153.19" y="29.46" width="100.3" height="101.65" transform="translate(139.63 245.09) rotate(-42.3)" fill="url(#f)"/></g><g clip-path="url(#g)"><path d="M174,82.83c1.31,22,15.52,38.27,31.73,36.39S234,98,232.69,76,217.16,37.73,201,39.62,172.67,60.85,174,82.83Z" transform="translate(140.72 87.34)" fill="none" stroke="#fff" stroke-miterlimit="10"/></g><g clip-path="url(#h)"><rect x="159.49" y="147.99" width="78.81" height="70.1" transform="translate(72.14 309.38) rotate(-50.92)" fill="url(#i)"/></g><g clip-path="url(#j)"><rect x="-13.03" y="159.86" width="453.07" height="475.83" transform="translate(-71.4 334.6) rotate(-42.3)" fill="url(#k)"/></g><g clip-path="url(#l)"><rect x="327.86" y="304.43" width="235.39" height="241.73" transform="translate(-18.95 627.08) rotate(-54.38)" fill="url(#m)"/></g><g clip-path="url(#g)"><path d="M530.48,406.79c-2.78,21.59-42.19,31.85-60.5,34.82q-4.78.81-9.6,1.29V431.31a9.16,9.16,0,0,0-9.13-9.13H439.86a9.15,9.15,0,0,0-9.12,9.13v11.55a160,160,0,0,1-33.52-7c-13.37-4.57-34.56-13.2-36.59-29-.54,6,2.41,11.79,6.28,16.2,7.51,8.59,17.89,14.17,28.25,18.46a132.86,132.86,0,0,0,35.64,8.92,9.16,9.16,0,0,0,9.06,8.09h11.39a9.15,9.15,0,0,0,9.06-8.1A132.77,132.77,0,0,0,496,441.44c13.43-5.38,35.68-17.85,34.53-34.65" transform="translate(140.72 87.34)" fill="#fff"/></g><g clip-path="url(#h)"><rect x="158.53" y="149.55" width="80.73" height="66.97" transform="translate(74.98 325.43) rotate(-54.38)" fill="url(#p)"/></g></svg>