<svg xmlns="http://www.w3.org/2000/svg" xmlns:xlink="http://www.w3.org/1999/xlink" width="70.79" height="53.54" viewBox="0 0 70.79 53.54"><defs><clipPath id="a" transform="translate(0 0)"><rect width="70.79" height="53.54" fill="none"/></clipPath></defs><g clip-path="url(#a)"><path d="M24.65,34.51l.27.31-.27-.31" transform="translate(0 0)" fill="#e2e2e2"/><path d="M69,33a8.89,8.89,0,0,0-.78-1.09A13.21,13.21,0,0,1,69,33" transform="translate(0 0)" fill="#e2e2e2"/><path d="M69.86,34.68A8.79,8.79,0,0,0,69,33a11.75,11.75,0,0,1,.91,1.72" transform="translate(0 0)" fill="#e2e2e2"/><path d="M69.86,34.68c1.63,4.2.48,10.12-4.44,11-3.53.39-6.5-2-8.06-5.08,1.06-.09,2.11-.21,3.17-.35a19.12,19.12,0,0,1-1.8-2c-.72.1-1.45.19-2.18.27A10.06,10.06,0,0,1,56.17,36c-.13-7.68,7.68-9.33,12-4.21-5.47-6.78-14.67-3.08-13.6,6.24,0,.2,0,.4.08.61-2.66.2-5.33.27-8,.25A10.59,10.59,0,0,0,48,40.8c2.4.06,4.81,0,7.2-.08,2.1,5.28,8.52,9,13.31,4.52,2.72-2.77,2.82-7.1,1.37-10.56" transform="translate(0 0)" fill="#e2e2e2"/><path d="M40.79,38.68A84.91,84.91,0,0,1,26.05,36.4a14.64,14.64,0,0,0-1.13-1.58A15.1,15.1,0,0,1,26,36.39a42.77,42.77,0,0,1-11.47-4.74.4.4,0,0,0-.44.67,44.88,44.88,0,0,0,12.69,5.54C31,47.3,19.42,55.5,10,49.57c-8.5-4.6-10.28-16.9.51-19.7,1.8,3,4.42,5.4,6.12,8.42-.12-3-2.88-6.23-4.5-8.69a14.92,14.92,0,0,1,12.49,4.91,16.61,16.61,0,0,0-13-5.66c-1.94-2,2.1-3.15,3.41-4.15-2,.48-6.64,1.37-5,4.31-13,2.34-13,17.45-2,22.78,7.72,4.15,20.07.85,19.92-9.27a11.74,11.74,0,0,0-1.13-4.65,90.07,90.07,0,0,0,14.43,2.52,3.66,3.66,0,0,1-.49-1.71" transform="translate(0 0)" fill="#e2e2e2"/><path d="M59.56,37.32l-.35-.4h0l.36.4" transform="translate(0 0)" fill="#e2e2e2"/><path d="M60.36,38.27l-.06-.07,0-.05.1.12" transform="translate(0 0)" fill="#e2e2e2"/><path d="M65.12,36.77c-.59.06-1.13.38-1.73.5a4.14,4.14,0,0,0,2.67,1.46,1.22,1.22,0,0,0-.94-2" transform="translate(0 0)" fill="#e2e2e2"/><path d="M63.7,21.11l.51.83-.28.21-.41-.65-1.16-1.86L52.65,4.11l.32-.2.11.18A4.18,4.18,0,0,1,55,3.59c1.14,0,2,.54,2.87.54a2.46,2.46,0,0,0,1.47-.52A17.92,17.92,0,0,0,63,0L61.76,4,64.52,1.8s-1,3.72-3.51,4.78-4,.23-5.8.92l7.41,11.89Z" transform="translate(0 0)" fill="#e2e2e2"/><path d="M40.76,23.94c.25.45.55,1,.84,1.59a12.6,12.6,0,0,1-10.52-9.19c2.66,1.92,5.42,3.93,8.51,5a8.64,8.64,0,0,0,1.17,2.63" transform="translate(0 0)" fill="#c6c6c6"/><path d="M51.84,17.47a10.32,10.32,0,0,1-5,7,22.13,22.13,0,0,0-2.42-2.77c2.81-.59,5.11-2.56,7.41-4.21" transform="translate(0 0)" fill="#c6c6c6"/><path d="M53.39,24.86c.56-.17,1.11-.36,1.65-.56-.22,1-.35,1.83-.57,3.24A9.5,9.5,0,0,1,48.27,26a39.46,39.46,0,0,0,5.12-1.1" transform="translate(0 0)" fill="#c6c6c6"/><path d="M61.48,20.46l1.38,2.21a10.8,10.8,0,0,1-3.64,3.41A7.07,7.07,0,0,0,58,23a19.73,19.73,0,0,0,3.53-2.49" transform="translate(0 0)" fill="#c6c6c6"/><path d="M64.39,18.14a8.69,8.69,0,0,1-.21,1.52l-.72-1.15c.32-.34.63-.69.93-1,0,.22,0,.44,0,.67" transform="translate(0 0)" fill="#c6c6c6"/><path d="M16.72,15.87c1.61.76,2.39,2.18,1.76,3.2s-2.47,1.28-4.12.55-2.51-2.2-1.83-3.25,2.55-1.26,4.19-.5" transform="translate(0 0)" fill="#c6c6c6"/><path d="M42.4,16.55a2.1,2.1,0,0,1-2.08,2.18,2.34,2.34,0,0,1-1.84-2.61A2.09,2.09,0,0,1,40.61,14a2.35,2.35,0,0,1,1.79,2.6" transform="translate(0 0)" fill="#c6c6c6"/><path d="M58.85,20.71c-.41,1.09-1.41,1.7-2.24,1.33a2.08,2.08,0,0,1-.76-2.68c.43-1.11,1.44-1.69,2.26-1.31a2.09,2.09,0,0,1,.74,2.66" transform="translate(0 0)" fill="#c6c6c6"/><path d="M37.17,41.14c.36.46.79,1,1.32,1.53a27.36,27.36,0,0,1-2.86-1.75l1.54.22" transform="translate(0 0)" fill="#c6c6c6"/><path d="M50.84,45.27c-.61-.41-10.18-3.85-8.75-7.72.57-2.21,3.26-2.84,1.34-2.93-2.1,0-5.68.3-7.42,2.4-1-.13-2-.27-2.95-.42,3.82-9.32,16.58,0,7.88-14.93-.64-1.63.89-.67,1.88.19,2.91,2.48,6.69,7.53,5.24,11.44-.74,2.05-2.41,3.42-2.89,5,.07,2.19,5.06,6.48,5.67,7" transform="translate(0 0)" fill="#c6c6c6"/><path d="M53.14,42.61,52.59,42h.2a5.59,5.59,0,0,0,.35.6" transform="translate(0 0)" fill="#c6c6c6"/><path d="M68.09,39.56c-2.13,2-4.8,1.47-6.73-.22-1.35-1.26-2.44-3.1-4-4.07-2.32-1.58-6.71-2.28-5.85,2.36-.62,0-1.23,0-1.85.06-2.34-4.75,2.93-6.21,5.48-6.07,0,0,.9-7.72,1.39-7.95,1.59-.42,2.09,6.92,2.49,8,.71,3.21,4.57,10.1,9.06,7.87" transform="translate(0 0)" fill="#c6c6c6"/><path d="M13.18,26.55c7,3.1,3.52-1.59,5.17-5.33C20,17.8,24.21,18.52,26.94,20,39,26.48,39,35.8,23.35,31.88c-.22,0,2.33,5.89,5.95,7.34-3.25-1-13.93-7.53-7.83-10.89,2.73-.67,5.61-.1,8.38-.17.54,0-3.69-5.33-8-5.53-1.22-.06-1.05,3.66-1.87,4.79-1.58,3.16-5.3,1.36-6.79-.87" transform="translate(0 0)" fill="#c6c6c6"/></g></svg>