<svg xmlns="http://www.w3.org/2000/svg" xmlns:xlink="http://www.w3.org/1999/xlink" width="53.29" height="54.43" viewBox="0 0 53.29 54.43"><defs><clipPath id="a" transform="translate(0 0)"><rect width="53.29" height="54.43" fill="none"/></clipPath></defs><g clip-path="url(#a)"><path d="M15.4,3.63c-.73,1.52-.58,3.21.31,4a1.57,1.57,0,0,0,.32.24c1.16.66,2.76-.17,3.58-1.85a3.51,3.51,0,0,0-.3-4A1.5,1.5,0,0,0,19,1.79c-1.16-.66-2.76.16-3.58,1.84" transform="translate(0 0)" fill="#c6c6c6"/><path d="M13.44,15.47a3.9,3.9,0,0,0-1.88.48A33.12,33.12,0,0,1,1.4,0c4.32,4.09,8.27,8.62,13,12.28-.14,1.1-.23,2.07-.35,3.25a2.78,2.78,0,0,0-.58-.06" transform="translate(0 0)" fill="#c6c6c6"/><path d="M26.35,20.27a10.43,10.43,0,0,1-4.26.56c-.08-.67-.18-1.36-.3-2L24.06,17c3.77.45,5-2.73,4-5.75a5.16,5.16,0,0,1-1.7,9" transform="translate(0 0)" fill="#c6c6c6"/><path d="M20.07,15.72,16.93,17.6a5,5,0,0,0-2-1.8c.24-1.56.3-6,1.29-6.49,1.69.34,3.2,4.43,3.88,6.41" transform="translate(0 0)" fill="#c6c6c6"/><path d="M13.32,54.29c1.41-2.78,3.95-17.29,3.73-25.74-.05,0-1.22,7.83-12.62,24.33,0,0,4.12-9.75,7.07-19.19,2.53-1.46,1.74-4.63,4.13-5.93,1.16-.67,4.17-2.8,2.2-4.52-.76,1.86-2.15,1.3-3.94,1.78L21,19.45c2.2,12.6-4.06,31.12-7.67,34.84" transform="translate(0 0)" fill="#c6c6c6"/><path d="M52.79,53.42h-3.3L42.08,9.53l1.65.83a.42.42,0,0,0,.47-.68L40.29,6.12a1.67,1.67,0,1,0-1.67,1.81h.24L41.05,9H41l7.5,44.39H40.33a.51.51,0,1,0,0,1H52.79a.51.51,0,0,0,0-1" transform="translate(0 0)" fill="#e2e2e2"/><path d="M27.78,13,9,27.74,6.86,24.68l9.69-5.81c-.85-.6-1.65-1.34-2.71-1.28-.76.05-1.27.86-1.66,1.62a3.38,3.38,0,0,1-2.83,2.33c-2.63.2-5.46,1.78-5.89,4.35s3.63,6,6.05,3.94a6.81,6.81,0,0,0,1.4-1.64,5.8,5.8,0,0,1,2.15-1.91c1.34-.72,2.88-.45,4.19-1-1.89,2.21-3.35,1.74-4.38,4.9a4.27,4.27,0,0,1-1.54,2.55C-1.8,40.89-5.07,17.37,9.86,18.94c1.88-3.25,5-3.51,6.78-.12l10.73-6.44Z" transform="translate(0 0)" fill="#e2e2e2"/><polygon points="33.34 10.77 29.71 11.77 29.19 11.01 31.41 7.97 33.34 10.77" fill="#e2e2e2"/></g></svg>