<svg xmlns="http://www.w3.org/2000/svg" xmlns:xlink="http://www.w3.org/1999/xlink" width="58.92" height="61.69" viewBox="0 0 58.92 61.69"><defs><clipPath id="a" transform="translate(0 0)"><rect width="58.92" height="61.69" fill="none"/></clipPath></defs><g clip-path="url(#a)"><path d="M25.51,22.74a47.71,47.71,0,0,0-1,4.75,14.3,14.3,0,0,1-1.74-.69c-5-2.25-8.18-7.95-6.81-13.33a10,10,0,0,1,6-7c-4,4.41-4.19,11.05.93,14.66a8.82,8.82,0,0,0,2.67,1.3c0,.1-.06.2-.08.3" transform="translate(0 0)" fill="#c6c6c6"/><path d="M39.44,22.39a12.64,12.64,0,0,1-6.9,5.07c-.17-.94-.33-1.82-.49-2.62s-.37-1.74-.56-2.47a9,9,0,0,0,5.71-5c1.73-3.86.29-8.28-2.62-11.18,6.71,2.25,8.75,10.55,4.86,16.19" transform="translate(0 0)" fill="#c6c6c6"/><path d="M26.28,14.53c.19,1.73,1.34,3,2.57,2.74s2.07-1.79,1.88-3.53-1.34-3-2.57-2.74-2.07,1.8-1.88,3.53" transform="translate(0 0)" fill="#c6c6c6"/><path d="M35.21,59.15c-2.83-9.41-4.53-15.64-5.53-19.52s-1.3-5.4-1.35-5.4h0c-.75,4.74-2.85,11.81-4,24.91-.71-13.86,0-24.53,1.11-31.41a50,50,0,0,1,1.09-5.07c.73-2.58,1.51-3.92,2.17-3.92s1.24,1.48,1.84,3.87c.35,1.42.7,3.16,1,5.1,2,11.86,3.62,31.28,3.62,31.43" transform="translate(0 0)" fill="#c6c6c6"/><path d="M5.46,32c.62,1,.53,2.1-.2,2.5A2.05,2.05,0,0,1,2.8,33.39c-.62-1-.53-2.11.21-2.51A2,2,0,0,1,5.46,32" transform="translate(0 0)" fill="#c6c6c6"/><path d="M9.32,43.13a13.9,13.9,0,0,1,.36,1.5,14.64,14.64,0,0,1-7.78,5,74.55,74.55,0,0,0,5.82-10A15.84,15.84,0,0,1,9,42.24c.11.29.21.6.3.89" transform="translate(0 0)" fill="#c6c6c6"/><path d="M13.74,34.89a12.26,12.26,0,0,1-.48,3.18c-.27-.34-.56-.67-.85-1A11.19,11.19,0,0,0,9.55,34.9l-.07,0c.66-3.23-.17-6.06-3.55-8.52,4.48-.14,8,4.24,7.81,8.55" transform="translate(0 0)" fill="#c6c6c6"/><path d="M15.74,60.4h0c.16-1.93.16-11.49-2.57-16,0,0,0,0,0,0h0c-.13,0,.7,4.81-2.86,17.32h0c0-.3,1.75-11.5.19-18-.06-.27-.13-.54-.21-.79s-.21-.65-.33-1a18,18,0,0,0-1.68-3.28l0,0c-1.38-2.15-2.69-3.43-2-3.56h0l.25,0a6.08,6.08,0,0,1,2.63.77l.15.09a10.15,10.15,0,0,1,2.46,1.92,12,12,0,0,1,1.19,1.44,18.67,18.67,0,0,1,2.48,5c2.48,7.23.43,16.21.37,16.22" transform="translate(0 0)" fill="#c6c6c6"/><path d="M7.76,27.65a.49.49,0,0,1-.47-.34l-1-2.93a.49.49,0,0,1,.31-.62.5.5,0,0,1,.62.32l1,2.92a.48.48,0,0,1-.31.62.4.4,0,0,1-.15,0" transform="translate(0 0)" fill="#e2e2e2"/><rect x="0.82" y="17.59" width="9.82" height="6.81" transform="translate(-6.28 2.84) rotate(-18.22)" fill="#e2e2e2"/><path d="M53.46,32c-.62,1-.54,2.1.2,2.5a2,2,0,0,0,2.45-1.06c.62-1,.54-2.11-.2-2.51A2,2,0,0,0,53.46,32" transform="translate(0 0)" fill="#c6c6c6"/><path d="M53,26.34c-3.38,2.44-4.21,5.29-3.56,8.52l-.06,0a11,11,0,0,0-2.86,2.19c-.29.31-.58.63-.85,1a11.87,11.87,0,0,1-.49-3.18C45,30.58,48.5,26.2,53,26.34" transform="translate(0 0)" fill="#c6c6c6"/><path d="M57,49.68a14.47,14.47,0,0,1-7.77-5c.11-.58.23-1.08.35-1.5s.2-.6.31-.89a16.17,16.17,0,0,1,1.29-2.61,76.74,76.74,0,0,0,5.82,10" transform="translate(0 0)" fill="#c6c6c6"/><path d="M50.7,38.57l0,0A18,18,0,0,0,49,41.89q-.18.47-.33,1c-.08.25-.15.52-.21.79-1.59,6.63.24,18,.19,18h0c-3.55-12.51-2.72-17.3-2.86-17.32h0s0,0,0,0C43,48.9,43,58.46,43.18,60.39h0a34.45,34.45,0,0,1-.85-7.9,26,26,0,0,1,1.22-8.32,18.83,18.83,0,0,1,2.48-5,12,12,0,0,1,1.19-1.44,10.12,10.12,0,0,1,2.45-1.92l.16-.09A6.08,6.08,0,0,1,52.46,35l.24,0h0c.66.13-.64,1.41-2,3.56" transform="translate(0 0)" fill="#c6c6c6"/><path d="M51.17,27.63l-.16,0A.51.51,0,0,1,50.7,27l1-2.91a.49.49,0,0,1,.62-.32.51.51,0,0,1,.31.62l-1,2.91a.49.49,0,0,1-.46.34" transform="translate(0 0)" fill="#e2e2e2"/><rect x="49.78" y="16.08" width="6.81" height="9.82" transform="translate(16.62 64.95) rotate(-71.78)" fill="#e2e2e2"/><rect x="21.45" width="14.11" height="10.01" fill="#e2e2e2"/><path d="M25.73,1.71a6.2,6.2,0,0,1-2.35,1.46L24,4.66a7.71,7.71,0,0,0,1.31-.54v5h1.84V1.6H25.82Z" transform="translate(0 0)" fill="#fff"/><path d="M33,4.91a3.56,3.56,0,0,0-2-.72c0-.27,0-.65.07-.93h2.49V1.6H29.45c-.07,1.41-.15,2.74-.32,4.16a5.65,5.65,0,0,1,2.41.32.74.74,0,0,1-.14,1.39,3.34,3.34,0,0,1-2.33-.4l-.38,1.65c1.55.77,4.17.84,4.94-1A2.5,2.5,0,0,0,33,4.91" transform="translate(0 0)" fill="#fff"/><path d="M52.08,18a3,3,0,0,1-.83.34,5.92,5.92,0,0,1-1.09.14l.08,1.26a6.12,6.12,0,0,0,.85,0l-1,3,1.35.45L53,18.35Z" transform="translate(0 0)" fill="#fff"/><path d="M56.61,20.19A1.69,1.69,0,0,0,54,19.33a4,4,0,0,0-1.18,3.58,1.69,1.69,0,0,0,2.65.87,4.09,4.09,0,0,0,1.18-3.59m-1.37.91c-.09.37-.52,2.07-1.07,1.6a3.11,3.11,0,0,1,.59-2.22c.46-.53.6.22.48.62" transform="translate(0 0)" fill="#fff"/><path d="M6.38,20.33a2.62,2.62,0,0,0-1.47-.07c0-.12-.08-.33-.11-.46l1.68-.55L6.05,18l-2.95,1c.29,1,.55,2,.75,3a4.4,4.4,0,0,1,1.75-.35c.62.18.42.84-.16.95a2.68,2.68,0,0,1-1.37.06L4.2,24c1.28.22,3.16-.35,3.28-1.83a1.87,1.87,0,0,0-1.1-1.85" transform="translate(0 0)" fill="#fff"/></g></svg>