<svg xmlns="http://www.w3.org/2000/svg" xmlns:xlink="http://www.w3.org/1999/xlink" width="535.44" height="567.32" viewBox="0 0 535.44 567.32"><defs><clipPath id="a" transform="translate(34.36 52.94)"><path d="M126.38,106.68C115.5,149.35,141,194.51,180.3,212.31a99.92,99.92,0,0,0,13.81,5.43c2.36-14.23,5-27,7.93-37.62.21-.79.43-1.57.65-2.34a70.46,70.46,0,0,1-21.12-10.31C141,138.89,142.4,86.24,174.23,51.35c-24,8.83-41.9,30.69-47.85,55.33" fill="none"/></clipPath><linearGradient id="b" y1="488.61" x2="1" y2="488.61" gradientTransform="matrix(0, 314.87, 314.87, 0, -153692.57, 57.24)" gradientUnits="userSpaceOnUse"><stop offset="0" stop-color="#ffc330"/><stop offset="0.36" stop-color="#e99135"/><stop offset="0.57" stop-color="#da7039"/><stop offset="0.83" stop-color="#c54c14"/><stop offset="1" stop-color="#b93900"/></linearGradient><clipPath id="c" transform="translate(34.36 52.94)"><path d="M294.65,137.66c-8.38,19.8-25.52,33.37-45.16,39.53q2.19,8.69,4.39,19.61,1.91,9.49,3.86,20.75c21.93-6.76,41.65-20.42,54.67-40.16C343.28,132.7,327.09,66.94,274,49.1c23,23,34.43,58,20.7,88.56" fill="none"/></clipPath><linearGradient id="d" y1="488.71" y2="488.71" gradientTransform="matrix(0, 314.87, 314.87, 0, -153584.4, -36.94)" xlink:href="#b"/><clipPath id="e" transform="translate(34.36 52.94)"><path d="M223.1,87.11c-9.74,1.72-16.41,14.25-14.91,28s10.62,23.46,20.36,21.74,16.41-14.25,14.9-28c-1.39-12.68-9.26-21.94-18.11-22a13.13,13.13,0,0,0-2.24.2" fill="none"/></clipPath><linearGradient id="f" y1="488.65" y2="488.65" gradientTransform="matrix(0, 314.87, 314.87, 0, -153636.84, 5.78)" xlink:href="#b"/><clipPath id="g" transform="translate(34.36 52.94)"><rect width="466.71" height="488.65" fill="none"/></clipPath><clipPath id="h" transform="translate(34.36 52.94)"><path d="M210.24,179.61a369.27,369.27,0,0,0-8.61,40.15c-9,54.5-14.45,139-8.84,248.83,9-103.81,25.64-159.82,31.58-197.37,0-.06,0-.09,0-.09.39,0,2.78,12.08,10.69,42.8S256.46,394,279,468.59c0-1.19-12.52-155.09-28.73-249-2.66-15.4-5.42-29.18-8.23-40.42-4.74-18.91-9.65-30.59-14.55-30.59-5.23,0-11.41,10.61-17.2,31" fill="none"/></clipPath><linearGradient id="i" y1="488.7" y2="488.7" gradientTransform="matrix(0, 314.87, 314.87, 0, -153646.25, 53.7)" xlink:href="#b"/><clipPath id="j" transform="translate(34.36 52.94)"><path d="M22,241.23a13.14,13.14,0,0,0-6.36,8.38c-1.37,5.25-.15,11.42,3.34,16.95,4.35,6.89,11.47,11.34,18.14,11.34a13.31,13.31,0,0,0,6.43-1.58,13.1,13.1,0,0,0,6.36-8.39c1.36-5.24.15-11.42-3.34-16.94-4.35-6.89-11.47-11.34-18.14-11.34A13.31,13.31,0,0,0,22,241.23" fill="none"/></clipPath><clipPath id="l" transform="translate(34.36 52.94)"><path d="M15.07,393.55c22.75-4.73,44.69-20,61.62-40a114.13,114.13,0,0,0-2.85-11.89c-.7-2.35-1.52-4.73-2.42-7.09a128.76,128.76,0,0,0-10.23-20.66,599.05,599.05,0,0,1-46.12,79.63" fill="none"/></clipPath><clipPath id="m" transform="translate(34.36 52.94)"><path d="M47,208.68c26.77,19.46,33.33,41.89,28.14,67.5l.49.25A88.45,88.45,0,0,1,98.28,293.8q3.5,3.66,6.76,7.78a97.33,97.33,0,0,0,3.83-25.23c1.37-33.59-25.48-67.7-60.15-67.7q-.87,0-1.74,0" fill="none"/></clipPath><clipPath id="n" transform="translate(34.36 52.94)"><path d="M49.23,277.31a.51.51,0,0,0-.17,0c-5.23,1,5.1,11.17,16.07,28.23l.19.3a141.9,141.9,0,0,1,13.35,25.94c1,2.47,1.82,5,2.61,7.63.6,2,1.16,4.08,1.67,6.22,12.36,51.85-1.53,140.56-1.53,142.94,0,0,0,0,0,0l0-.09c28.15-99.05,21.57-137,22.65-137.19h0s.1.06.17.18c21.63,35.83,21.7,111.57,20.39,126.83,0,0,0,.06,0,.08a0,0,0,0,0,0,0c.5-.09,16.69-71.21-2.94-128.55-5.64-16.49-12.46-29.36-19.64-39.36a105.84,105.84,0,0,0-9.43-11.42A81.65,81.65,0,0,0,73.22,284c-.41-.23-.81-.45-1.22-.66-9-4.69-16.54-6.12-20.81-6.12a13.55,13.55,0,0,0-2,.13" fill="none"/></clipPath><clipPath id="o" transform="translate(34.36 52.94)"><path d="M52.6,188.25a3.88,3.88,0,0,0-2.47,4.9l7.63,23.18A3.9,3.9,0,0,0,61.45,219a3.65,3.65,0,0,0,1.21-.2,3.88,3.88,0,0,0,2.48-4.9l-7.63-23.18a3.9,3.9,0,0,0-3.69-2.67,4,4,0,0,0-1.22.2" fill="none"/></clipPath><linearGradient id="p" y1="488.65" x2="1" y2="488.65" gradientTransform="matrix(7.76, 0, 0, -7.76, 53.75, 3996.88)" gradientUnits="userSpaceOnUse"><stop offset="0" stop-color="#daf1ef"/><stop offset="0.1" stop-color="#daf1ef"/><stop offset="0.58" stop-color="#00b4f2"/><stop offset="0.64" stop-color="#0dacf2"/><stop offset="0.76" stop-color="#3196f2"/><stop offset="0.91" stop-color="#6973f3"/><stop offset="0.99" stop-color="#8760f3"/><stop offset="1" stop-color="#8760f3"/></linearGradient><clipPath id="q" transform="translate(34.36 52.94)"><rect x="6.49" y="139.31" width="77.78" height="53.98" transform="translate(-49.72 22.53) rotate(-18.22)" fill="none"/></clipPath><linearGradient id="r" y1="488.65" x2="1" y2="488.65" gradientTransform="matrix(-94.41, 0, 0, 94.41, 92.58, -45966.63)" gradientUnits="userSpaceOnUse"><stop offset="0" stop-color="#daf1ef"/><stop offset="0.43" stop-color="#00b4f2"/><stop offset="0.51" stop-color="#0dacf2"/><stop offset="0.65" stop-color="#3196f2"/><stop offset="0.84" stop-color="#6973f3"/><stop offset="0.94" stop-color="#8760f3"/><stop offset="1" stop-color="#8760f3"/></linearGradient><clipPath id="s" transform="translate(34.36 52.94)"><path d="M420.18,251c-3.48,5.52-4.7,11.7-3.33,16.94a13.09,13.09,0,0,0,6.35,8.39,13.34,13.34,0,0,0,6.43,1.58h0c6.66,0,13.78-4.45,18.13-11.34,3.49-5.53,4.71-11.71,3.34-16.95a13.12,13.12,0,0,0-6.35-8.38,13.35,13.35,0,0,0-6.44-1.58c-6.67,0-13.78,4.45-18.14,11.34" fill="none"/></clipPath><clipPath id="u" transform="translate(34.36 52.94)"><path d="M357.84,276.35a97.33,97.33,0,0,0,3.83,25.23q3.25-4.11,6.77-7.78a88.28,88.28,0,0,1,22.67-17.37l.48-.25c-5.16-25.6,1.42-48.15,28.14-67.5-.58,0-1.16,0-1.75,0-34.65,0-61.5,34.13-60.14,67.7" fill="none"/></clipPath><clipPath id="v" transform="translate(34.36 52.94)"><path d="M395.29,334.59c-.9,2.35-1.72,4.73-2.42,7.08A117.14,117.14,0,0,0,390,353.55c16.94,20,38.88,35.29,61.62,40a600.26,600.26,0,0,1-46.11-79.63,127.7,127.7,0,0,0-10.24,20.67" fill="none"/></clipPath><clipPath id="w" transform="translate(34.36 52.94)"><path d="M394.71,283.3l-1.23.66a81.46,81.46,0,0,0-19.43,15.2,105.87,105.87,0,0,0-9.44,11.42c-7.18,10-14,22.87-19.63,39.36-7.37,21.52-9.69,45-9.69,65.9,0,34.82,6.43,62.6,6.74,62.65,0,0,0,0,0-.11-1.31-15.26-1.24-91,20.38-126.83q.1-.18.18-.18h0c1.08.21-5.51,38.14,22.64,137.19,0,.06,0,.09,0,.09.4,0-14.05-90.43-1.52-143,.51-2.14,1.07-4.22,1.67-6.22.78-2.61,1.65-5.16,2.6-7.63a142.53,142.53,0,0,1,13.35-25.94l.19-.3c11-17.06,21.3-27.22,16.07-28.23a.47.47,0,0,0-.17,0,13.41,13.41,0,0,0-2-.13c-4.27,0-11.86,1.43-20.82,6.12" fill="none"/></clipPath><clipPath id="x" transform="translate(34.36 52.94)"><path d="M409.21,190.72l-7.59,23.05a3.88,3.88,0,0,0,2.48,4.9,3.93,3.93,0,0,0,1.21.2A3.87,3.87,0,0,0,409,216.2l7.59-23a3.88,3.88,0,0,0-2.47-4.9,4,4,0,0,0-1.22-.2,3.87,3.87,0,0,0-3.68,2.67" fill="none"/></clipPath><linearGradient id="y" y1="488.65" y2="488.65" gradientTransform="translate(-3384.27 207.34) rotate(-90) scale(7.76)" xlink:href="#p"/><clipPath id="z" transform="translate(34.36 52.94)"><rect x="394.35" y="127.41" width="53.98" height="77.78" transform="translate(131.63 514.51) rotate(-71.78)" fill="none"/></clipPath><linearGradient id="aa" y1="488.65" x2="1" y2="488.65" gradientTransform="matrix(0, 94.41, -94.41, 0, 46554.27, 114.89)" gradientUnits="userSpaceOnUse"><stop offset="0" stop-color="#daf1ef"/><stop offset="0.43" stop-color="#00b4f2"/><stop offset="0.51" stop-color="#0dacf2"/><stop offset="0.65" stop-color="#3196f2"/><stop offset="0.84" stop-color="#6973f3"/><stop offset="0.93" stop-color="#8760f3"/><stop offset="1" stop-color="#8760f3"/></linearGradient><clipPath id="ab" transform="translate(34.36 52.94)"><rect x="169.91" width="111.81" height="79.26" fill="none"/></clipPath><linearGradient id="ac" y1="488.65" x2="1" y2="488.65" gradientTransform="matrix(0, 159.43, 159.43, 0, -77681.5, -46.6)" gradientUnits="userSpaceOnUse"><stop offset="0" stop-color="#daf1ef"/><stop offset="0.54" stop-color="#00b4f2"/><stop offset="0.6" stop-color="#0dacf2"/><stop offset="0.73" stop-color="#3196f2"/><stop offset="0.91" stop-color="#6973f3"/><stop offset="0.99" stop-color="#8760f3"/><stop offset="1" stop-color="#8760f3"/></linearGradient></defs><g clip-path="url(#a)"><rect x="70.4" y="44.03" width="177.38" height="181.03" transform="matrix(0.73, -0.68, 0.68, 0.73, -14.63, 198.08)" fill="url(#b)"/></g><g clip-path="url(#c)"><rect x="204.57" y="39.79" width="183.62" height="187.06" transform="translate(23.31 291.62) rotate(-43.14)" fill="url(#d)"/></g><g clip-path="url(#e)"><rect x="194.2" y="80.81" width="63.24" height="63.86" transform="translate(18.31 237.81) rotate(-43.14)" fill="url(#f)"/></g><g clip-path="url(#g)"><path d="M208.19,115.1c1.51,13.72,10.62,23.46,20.36,21.74s16.41-14.25,14.9-28S232.83,85.39,223.1,87.11,206.69,101.36,208.19,115.1Z" transform="translate(34.36 52.94)" fill="none" stroke="#fff" stroke-miterlimit="10"/></g><g clip-path="url(#h)"><rect x="90.17" y="160.44" width="285.78" height="296.29" transform="translate(-113.63 295.69) rotate(-43.14)" fill="url(#i)"/></g><g clip-path="url(#j)"><polygon points="85.6 293.02 84.89 292.59 85.6 292.59 85.6 293.02" fill="#fca135"/><polygon points="85.6 294.92 81.77 292.59 84.89 292.59 85.6 293.02 85.6 294.92" fill="#fba035"/><polygon points="85.6 296.81 78.66 292.59 81.77 292.59 85.6 294.92 85.6 296.81" fill="#fa9f36"/><polygon points="85.6 298.71 75.54 292.59 78.66 292.59 85.6 296.82 85.6 298.71" fill="#fa9e36"/><polygon points="85.6 300.61 72.42 292.59 75.54 292.59 85.6 298.71 85.6 300.61" fill="#f99d36"/><polygon points="85.6 302.51 69.31 292.59 72.42 292.59 85.6 300.61 85.6 302.51" fill="#f89c36"/><polygon points="85.6 304.41 66.19 292.59 69.31 292.59 85.6 302.51 85.6 304.41" fill="#f79b36"/><polygon points="85.6 306.3 63.07 292.59 66.19 292.59 85.6 304.41 85.6 306.3" fill="#f79a36"/><polygon points="85.6 308.2 59.96 292.59 63.07 292.59 85.6 306.3 85.6 308.2" fill="#f69937"/><polygon points="85.6 310.1 56.84 292.59 59.96 292.59 85.6 308.2 85.6 310.1" fill="#f59835"/><polygon points="85.6 312 53.72 292.59 56.84 292.59 85.6 310.1 85.6 312" fill="#f59736"/><polygon points="85.6 313.89 52.74 293.89 53.53 292.59 53.72 292.59 85.6 312 85.6 313.89" fill="#f49636"/><polygon points="85.6 315.79 51.9 295.27 52.74 293.89 85.6 313.89 85.6 315.79" fill="#f39536"/><polygon points="85.6 317.69 51.06 296.66 51.9 295.27 85.6 315.79 85.6 317.69" fill="#f29436"/><polygon points="85.6 319.59 50.21 298.04 51.06 296.66 85.6 317.69 85.6 319.59" fill="#f39336"/><polygon points="85.6 321.49 49.37 299.43 50.21 298.04 85.6 319.59 85.6 321.49" fill="#f29236"/><polygon points="85.6 322.74 85.31 323.21 48.6 300.86 48.6 300.69 49.37 299.43 85.6 321.49 85.6 322.74" fill="#f19136"/><polygon points="85.31 323.21 84.47 324.59 48.6 302.75 48.6 300.86 85.31 323.21" fill="#f09037"/><polygon points="84.47 324.59 83.63 325.98 48.6 304.65 48.6 302.75 84.47 324.59" fill="#f08f37"/><polygon points="83.63 325.98 82.78 327.36 48.6 306.55 48.6 304.65 83.63 325.98" fill="#ef8e37"/><polygon points="82.78 327.36 81.94 328.75 48.6 308.44 48.6 306.55 82.78 327.36" fill="#ee8d37"/><polygon points="81.94 328.75 81.1 330.13 48.6 310.34 48.6 308.44 81.94 328.75" fill="#ed8c37"/><polygon points="81.1 330.13 80.67 330.84 79.15 330.84 48.6 312.24 48.6 310.34 81.1 330.13" fill="#ed8a37"/><polygon points="76.03 330.84 48.6 314.14 48.6 312.24 79.14 330.84 76.03 330.84" fill="#ec8938"/><polygon points="72.91 330.84 48.6 316.04 48.6 314.14 76.03 330.84 72.91 330.84" fill="#eb8838"/><polygon points="69.8 330.84 48.6 317.93 48.6 316.04 72.91 330.84 69.8 330.84" fill="#ea8738"/><polygon points="66.68 330.84 48.6 319.83 48.6 317.93 69.8 330.84 66.68 330.84" fill="#eb8638"/><polygon points="63.56 330.84 48.6 321.73 48.6 319.83 66.68 330.84 63.56 330.84" fill="#ea8538"/><polygon points="60.45 330.84 48.6 323.63 48.6 321.73 63.56 330.84 60.45 330.84" fill="#e88438"/><polygon points="57.33 330.84 48.6 325.52 48.6 323.63 60.45 330.84 57.33 330.84" fill="#e78338"/><polygon points="54.21 330.84 48.6 327.42 48.6 325.52 57.33 330.84 54.21 330.84" fill="#e88238"/><polygon points="51.1 330.84 48.6 329.32 48.6 327.42 54.21 330.84 51.1 330.84" fill="#e78139"/><polygon points="48.6 329.32 51.1 330.84 48.6 330.84 48.6 329.32" fill="#e68039"/></g><g clip-path="url(#g)"><path d="M28.39,243.53c5.18,0,11.11,3.6,14.86,9.54,4.93,7.8,4.22,16.68-1.59,19.84A9.57,9.57,0,0,1,37.08,274c-5.18,0-11.11-3.6-14.86-9.54-4.93-7.8-4.22-16.68,1.59-19.84a9.57,9.57,0,0,1,4.58-1.11m0-7.76h0a17.2,17.2,0,0,0-8.29,2,17,17,0,0,0-8.25,10.81c-1.64,6.28-.25,13.57,3.81,20,5.12,8.11,13.33,13.15,21.42,13.15a17.16,17.16,0,0,0,8.28-2,16.94,16.94,0,0,0,8.26-10.82c1.64-6.28.25-13.56-3.81-20-5.12-8.11-13.33-13.15-21.42-13.15" transform="translate(34.36 52.94)" fill="#fff"/></g><g clip-path="url(#l)"><polygon points="111.06 367.89 109.37 366.86 111.06 366.86 111.06 367.89" fill="#e37d38"/><polygon points="111.06 369.35 106.98 366.86 109.37 366.86 111.06 367.89 111.06 369.35" fill="#e27c38"/><polygon points="111.06 370.8 104.59 366.86 106.98 366.86 111.06 369.35 111.06 370.8" fill="#e27b38"/><polygon points="111.06 372.26 102.2 366.86 104.59 366.86 111.06 370.8 111.06 372.26" fill="#e17a38"/><polygon points="111.06 373.71 99.81 366.86 102.2 366.86 111.06 372.26 111.06 373.71" fill="#e07938"/><polygon points="111.06 375.17 97.42 366.86 99.81 366.86 111.06 373.71 111.06 375.17" fill="#df7739"/><polygon points="111.06 376.62 95.03 366.86 97.42 366.86 111.06 375.17 111.06 376.62" fill="#df7639"/><polygon points="111.06 378.08 93.88 367.62 94.34 366.86 95.03 366.86 111.06 376.62 111.06 378.08" fill="#de7539"/><polygon points="111.06 379.53 93.24 368.68 93.88 367.62 111.06 378.08 111.06 379.53" fill="#dd7439"/><polygon points="111.06 380.99 92.59 369.74 93.24 368.68 111.06 379.53 111.06 380.99" fill="#dc7339"/><polygon points="111.06 382.44 91.94 370.8 92.59 369.74 111.06 380.99 111.06 382.44" fill="#dc7239"/><polygon points="111.06 383.9 91.3 371.87 91.94 370.8 111.06 382.44 111.06 383.9" fill="#db7139"/><polygon points="111.06 385.35 90.65 372.93 91.3 371.87 111.06 383.9 111.06 385.35" fill="#da7039"/><polygon points="111.06 387.13 89.86 374.22 90.65 372.93 111.06 385.35 111.06 387.13" fill="#da7039"/><polygon points="111.06 388.91 89.07 375.52 89.86 374.22 111.06 387.13 111.06 388.91" fill="#d96e38"/><polygon points="111.06 390.68 88.28 376.81 89.07 375.52 111.06 388.91 111.06 390.68" fill="#d86d37"/><polygon points="111.06 392.46 87.5 378.11 88.28 376.81 111.06 390.68 111.06 392.46" fill="#d96c36"/><polygon points="111.06 394.24 86.7 379.41 87.5 378.11 111.06 392.46 111.06 394.24" fill="#d86a35"/><polygon points="111.06 396.01 85.92 380.7 86.7 379.41 111.06 394.24 111.06 396.01" fill="#d76933"/><polygon points="111.06 397.79 85.13 382 85.92 380.7 111.06 396.01 111.06 397.79" fill="#d66831"/><polygon points="111.06 399.56 84.34 383.29 85.13 382 111.06 397.79 111.06 399.56" fill="#d66730"/><polygon points="111.06 401.34 83.55 384.59 84.34 383.29 111.06 399.56 111.06 401.34" fill="#d5662f"/><polygon points="111.06 403.12 82.76 385.88 83.55 384.59 111.06 401.34 111.06 403.12" fill="#d4652e"/><polygon points="111.06 404.89 81.97 387.18 82.76 385.88 111.06 403.12 111.06 404.89" fill="#d3642d"/><polygon points="111.06 406.67 81.18 388.48 81.97 387.18 111.06 404.89 111.06 406.67" fill="#d3622c"/><polygon points="111.06 408.44 80.39 389.77 81.18 388.48 111.06 406.67 111.06 408.44" fill="#d2612b"/><polygon points="111.06 408.49 110.29 409.75 79.61 391.07 80.39 389.77 111.06 408.44 111.06 408.49" fill="#d1602a"/><rect x="59.43" y="330.15" width="1.52" height="35.93" transform="matrix(0.52, -0.85, 0.85, 0.52, -234.05, 271.33)" fill="#d05f28"/><rect x="58.64" y="331.45" width="1.52" height="35.93" transform="translate(-235.58 271.39) rotate(-58.67)" fill="#d05e27"/><rect x="57.85" y="332.75" width="1.52" height="35.93" transform="translate(-237.07 271.34) rotate(-58.67)" fill="#cf5d26"/><rect x="57.06" y="334.04" width="1.52" height="35.93" transform="translate(-238.55 271.29) rotate(-58.67)" fill="#ce5c24"/><rect x="56.27" y="335.34" width="1.52" height="35.93" transform="translate(-240.04 271.24) rotate(-58.67)" fill="#cd5b22"/><rect x="55.48" y="336.63" width="1.52" height="35.93" transform="translate(-241.52 271.18) rotate(-58.67)" fill="#cd5a21"/><rect x="54.7" y="337.93" width="1.52" height="35.93" transform="translate(-243.01 271.13) rotate(-58.67)" fill="#cc5720"/><rect x="53.91" y="339.23" width="1.52" height="35.93" transform="translate(-244.49 271.08) rotate(-58.67)" fill="#cb561f"/><rect x="53.12" y="340.52" width="1.52" height="35.93" transform="translate(-245.98 271.03) rotate(-58.67)" fill="#cb551e"/><rect x="52.33" y="341.82" width="1.52" height="35.93" transform="translate(-247.46 270.98) rotate(-58.67)" fill="#ca541d"/><rect x="51.54" y="343.11" width="1.52" height="35.93" transform="translate(-248.9 270.81) rotate(-58.65)" fill="#c9531b"/><rect x="50.75" y="344.41" width="1.52" height="35.93" transform="translate(-250.44 270.87) rotate(-58.67)" fill="#c8521a"/><rect x="49.96" y="345.7" width="1.52" height="35.93" transform="translate(-251.92 270.82) rotate(-58.67)" fill="#c85119"/><rect x="49.17" y="347" width="1.52" height="35.93" transform="translate(-253.41 270.77) rotate(-58.67)" fill="#c75018"/><rect x="48.38" y="348.3" width="1.52" height="35.93" transform="translate(-254.89 270.72) rotate(-58.67)" fill="#c64f16"/><rect x="47.59" y="349.59" width="1.52" height="35.93" transform="translate(-256.38 270.66) rotate(-58.67)" fill="#c64e15"/><rect x="46.81" y="350.89" width="1.52" height="35.93" transform="translate(-257.86 270.61) rotate(-58.67)" fill="#c54d14"/><rect x="46.02" y="352.18" width="1.52" height="35.93" transform="translate(-259.35 270.56) rotate(-58.67)" fill="#c44c13"/><rect x="45.23" y="353.48" width="1.52" height="35.93" transform="translate(-260.83 270.51) rotate(-58.67)" fill="#c44b11"/><rect x="44.44" y="354.78" width="1.52" height="35.93" transform="translate(-262.32 270.46) rotate(-58.67)" fill="#c34a10"/><rect x="43.65" y="356.07" width="1.52" height="35.93" transform="translate(-263.75 270.29) rotate(-58.65)" fill="#c2490f"/><rect x="42.86" y="357.37" width="1.52" height="35.93" transform="translate(-265.29 270.35) rotate(-58.67)" fill="#c2470d"/><rect x="42.07" y="358.66" width="1.52" height="35.93" transform="translate(-266.78 270.3) rotate(-58.67)" fill="#c1460c"/><rect x="41.28" y="359.96" width="1.52" height="35.93" transform="translate(-268.26 270.25) rotate(-58.67)" fill="#c0450b"/><rect x="40.49" y="361.25" width="1.52" height="35.93" transform="translate(-269.75 270.2) rotate(-58.67)" fill="#c0440b"/><rect x="39.7" y="362.55" width="1.52" height="35.93" transform="translate(-271.23 270.14) rotate(-58.67)" fill="#bf4309"/><rect x="38.92" y="363.85" width="1.52" height="35.93" transform="translate(-272.72 270.09) rotate(-58.67)" fill="#be4208"/><rect x="38.13" y="365.14" width="1.52" height="35.93" transform="translate(-274.2 270.04) rotate(-58.67)" fill="#be4107"/><polygon points="88.2 446.04 87.92 446.49 86.02 446.49 56.72 428.65 57.51 427.35 88.2 446.04" fill="#bd4005"/><polygon points="83.11 446.49 55.93 429.94 56.72 428.65 86.02 446.49 83.11 446.49" fill="#bd3f04"/><polygon points="80.19 446.49 55.15 431.24 55.93 429.94 83.11 446.49 80.19 446.49" fill="#bc3f03"/><polygon points="77.27 446.49 54.36 432.53 55.15 431.24 80.19 446.49 77.27 446.49" fill="#bb3e03"/><polygon points="74.36 446.49 53.57 433.83 54.36 432.53 77.27 446.49 74.36 446.49" fill="#bb3d02"/><polygon points="71.44 446.49 52.78 435.13 53.57 433.83 74.36 446.49 71.44 446.49" fill="#ba3c01"/><polygon points="68.52 446.49 51.99 436.42 52.78 435.13 71.44 446.49 68.52 446.49" fill="#ba3b01"/><polygon points="65.6 446.49 51.2 437.72 51.99 436.42 68.52 446.49 65.6 446.49" fill="#b93b01"/><polygon points="62.69 446.49 50.41 439.01 51.2 437.72 65.6 446.49 62.69 446.49" fill="#b93900"/><polygon points="49.43 440.62 50.41 439.01 62.69 446.49 49.43 446.49 49.43 440.62" fill="#b93900"/></g><g clip-path="url(#m)"><polygon points="144.63 283.56 106.67 260.46 144.63 260.46 144.63 283.56" fill="#ffc330"/><polygon points="144.63 285.02 104.28 260.46 106.67 260.46 144.63 283.56 144.63 285.02" fill="#ffc330"/><polygon points="144.63 286.47 101.89 260.46 104.28 260.46 144.63 285.02 144.63 286.47" fill="#ffc230"/><polygon points="144.63 287.93 99.5 260.46 101.89 260.46 144.63 286.47 144.63 287.93" fill="#ffc130"/><polygon points="144.63 289.38 97.12 260.46 99.5 260.46 144.63 287.93 144.63 289.38" fill="#ffc031"/><polygon points="144.63 290.84 94.73 260.46 97.12 260.46 144.63 289.38 144.63 290.84" fill="#ffc031"/><polygon points="144.63 292.3 92.34 260.46 94.73 260.46 144.63 290.84 144.63 292.3" fill="#ffbf31"/><polygon points="144.63 293.75 89.95 260.46 92.34 260.46 144.63 292.3 144.63 293.75" fill="#ffbe31"/><polygon points="144.63 295.2 87.56 260.46 89.95 260.46 144.63 293.75 144.63 295.2" fill="#ffbd31"/><polygon points="144.63 296.66 85.17 260.46 87.56 260.46 144.63 295.2 144.63 296.66" fill="#ffbc32"/><polygon points="144.63 298.12 82.78 260.46 85.17 260.46 144.63 296.66 144.63 298.12" fill="#ffbb32"/><polygon points="144.63 299.57 81.34 261.04 81.34 260.46 82.78 260.46 144.63 298.12 144.63 299.57" fill="#ffba32"/><polygon points="144.63 301.02 81.34 262.49 81.34 261.04 144.63 299.57 144.63 301.02" fill="#ffb932"/><polygon points="144.63 302.48 81.34 263.95 81.34 262.49 144.63 301.02 144.63 302.48" fill="#ffb832"/><polygon points="144.63 303.94 81.34 265.4 81.34 263.95 144.63 302.48 144.63 303.94" fill="#ffb733"/><polygon points="144.63 305.39 81.34 266.86 81.34 265.4 144.63 303.94 144.63 305.39" fill="#ffb633"/><polygon points="144.63 306.85 81.34 268.31 81.34 266.86 144.63 305.39 144.63 306.85" fill="#ffb533"/><polygon points="144.63 308.3 81.34 269.77 81.34 268.31 144.63 306.85 144.63 308.3" fill="#ffb432"/><polygon points="144.63 309.76 81.34 271.23 81.34 269.77 144.63 308.3 144.63 309.76" fill="#ffb332"/><polygon points="144.63 311.21 81.34 272.68 81.34 271.23 144.63 309.76 144.63 311.21" fill="#ffb232"/><polygon points="144.63 312.67 81.34 274.13 81.34 272.68 144.63 311.21 144.63 312.67" fill="#ffb232"/><polygon points="144.63 314.12 81.34 275.59 81.34 274.13 144.63 312.67 144.63 314.12" fill="#ffb033"/><polygon points="144.63 315.58 81.34 277.05 81.34 275.59 144.63 314.12 144.63 315.58" fill="#ffb033"/><polygon points="144.63 317.03 81.34 278.5 81.34 277.05 144.63 315.58 144.63 317.03" fill="#ffaf33"/><polygon points="144.63 318.49 81.34 279.95 81.34 278.5 144.63 317.03 144.63 318.49" fill="#ffae33"/><polygon points="144.63 319.94 81.34 281.41 81.34 279.95 144.63 318.49 144.63 319.94" fill="#ffad33"/><polygon points="144.63 321.4 81.34 282.87 81.34 281.41 144.63 319.94 144.63 321.4" fill="#ffac34"/><polygon points="144.63 322.85 81.34 284.32 81.34 282.87 144.63 321.4 144.63 322.85" fill="#ffab34"/><polygon points="144.63 324.31 81.34 285.77 81.34 284.32 144.63 322.85 144.63 324.31" fill="#ffaa34"/><polygon points="144.63 325.76 81.34 287.23 81.34 285.78 144.63 324.31 144.63 325.76" fill="#ffa934"/><polygon points="144.63 327.22 81.34 288.69 81.34 287.23 144.63 325.76 144.63 327.22" fill="#ffa834"/><polygon points="144.63 328.67 81.34 290.14 81.34 288.69 144.63 327.22 144.63 328.67" fill="#ffa734"/><polygon points="144.63 330.13 81.34 291.6 81.34 290.14 144.63 328.67 144.63 330.13" fill="#ffa635"/><polygon points="144.63 331.58 81.34 293.05 81.34 291.6 144.63 330.13 144.63 331.58" fill="#ffa435"/><polygon points="144.63 333.04 81.34 294.51 81.34 293.05 144.63 331.58 144.63 333.04" fill="#fda435"/><polygon points="144.63 334.49 81.34 295.96 81.34 294.51 144.63 333.04 144.63 334.49" fill="#fda235"/><polygon points="144.63 335.95 81.34 297.42 81.34 295.96 144.63 334.49 144.63 335.95" fill="#fca135"/><polygon points="144.63 337.4 81.34 298.87 81.34 297.42 144.63 335.95 144.63 337.4" fill="#fba035"/><polygon points="144.63 338.86 81.34 300.33 81.34 298.87 144.63 337.4 144.63 338.86" fill="#fa9f36"/><polygon points="144.63 340.31 81.34 301.78 81.34 300.33 144.63 338.86 144.63 340.31" fill="#fa9e36"/><polygon points="144.63 341.77 81.34 303.24 81.34 301.78 144.63 340.31 144.63 341.77" fill="#f99d36"/><polygon points="144.63 343.22 81.34 304.69 81.34 303.24 144.63 341.77 144.63 343.22" fill="#f89c36"/><polygon points="144.63 344.68 81.34 306.15 81.34 304.69 144.63 343.22 144.63 344.68" fill="#f79b36"/><polygon points="144.63 346.13 81.34 307.6 81.34 306.15 144.63 344.68 144.63 346.13" fill="#f79a36"/><polygon points="144.63 347.59 81.34 309.06 81.34 307.6 144.63 346.13 144.63 347.59" fill="#f69937"/><polygon points="144.63 347.93 144.13 348.74 81.34 310.51 81.34 309.06 144.63 347.59 144.63 347.93" fill="#f59835"/><polygon points="144.13 348.74 143.49 349.81 81.34 311.97 81.34 310.51 144.13 348.74" fill="#f59736"/><polygon points="143.49 349.8 142.84 350.87 81.34 313.42 81.34 311.97 143.49 349.8" fill="#f49636"/><polygon points="142.84 350.87 142.19 351.93 81.34 314.88 81.34 313.42 142.84 350.87" fill="#f39536"/><polygon points="142.19 351.93 141.55 352.99 81.34 316.33 81.34 314.88 142.19 351.93" fill="#f29436"/><polygon points="141.55 352.99 140.9 354.05 81.34 317.79 81.34 316.33 141.55 352.99" fill="#f39336"/><polygon points="140.9 354.05 140.62 354.52 139.28 354.52 81.34 319.24 81.34 317.79 140.9 354.05" fill="#f29236"/><polygon points="136.89 354.52 81.34 320.7 81.34 319.24 139.28 354.52 136.89 354.52" fill="#f19136"/><polygon points="134.5 354.52 81.34 322.15 81.34 320.7 136.89 354.52 134.5 354.52" fill="#f09037"/><polygon points="132.11 354.52 81.34 323.61 81.34 322.15 134.5 354.52 132.11 354.52" fill="#f08f37"/><polygon points="129.72 354.52 81.34 325.06 81.34 323.61 132.11 354.52 129.72 354.52" fill="#ef8e37"/><polygon points="127.33 354.52 81.34 326.52 81.34 325.06 129.72 354.52 127.33 354.52" fill="#ee8d37"/><polygon points="124.94 354.52 81.34 327.97 81.34 326.52 127.33 354.52 124.94 354.52" fill="#ed8c37"/><polygon points="122.55 354.52 81.34 329.43 81.34 327.97 124.94 354.52 122.55 354.52" fill="#ed8a37"/><polygon points="120.16 354.52 81.34 330.88 81.34 329.43 122.55 354.52 120.16 354.52" fill="#ec8938"/><polygon points="117.77 354.52 81.34 332.34 81.34 330.88 120.16 354.52 117.77 354.52" fill="#eb8838"/><polygon points="115.38 354.52 81.34 333.79 81.34 332.34 117.77 354.52 115.38 354.52" fill="#ea8738"/><polygon points="112.99 354.52 81.34 335.25 81.34 333.79 115.38 354.52 112.99 354.52" fill="#eb8638"/><polygon points="110.6 354.52 81.34 336.7 81.34 335.25 112.99 354.52 110.6 354.52" fill="#ea8538"/><polygon points="108.21 354.52 81.34 338.16 81.34 336.7 110.6 354.52 108.21 354.52" fill="#e88438"/><polygon points="105.83 354.52 81.34 339.61 81.34 338.16 108.22 354.52 105.83 354.52" fill="#e78338"/><polygon points="103.44 354.52 81.34 341.07 81.34 339.61 105.83 354.52 103.44 354.52" fill="#e88238"/><polygon points="101.05 354.52 81.34 342.52 81.34 341.07 103.44 354.52 101.05 354.52" fill="#e78139"/><polygon points="98.66 354.52 81.34 343.98 81.34 342.52 101.05 354.52 98.66 354.52" fill="#e68039"/><polygon points="96.27 354.52 81.34 345.43 81.34 343.98 98.66 354.52 96.27 354.52" fill="#e58039"/><polygon points="93.88 354.52 81.34 346.89 81.34 345.43 96.27 354.52 93.88 354.52" fill="#e57f39"/><polygon points="91.49 354.52 81.34 348.34 81.34 346.89 93.88 354.52 91.49 354.52" fill="#e47e38"/><polygon points="89.1 354.52 81.34 349.8 81.34 348.34 91.49 354.52 89.1 354.52" fill="#e37d38"/><polygon points="86.71 354.52 81.34 351.25 81.34 349.8 89.1 354.52 86.71 354.52" fill="#e27c38"/><polygon points="84.32 354.52 81.34 352.71 81.34 351.25 86.71 354.52 84.32 354.52" fill="#e27b38"/><polygon points="81.93 354.52 81.34 354.16 81.34 352.71 84.32 354.52 81.93 354.52" fill="#e17a38"/><polygon points="81.34 354.16 81.93 354.52 81.34 354.52 81.34 354.16" fill="#e07938"/></g><g clip-path="url(#n)"><polygon points="175.73 330.15 175.68 330.12 175.73 330.12 175.73 330.15" fill="#ffb232"/><polygon points="175.73 331.61 173.29 330.12 175.68 330.12 175.73 330.15 175.73 331.61" fill="#ffb232"/><polygon points="175.73 333.06 170.9 330.12 173.29 330.12 175.73 331.61 175.73 333.06" fill="#ffb033"/><polygon points="175.73 334.52 168.51 330.12 170.9 330.12 175.73 333.06 175.73 334.52" fill="#ffb033"/><polygon points="175.73 335.97 166.12 330.12 168.51 330.12 175.73 334.52 175.73 335.97" fill="#ffaf33"/><polygon points="175.73 337.43 163.73 330.12 166.12 330.12 175.73 335.97 175.73 337.43" fill="#ffae33"/><polygon points="175.73 338.88 161.34 330.12 163.73 330.12 175.73 337.43 175.73 338.88" fill="#ffad33"/><polygon points="175.73 340.34 158.95 330.12 161.34 330.12 175.73 338.88 175.73 340.34" fill="#ffac34"/><polygon points="175.73 341.79 156.56 330.12 158.95 330.12 175.73 340.34 175.73 341.79" fill="#ffab34"/><polygon points="175.73 343.25 154.17 330.12 156.56 330.12 175.73 341.79 175.73 343.25" fill="#ffaa34"/><polygon points="175.73 344.7 151.78 330.12 154.17 330.12 175.73 343.25 175.73 344.7" fill="#ffa934"/><polygon points="175.73 346.16 149.39 330.12 151.78 330.12 175.73 344.7 175.73 346.16" fill="#ffa834"/><polygon points="175.73 347.61 147 330.12 149.39 330.12 175.73 346.16 175.73 347.61" fill="#ffa734"/><polygon points="175.73 349.07 144.61 330.12 147 330.12 175.73 347.61 175.73 349.07" fill="#ffa635"/><polygon points="175.73 350.52 142.22 330.12 144.61 330.12 175.73 349.07 175.73 350.52" fill="#ffa435"/><polygon points="175.73 351.98 139.83 330.12 142.22 330.12 175.73 350.52 175.73 351.98" fill="#fda435"/><polygon points="175.73 353.43 137.44 330.12 139.83 330.12 175.73 351.98 175.73 353.43" fill="#fda235"/><polygon points="175.73 354.89 135.05 330.12 137.44 330.12 175.73 353.43 175.73 354.89" fill="#fca135"/><polygon points="175.73 356.34 132.66 330.12 135.05 330.12 175.73 354.89 175.73 356.34" fill="#fba035"/><polygon points="175.73 357.8 130.27 330.12 132.66 330.12 175.73 356.34 175.73 357.8" fill="#fa9f36"/><polygon points="175.73 359.25 127.88 330.12 130.27 330.12 175.73 357.8 175.73 359.25" fill="#fa9e36"/><polygon points="175.73 360.71 125.49 330.12 127.88 330.12 175.73 359.25 175.73 360.71" fill="#f99d36"/><polygon points="175.73 362.16 123.1 330.12 125.49 330.12 175.73 360.71 175.73 362.16" fill="#f89c36"/><polygon points="175.73 363.62 120.71 330.12 123.1 330.12 175.73 362.16 175.73 363.62" fill="#f79b36"/><polygon points="175.73 365.07 118.33 330.12 120.71 330.12 175.73 363.62 175.73 365.07" fill="#f79a36"/><polygon points="175.73 366.53 115.94 330.12 118.33 330.12 175.73 365.07 175.73 366.53" fill="#f69937"/><polygon points="175.73 367.98 113.55 330.12 115.94 330.12 175.73 366.53 175.73 367.98" fill="#f59835"/><polygon points="175.73 369.44 111.16 330.12 113.55 330.12 175.73 367.98 175.73 369.44" fill="#f59736"/><polygon points="175.73 370.89 108.77 330.12 111.16 330.12 175.73 369.44 175.73 370.89" fill="#f49636"/><polygon points="175.73 372.35 106.38 330.12 108.77 330.12 175.73 370.89 175.73 372.35" fill="#f39536"/><polygon points="175.73 373.8 103.99 330.12 106.38 330.12 175.73 372.35 175.73 373.8" fill="#f29436"/><polygon points="175.73 375.26 101.6 330.12 103.99 330.12 175.73 373.81 175.73 375.26" fill="#f39336"/><polygon points="175.73 376.71 99.21 330.12 101.6 330.12 175.73 375.26 175.73 376.71" fill="#f29236"/><polygon points="175.73 378.17 96.82 330.12 99.21 330.12 175.73 376.71 175.73 378.17" fill="#f19136"/><polygon points="175.73 379.63 94.43 330.12 96.82 330.12 175.73 378.17 175.73 379.63" fill="#f09037"/><polygon points="175.73 381.08 92.04 330.12 94.43 330.12 175.73 379.63 175.73 381.08" fill="#f08f37"/><polygon points="175.73 382.54 89.65 330.12 92.04 330.12 175.73 381.08 175.73 382.54" fill="#ef8e37"/><polygon points="175.73 383.99 87.26 330.12 89.65 330.12 175.73 382.54 175.73 383.99" fill="#ee8d37"/><polygon points="175.73 385.44 84.87 330.12 87.26 330.12 175.73 383.99 175.73 385.44" fill="#ed8c37"/><polygon points="175.73 386.9 82.48 330.12 84.87 330.12 175.73 385.44 175.73 386.9" fill="#ed8a37"/><polygon points="175.73 388.36 80.09 330.12 82.48 330.12 175.73 386.9 175.73 388.36" fill="#ec8938"/><polygon points="175.73 389.81 78.2 330.42 78.2 330.12 80.09 330.12 175.73 388.36 175.73 389.81" fill="#eb8838"/><polygon points="175.73 391.26 78.2 331.88 78.2 330.42 175.73 389.81 175.73 391.26" fill="#ea8738"/><polygon points="175.73 392.72 78.2 333.33 78.2 331.88 175.73 391.26 175.73 392.72" fill="#eb8638"/><polygon points="175.73 394.18 78.2 334.79 78.2 333.33 175.73 392.72 175.73 394.18" fill="#ea8538"/><polygon points="175.73 395.63 78.2 336.24 78.2 334.79 175.73 394.18 175.73 395.63" fill="#e88438"/><polygon points="175.73 397.09 78.2 337.7 78.2 336.24 175.73 395.63 175.73 397.09" fill="#e78338"/><polygon points="175.73 398.54 78.2 339.15 78.2 337.7 175.73 397.09 175.73 398.54" fill="#e88238"/><polygon points="175.73 400 78.2 340.61 78.2 339.15 175.73 398.54 175.73 400" fill="#e78139"/><polygon points="175.73 401.45 78.2 342.06 78.2 340.61 175.73 400 175.73 401.45" fill="#e68039"/><polygon points="175.73 402.91 78.2 343.52 78.2 342.06 175.73 401.45 175.73 402.91" fill="#e58039"/><polygon points="175.73 404.36 78.2 344.97 78.2 343.52 175.73 402.91 175.73 404.36" fill="#e57f39"/><polygon points="175.73 405.82 78.2 346.43 78.2 344.97 175.73 404.36 175.73 405.82" fill="#e47e38"/><polygon points="175.73 407.27 78.2 347.88 78.2 346.43 175.73 405.82 175.73 407.27" fill="#e37d38"/><polygon points="175.73 408.73 78.2 349.34 78.2 347.88 175.73 407.27 175.73 408.73" fill="#e27c38"/><polygon points="175.73 410.18 78.2 350.79 78.2 349.34 175.73 408.73 175.73 410.18" fill="#e27b38"/><polygon points="175.73 411.64 78.2 352.25 78.2 350.79 175.73 410.18 175.73 411.64" fill="#e17a38"/><polygon points="175.73 413.09 78.2 353.7 78.2 352.25 175.73 411.64 175.73 413.09" fill="#e07938"/><polygon points="175.73 414.55 78.2 355.16 78.2 353.7 175.73 413.09 175.73 414.55" fill="#df7739"/><polygon points="175.73 416 78.2 356.61 78.2 355.16 175.73 414.55 175.73 416" fill="#df7639"/><polygon points="175.73 417.46 78.2 358.07 78.2 356.61 175.73 416 175.73 417.46" fill="#de7539"/><polygon points="175.73 418.91 78.2 359.52 78.2 358.07 175.73 417.46 175.73 418.91" fill="#dd7439"/><polygon points="175.73 420.37 78.2 360.98 78.2 359.52 175.73 418.91 175.73 420.37" fill="#dc7339"/><polygon points="175.73 421.82 78.2 362.43 78.2 360.98 175.73 420.37 175.73 421.82" fill="#dc7239"/><polygon points="175.73 423.28 78.2 363.89 78.2 362.43 175.73 421.82 175.73 423.28" fill="#db7139"/><polygon points="175.73 424.73 78.2 365.34 78.2 363.89 175.73 423.28 175.73 424.73" fill="#da7039"/><polygon points="175.73 426.51 78.2 367.12 78.2 365.34 175.73 424.73 175.73 426.51" fill="#da7039"/><polygon points="175.73 428.29 78.2 368.9 78.2 367.12 175.73 426.51 175.73 428.29" fill="#d96e38"/><polygon points="175.73 430.06 78.2 370.67 78.2 368.9 175.73 428.29 175.73 430.06" fill="#d86d37"/><polygon points="175.73 431.84 78.2 372.45 78.2 370.67 175.73 430.06 175.73 431.84" fill="#d96c36"/><polygon points="175.73 433.61 78.2 374.23 78.2 372.45 175.73 431.84 175.73 433.61" fill="#d86a35"/><polygon points="175.73 435.39 78.2 376 78.2 374.23 175.73 433.61 175.73 435.39" fill="#d76933"/><polygon points="175.73 437.17 78.2 377.78 78.2 376 175.73 435.39 175.73 437.17" fill="#d66831"/><polygon points="175.73 438.94 78.2 379.55 78.2 377.78 175.73 437.17 175.73 438.94" fill="#d66730"/><polygon points="175.73 440.72 78.2 381.33 78.2 379.55 175.73 438.94 175.73 440.72" fill="#d5662f"/><polygon points="175.73 442.5 78.2 383.11 78.2 381.33 175.73 440.72 175.73 442.5" fill="#d4652e"/><polygon points="175.73 444.27 78.2 384.88 78.2 383.11 175.73 442.5 175.73 444.27" fill="#d3642d"/><polygon points="175.73 446.05 78.2 386.66 78.2 384.88 175.73 444.27 175.73 446.05" fill="#d3622c"/><polygon points="175.73 447.82 78.2 388.44 78.2 386.66 175.73 446.05 175.73 447.82" fill="#d2612b"/><polygon points="175.73 449.6 78.2 390.21 78.2 388.44 175.73 447.82 175.73 449.6" fill="#d1602a"/><polygon points="175.73 451.38 78.2 391.99 78.2 390.21 175.73 449.6 175.73 451.38" fill="#d05f28"/><polygon points="175.73 453.15 78.2 393.76 78.2 391.99 175.73 451.38 175.73 453.15" fill="#d05e27"/><polygon points="175.73 454.93 78.2 395.54 78.2 393.76 175.73 453.15 175.73 454.93" fill="#cf5d26"/><polygon points="175.73 456.7 78.2 397.32 78.2 395.54 175.73 454.93 175.73 456.7" fill="#ce5c24"/><polygon points="175.73 458.48 78.2 399.09 78.2 397.32 175.73 456.7 175.73 458.48" fill="#cd5b22"/><polygon points="175.73 460.26 78.2 400.87 78.2 399.09 175.73 458.48 175.73 460.26" fill="#cd5a21"/><polygon points="175.73 462.03 78.2 402.64 78.2 400.87 175.73 460.26 175.73 462.03" fill="#cc5720"/><polygon points="175.73 463.81 78.2 404.42 78.2 402.64 175.73 462.03 175.73 463.81" fill="#cb561f"/><polygon points="175.73 465.59 78.2 406.2 78.2 404.42 175.73 463.81 175.73 465.59" fill="#cb551e"/><polygon points="175.73 467.36 78.2 407.97 78.2 406.2 175.73 465.59 175.73 467.36" fill="#ca541d"/><polygon points="175.73 469.14 78.2 409.75 78.2 407.97 175.73 467.36 175.73 469.14" fill="#c9531b"/><polygon points="175.73 470.91 78.2 411.53 78.2 409.75 175.73 469.14 175.73 470.91" fill="#c8521a"/><polygon points="175.73 472.69 78.2 413.3 78.2 411.53 175.73 470.91 175.73 472.69" fill="#c85119"/><polygon points="175.73 474.47 78.2 415.08 78.2 413.3 175.73 472.69 175.73 474.47" fill="#c75018"/><polygon points="175.73 476.24 78.2 416.85 78.2 415.08 175.73 474.47 175.73 476.24" fill="#c64f16"/><polygon points="175.73 478.02 78.2 418.63 78.2 416.85 175.73 476.24 175.73 478.02" fill="#c64e15"/><polygon points="175.73 479.8 78.2 420.41 78.2 418.63 175.73 478.02 175.73 479.8" fill="#c54d14"/><polygon points="175.73 481.57 78.2 422.18 78.2 420.41 175.73 479.8 175.73 481.57" fill="#c44c13"/><polygon points="175.73 483.35 78.2 423.96 78.2 422.18 175.73 481.57 175.73 483.35" fill="#c44b11"/><polygon points="175.73 485.12 78.2 425.74 78.2 423.96 175.73 483.35 175.73 485.12" fill="#c34a10"/><polygon points="175.73 486.9 78.2 427.51 78.2 425.74 175.73 485.12 175.73 486.9" fill="#c2490f"/><polygon points="175.73 488.68 78.2 429.29 78.2 427.51 175.73 486.9 175.73 488.68" fill="#c2470d"/><polygon points="175.73 490.45 78.2 431.06 78.2 429.29 175.73 488.68 175.73 490.45" fill="#c1460c"/><polygon points="175.73 492.23 78.2 432.84 78.2 431.06 175.73 490.45 175.73 492.23" fill="#c0450b"/><polygon points="175.73 494 78.2 434.62 78.2 432.84 175.73 492.23 175.73 494" fill="#c0440b"/><polygon points="175.73 495.78 78.2 436.39 78.2 434.62 175.73 494 175.73 495.78" fill="#bf4309"/><polygon points="175.73 497.56 78.2 438.17 78.2 436.39 175.73 495.78 175.73 497.56" fill="#be4208"/><polygon points="175.73 499.33 78.2 439.94 78.2 438.17 175.73 497.56 175.73 499.33" fill="#be4107"/><polygon points="175.73 501.11 78.2 441.72 78.2 439.94 175.73 499.33 175.73 501.11" fill="#bd4005"/><polygon points="175.73 502.89 78.2 443.5 78.2 441.72 175.73 501.11 175.73 502.89" fill="#bd3f04"/><polygon points="175.73 504.66 78.2 445.27 78.2 443.5 175.73 502.89 175.73 504.66" fill="#bc3f03"/><polygon points="175.73 506.44 78.2 447.05 78.2 445.27 175.73 504.66 175.73 506.44" fill="#bb3e03"/><polygon points="175.73 506.73 175.08 507.81 78.2 448.83 78.2 447.05 175.73 506.44 175.73 506.73" fill="#bb3d02"/><polygon points="175.08 507.81 174.29 509.11 78.2 450.6 78.2 448.83 175.08 507.81" fill="#ba3c01"/><polygon points="174.29 509.11 173.5 510.41 78.2 452.38 78.2 450.6 174.29 509.11" fill="#ba3b01"/><polygon points="173.5 510.41 172.71 511.7 78.2 454.15 78.2 452.38 173.5 510.41" fill="#b93b01"/><polygon points="172.71 511.7 171.92 513 78.2 455.93 78.2 454.15 172.71 511.7" fill="#b93900"/><polygon points="171.92 513 154.51 541.59 78.2 541.59 78.2 455.93 171.92 513" fill="#b93900"/></g><g clip-path="url(#o)"><rect x="45.03" y="186.28" width="25.2" height="34.5" transform="translate(-26.38 81.16) rotate(-18.22)" fill="url(#p)"/></g><g clip-path="url(#q)"><rect x="-10.94" y="107.7" width="112.64" height="117.21" transform="translate(-84.72 167.59) rotate(-57.3)" fill="url(#r)"/></g><g clip-path="url(#s)"><polygon points="450.06 292.59 449.85 292.79 449.85 292.59 450.06 292.59" fill="#e78338"/><polygon points="452.68 292.59 449.85 295.19 449.85 292.79 450.06 292.59 452.68 292.59" fill="#e88238"/><polygon points="455.29 292.59 449.85 297.59 449.85 295.19 452.68 292.59 455.29 292.59" fill="#e78139"/><polygon points="457.9 292.59 449.85 299.99 449.85 297.59 455.29 292.59 457.9 292.59" fill="#e68039"/><polygon points="460.51 292.59 449.85 302.38 449.85 299.99 457.9 292.59 460.51 292.59" fill="#e58039"/><polygon points="463.12 292.59 449.85 304.78 449.85 302.38 460.51 292.59 463.12 292.59" fill="#e57f39"/><polygon points="465.73 292.59 449.85 307.18 449.85 304.78 463.12 292.59 465.73 292.59" fill="#e47e38"/><polygon points="468.34 292.59 449.85 309.58 449.85 307.18 465.73 292.59 468.34 292.59" fill="#e37d38"/><polygon points="470.95 292.59 449.85 311.98 449.85 309.58 468.34 292.59 470.95 292.59" fill="#e27c38"/><polygon points="473.57 292.59 449.85 314.38 449.85 311.98 470.95 292.59 473.57 292.59" fill="#e27b38"/><polygon points="476.18 292.59 449.85 316.78 449.85 314.38 473.57 292.59 476.18 292.59" fill="#e17a38"/><polygon points="478.79 292.59 449.85 319.18 449.85 316.78 476.18 292.59 478.79 292.59" fill="#e07938"/><polygon points="480.64 292.59 480.99 292.96 449.85 321.58 449.85 319.18 478.79 292.59 480.64 292.59" fill="#df7739"/><polygon points="480.99 292.97 482.18 294.27 449.85 323.98 449.85 321.58 480.99 292.97" fill="#df7639"/><polygon points="482.18 294.27 483.38 295.57 450.98 325.33 449.85 324.09 449.85 323.98 482.18 294.27" fill="#de7539"/><rect x="411.42" y="257.28" width="43.99" height="1.77" transform="translate(-26.06 414.15) rotate(-42.57)" fill="#dd7439"/><rect x="412.61" y="258.58" width="43.99" height="1.77" transform="translate(-26.62 415.31) rotate(-42.57)" fill="#dc7339"/><polygon points="485.77 298.17 486.84 299.34 486.84 299.58 454.57 329.23 453.37 327.93 485.77 298.17" fill="#dc7239"/><polygon points="486.84 301.98 455.76 330.53 454.57 329.23 486.84 299.58 486.84 301.98" fill="#db7139"/><polygon points="486.84 304.38 458.04 330.84 456.04 330.84 455.76 330.53 486.84 301.98 486.84 304.38" fill="#da7039"/><polygon points="486.84 307.31 461.23 330.84 458.04 330.84 486.84 304.38 486.84 307.31" fill="#da7039"/><polygon points="486.84 310.24 464.42 330.84 461.23 330.84 486.84 307.31 486.84 310.24" fill="#d96e38"/><polygon points="486.84 313.16 467.6 330.84 464.42 330.84 486.84 310.24 486.84 313.16" fill="#d86d37"/><polygon points="486.84 316.09 470.79 330.84 467.6 330.84 486.84 313.16 486.84 316.09" fill="#d96c36"/><polygon points="486.84 319.02 473.98 330.84 470.79 330.84 486.84 316.09 486.84 319.02" fill="#d86a35"/><polygon points="486.84 321.95 477.17 330.84 473.98 330.84 486.84 319.02 486.84 321.95" fill="#d76933"/><polygon points="486.84 324.88 480.35 330.84 477.17 330.84 486.84 321.95 486.84 324.88" fill="#d66831"/><polygon points="486.84 327.81 483.54 330.84 480.35 330.84 486.84 324.88 486.84 327.81" fill="#d66730"/><polygon points="486.84 330.73 486.73 330.84 483.54 330.84 486.84 327.81 486.84 330.73" fill="#d5662f"/><polygon points="486.73 330.84 486.84 330.74 486.84 330.84 486.73 330.84" fill="#d4652e"/></g><g clip-path="url(#g)"><path d="M438.32,243.53a9.61,9.61,0,0,1,4.59,1.11c5.8,3.16,6.51,12,1.58,19.84-3.75,5.94-9.68,9.54-14.86,9.54a9.57,9.57,0,0,1-4.58-1.11c-5.8-3.16-6.51-12-1.58-19.84,3.74-5.94,9.67-9.54,14.85-9.54m0-7.76c-8.09,0-16.29,5-21.42,13.15-4.06,6.43-5.44,13.71-3.81,20a16.94,16.94,0,0,0,8.26,10.82,17.19,17.19,0,0,0,8.28,2c8.09,0,16.3-5,21.43-13.15,4.06-6.43,5.45-13.72,3.81-20a17,17,0,0,0-8.26-10.81,17.2,17.2,0,0,0-8.29-2" transform="translate(34.36 52.94)" fill="#fff"/></g><g clip-path="url(#u)"><polygon points="391.6 260.45 390.82 261.16 390.82 260.45 391.6 260.45" fill="#ffb832"/><polygon points="393.58 260.45 390.82 262.98 390.82 261.16 391.6 260.45 393.58 260.45" fill="#ffb733"/><polygon points="395.56 260.45 390.82 264.8 390.82 262.98 393.58 260.45 395.56 260.45" fill="#ffb633"/><polygon points="397.54 260.45 390.82 266.62 390.82 264.8 395.56 260.45 397.54 260.45" fill="#ffb533"/><polygon points="399.52 260.45 390.82 268.44 390.82 266.62 397.54 260.45 399.52 260.45" fill="#ffb432"/><polygon points="401.5 260.45 390.82 270.25 390.82 268.44 399.52 260.45 401.5 260.45" fill="#ffb332"/><polygon points="403.47 260.45 390.82 272.07 390.82 270.25 401.5 260.45 403.47 260.45" fill="#ffb232"/><polygon points="405.45 260.45 390.82 273.89 390.82 272.07 403.48 260.45 405.45 260.45" fill="#ffb232"/><polygon points="407.43 260.45 390.82 275.71 390.82 273.89 405.45 260.45 407.43 260.45" fill="#ffb033"/><polygon points="409.41 260.45 390.82 277.53 390.82 275.71 407.43 260.45 409.41 260.45" fill="#ffb033"/><polygon points="411.39 260.45 390.82 279.35 390.82 277.53 409.41 260.45 411.39 260.45" fill="#ffaf33"/><polygon points="413.37 260.45 390.82 281.16 390.82 279.35 411.39 260.45 413.37 260.45" fill="#ffae33"/><polygon points="415.35 260.45 390.82 282.98 390.82 281.16 413.37 260.45 415.35 260.45" fill="#ffad33"/><polygon points="417.33 260.45 390.82 284.8 390.82 282.98 415.35 260.45 417.33 260.45" fill="#ffac34"/><polygon points="419.31 260.45 390.82 286.62 390.82 284.8 417.33 260.45 419.31 260.45" fill="#ffab34"/><polygon points="421.29 260.45 390.82 288.44 390.82 286.62 419.31 260.45 421.29 260.45" fill="#ffaa34"/><polygon points="423.27 260.45 390.82 290.26 390.82 288.44 421.29 260.45 423.27 260.45" fill="#ffa934"/><polygon points="425.25 260.45 390.82 292.07 390.82 290.26 423.27 260.45 425.25 260.45" fill="#ffa834"/><polygon points="427.22 260.45 390.82 293.89 390.82 292.07 425.25 260.45 427.22 260.45" fill="#ffa734"/><polygon points="429.2 260.45 390.82 295.71 390.82 293.89 427.23 260.45 429.2 260.45" fill="#ffa635"/><polygon points="431.18 260.45 390.82 297.53 390.82 295.71 429.2 260.45 431.18 260.45" fill="#ffa435"/><polygon points="433.16 260.45 390.82 299.35 390.82 297.53 431.18 260.45 433.16 260.45" fill="#fda435"/><polygon points="435.14 260.45 390.82 301.17 390.82 299.35 433.16 260.45 435.14 260.45" fill="#fda235"/><polygon points="437.12 260.45 390.82 302.98 390.82 301.17 435.14 260.45 437.12 260.45" fill="#fca135"/><polygon points="439.1 260.45 390.82 304.8 390.82 302.98 437.12 260.45 439.1 260.45" fill="#fba035"/><polygon points="441.08 260.45 390.82 306.62 390.82 304.8 439.1 260.45 441.08 260.45" fill="#fa9f36"/><polygon points="443.06 260.45 390.82 308.44 390.82 306.62 441.08 260.45 443.06 260.45" fill="#fa9e36"/><polygon points="445.04 260.45 390.82 310.26 390.82 308.44 443.06 260.45 445.04 260.45" fill="#f99d36"/><polygon points="447.02 260.45 390.82 312.07 390.82 310.26 445.04 260.45 447.02 260.45" fill="#f89c36"/><polygon points="449 260.45 390.82 313.89 390.82 312.07 447.02 260.45 449 260.45" fill="#f79b36"/><polygon points="450.98 260.45 390.82 315.71 390.82 313.89 449 260.45 450.98 260.45" fill="#f79a36"/><polygon points="452.95 260.45 390.82 317.53 390.82 315.71 450.98 260.45 452.95 260.45" fill="#f69937"/><polygon points="454.1 261.21 390.82 319.35 390.82 317.53 452.95 260.45 454.1 260.45 454.1 261.21" fill="#f59835"/><polygon points="454.1 263.03 390.82 321.16 390.82 319.35 454.1 261.21 454.1 263.03" fill="#f59736"/><polygon points="454.1 264.85 390.82 322.98 390.82 321.17 454.1 263.03 454.1 264.85" fill="#f49636"/><polygon points="454.1 266.67 390.82 324.8 390.82 322.98 454.1 264.85 454.1 266.67" fill="#f39536"/><polygon points="454.1 268.49 390.82 326.62 390.82 324.8 454.1 266.67 454.1 268.49" fill="#f29436"/><polygon points="454.1 270.3 390.82 328.44 390.82 326.62 454.1 268.49 454.1 270.3" fill="#f39336"/><polygon points="454.1 272.12 390.82 330.25 390.82 328.44 454.1 270.3 454.1 272.12" fill="#f29236"/><polygon points="454.1 273.94 390.82 332.07 390.82 330.26 454.1 272.12 454.1 273.94" fill="#f19136"/><polygon points="454.1 275.76 390.82 333.89 390.82 332.07 454.1 273.94 454.1 275.76" fill="#f09037"/><polygon points="454.1 277.58 390.82 335.71 390.82 333.89 454.1 275.76 454.1 277.58" fill="#f08f37"/><polygon points="454.1 279.39 390.82 337.53 390.82 335.71 454.1 277.58 454.1 279.39" fill="#ef8e37"/><polygon points="454.1 281.21 390.82 339.35 390.82 337.53 454.1 279.39 454.1 281.21" fill="#ee8d37"/><polygon points="454.1 283.03 390.82 341.16 390.82 339.35 454.1 281.21 454.1 283.03" fill="#ed8c37"/><polygon points="454.1 284.85 390.82 342.98 390.82 341.17 454.1 283.03 454.1 284.85" fill="#ed8a37"/><polygon points="454.1 286.67 390.82 344.8 390.82 342.98 454.1 284.85 454.1 286.67" fill="#ec8938"/><polygon points="454.1 288.49 390.82 346.62 390.82 344.8 454.1 286.67 454.1 288.49" fill="#eb8838"/><polygon points="454.1 290.3 390.82 348.44 390.82 346.62 454.1 288.49 454.1 290.3" fill="#ea8738"/><polygon points="454.1 292.12 390.82 350.26 390.82 348.44 454.1 290.3 454.1 292.12" fill="#eb8638"/><polygon points="454.1 293.94 391.67 351.29 390.82 350.37 390.82 350.26 454.1 292.12 454.1 293.94" fill="#ea8538"/><polygon points="454.1 295.76 392.57 352.28 391.67 351.29 454.1 293.94 454.1 295.76" fill="#e88438"/><polygon points="454.1 297.58 393.48 353.26 392.57 352.28 454.1 295.76 454.1 297.58" fill="#e78338"/><polygon points="454.1 299.39 394.39 354.25 393.48 353.26 454.1 297.58 454.1 299.39" fill="#e88238"/><polygon points="454.1 301.21 396.07 354.52 394.63 354.52 394.39 354.25 454.1 299.39 454.1 301.21" fill="#e78139"/><polygon points="454.1 303.03 398.05 354.52 396.07 354.52 454.1 301.21 454.1 303.03" fill="#e68039"/><polygon points="454.1 304.85 400.03 354.52 398.05 354.52 454.1 303.03 454.1 304.85" fill="#e58039"/><polygon points="454.1 306.67 402.01 354.52 400.03 354.52 454.1 304.85 454.1 306.67" fill="#e57f39"/><polygon points="454.1 308.49 403.99 354.52 402.01 354.52 454.1 306.67 454.1 308.49" fill="#e47e38"/><polygon points="454.1 310.3 405.97 354.52 403.99 354.52 454.1 308.49 454.1 310.3" fill="#e37d38"/><polygon points="454.1 312.12 407.95 354.52 405.97 354.52 454.1 310.3 454.1 312.12" fill="#e27c38"/><polygon points="454.1 313.94 409.93 354.52 407.95 354.52 454.1 312.12 454.1 313.94" fill="#e27b38"/><polygon points="454.1 315.76 411.91 354.52 409.93 354.52 454.1 313.94 454.1 315.76" fill="#e17a38"/><polygon points="454.1 317.58 413.88 354.52 411.91 354.52 454.1 315.76 454.1 317.58" fill="#e07938"/><polygon points="454.1 319.39 415.86 354.52 413.88 354.52 454.1 317.58 454.1 319.39" fill="#df7739"/><polygon points="454.1 321.21 417.84 354.52 415.86 354.52 454.1 319.39 454.1 321.21" fill="#df7639"/><polygon points="454.1 323.03 419.82 354.52 417.84 354.52 454.1 321.21 454.1 323.03" fill="#de7539"/><polygon points="454.1 324.85 421.8 354.52 419.82 354.52 454.1 323.03 454.1 324.85" fill="#dd7439"/><polygon points="454.1 326.67 423.78 354.52 421.8 354.52 454.1 324.85 454.1 326.67" fill="#dc7339"/><polygon points="454.1 328.49 425.76 354.52 423.78 354.52 454.1 326.67 454.1 328.49" fill="#dc7239"/><polygon points="454.1 330.3 427.74 354.52 425.76 354.52 454.1 328.49 454.1 330.3" fill="#db7139"/><polygon points="454.1 332.12 429.72 354.52 427.74 354.52 454.1 330.3 454.1 332.12" fill="#da7039"/><polygon points="454.1 334.34 432.13 354.52 429.72 354.52 454.1 332.12 454.1 334.34" fill="#da7039"/><polygon points="454.1 336.56 434.55 354.52 432.13 354.52 454.1 334.34 454.1 336.56" fill="#d96e38"/><polygon points="454.1 338.78 436.97 354.52 434.55 354.52 454.1 336.56 454.1 338.78" fill="#d86d37"/><polygon points="454.1 341 439.38 354.52 436.97 354.52 454.1 338.78 454.1 341" fill="#d96c36"/><polygon points="454.1 343.22 441.8 354.52 439.38 354.52 454.1 341 454.1 343.22" fill="#d86a35"/><polygon points="454.1 345.44 444.21 354.52 441.8 354.52 454.1 343.22 454.1 345.44" fill="#d76933"/><polygon points="454.1 347.66 446.63 354.52 444.21 354.52 454.1 345.44 454.1 347.66" fill="#d66831"/><polygon points="454.1 349.88 449.05 354.52 446.63 354.52 454.1 347.66 454.1 349.88" fill="#d66730"/><polygon points="454.1 352.1 451.46 354.52 449.05 354.52 454.1 349.88 454.1 352.1" fill="#d5662f"/><polygon points="454.1 354.32 453.88 354.52 451.46 354.52 454.1 352.1 454.1 354.32" fill="#d4652e"/><polygon points="453.88 354.52 454.1 354.32 454.1 354.52 453.88 354.52" fill="#d3642d"/></g><g clip-path="url(#v)"><polygon points="425.95 366.86 424.39 368.29 424.39 366.86 425.95 366.86" fill="#d96c36"/><polygon points="428.37 366.86 424.39 370.51 424.39 368.29 425.95 366.86 428.37 366.86" fill="#d86a35"/><polygon points="430.79 366.86 424.39 372.73 424.39 370.51 428.37 366.86 430.79 366.86" fill="#d76933"/><polygon points="433.2 366.86 424.39 374.95 424.39 372.73 430.79 366.86 433.2 366.86" fill="#d66831"/><polygon points="435.62 366.86 424.39 377.17 424.39 374.95 433.2 366.86 435.62 366.86" fill="#d66730"/><polygon points="438.03 366.86 424.39 379.39 424.39 377.17 435.62 366.86 438.03 366.86" fill="#d5662f"/><polygon points="440.45 366.86 424.39 381.61 424.39 379.39 438.03 366.86 440.45 366.86" fill="#d4652e"/><polygon points="441.3 366.86 442.01 367.64 424.39 383.83 424.39 381.61 440.45 366.86 441.3 366.86" fill="#d3642d"/><polygon points="442.01 367.64 443.12 368.84 424.39 386.05 424.39 383.83 442.01 367.64" fill="#d3622c"/><polygon points="443.12 368.84 444.23 370.05 424.39 388.27 424.39 386.05 443.12 368.84" fill="#d2612b"/><polygon points="444.23 370.05 445.33 371.25 424.39 390.49 424.39 388.27 444.23 370.05" fill="#d1602a"/><polygon points="445.33 371.25 446.44 372.45 424.39 392.71 424.39 390.49 445.33 371.25" fill="#d05f28"/><polygon points="446.44 372.45 447.54 373.65 424.39 394.93 424.39 392.71 446.44 372.45" fill="#d05e27"/><polygon points="447.54 373.65 448.65 374.86 424.39 397.15 424.39 394.93 447.54 373.65" fill="#cf5d26"/><polygon points="448.65 374.86 449.75 376.06 424.39 399.37 424.39 397.15 448.65 374.86" fill="#ce5c24"/><polygon points="449.75 376.06 450.86 377.27 424.39 401.58 424.39 399.37 449.75 376.06" fill="#cd5b22"/><polygon points="450.86 377.27 451.97 378.47 424.39 403.81 424.39 401.58 450.86 377.27" fill="#cd5a21"/><polygon points="451.97 378.47 453.07 379.67 424.39 406.02 424.39 403.81 451.97 378.47" fill="#cc5720"/><polygon points="453.07 379.67 454.18 380.88 424.39 408.24 424.39 406.03 453.07 379.67" fill="#cb561f"/><polygon points="454.18 380.88 455.28 382.08 424.83 410.06 424.39 409.58 424.39 408.24 454.18 380.88" fill="#cb551e"/><rect x="385.57" y="342.91" width="41.35" height="1.63" transform="translate(-91.1 418.35) rotate(-42.57)" fill="#ca541d"/><rect x="386.67" y="344.12" width="41.35" height="1.63" transform="translate(-91.62 419.4) rotate(-42.57)" fill="#c9531b"/><rect x="387.78" y="345.32" width="41.35" height="1.63" transform="translate(-92.16 420.24) rotate(-42.54)" fill="#c8521a"/><rect x="388.88" y="346.53" width="41.35" height="1.63" transform="translate(-92.66 421.77) rotate(-42.59)" fill="#c85119"/><rect x="389.99" y="347.73" width="41.35" height="1.63" transform="translate(-93.2 422.37) rotate(-42.54)" fill="#c75018"/><rect x="391.1" y="348.93" width="41.35" height="1.63" transform="translate(-93.72 423.66) rotate(-42.57)" fill="#c64f16"/><rect x="392.2" y="350.14" width="41.35" height="1.63" transform="translate(-94.25 424.5) rotate(-42.54)" fill="#c64e15"/><rect x="393.31" y="351.34" width="41.35" height="1.63" transform="translate(-94.76 425.81) rotate(-42.57)" fill="#c54d14"/><rect x="394.41" y="352.54" width="41.35" height="1.63" transform="translate(-95.28 426.85) rotate(-42.57)" fill="#c44c13"/><rect x="395.52" y="353.75" width="41.35" height="1.63" transform="translate(-95.82 427.69) rotate(-42.54)" fill="#c44b11"/><rect x="396.62" y="354.95" width="41.35" height="1.63" transform="translate(-96.32 429.23) rotate(-42.59)" fill="#c34a10"/><rect x="397.73" y="356.15" width="41.35" height="1.63" transform="translate(-96.86 429.82) rotate(-42.54)" fill="#c2490f"/><rect x="398.84" y="357.36" width="41.35" height="1.63" transform="translate(-97.38 431.11) rotate(-42.57)" fill="#c2470d"/><rect x="399.94" y="358.56" width="41.35" height="1.63" transform="translate(-97.91 431.95) rotate(-42.54)" fill="#c1460c"/><rect x="401.05" y="359.77" width="41.35" height="1.63" transform="translate(-98.41 433.5) rotate(-42.59)" fill="#c0450b"/><rect x="402.15" y="360.97" width="41.35" height="1.63" transform="translate(-98.95 434.08) rotate(-42.54)" fill="#c0440b"/><rect x="403.26" y="362.17" width="41.35" height="1.63" transform="translate(-99.47 435.38) rotate(-42.57)" fill="#bf4309"/><rect x="404.36" y="363.38" width="41.36" height="1.63" transform="translate(-99.99 436.46) rotate(-42.57)" fill="#be4208"/><rect x="405.47" y="364.58" width="41.35" height="1.63" transform="translate(-100.52 437.27) rotate(-42.54)" fill="#be4107"/><rect x="406.58" y="365.78" width="41.35" height="1.63" transform="translate(-101.04 438.57) rotate(-42.57)" fill="#bd4005"/><rect x="407.68" y="366.99" width="41.35" height="1.63" transform="translate(-101.57 439.4) rotate(-42.54)" fill="#bd3f04"/><rect x="408.79" y="368.19" width="41.35" height="1.63" transform="translate(-102.07 440.96) rotate(-42.59)" fill="#bc3f03"/><rect x="409.89" y="369.4" width="41.35" height="1.63" transform="translate(-102.61 441.53) rotate(-42.54)" fill="#bb3e03"/><rect x="411" y="370.6" width="41.35" height="1.63" transform="translate(-103.13 442.83) rotate(-42.57)" fill="#bb3d02"/><rect x="412.11" y="371.8" width="41.35" height="1.63" transform="translate(-103.65 443.92) rotate(-42.57)" fill="#ba3c01"/><rect x="413.21" y="373.01" width="41.35" height="1.63" transform="translate(-104.17 444.96) rotate(-42.57)" fill="#ba3b01"/><rect x="414.32" y="374.21" width="41.35" height="1.63" transform="translate(-104.7 445.79) rotate(-42.54)" fill="#b93b01"/><polygon points="485.14 414.58 486.01 415.53 486.01 416 455.79 443.76 454.69 442.56 485.14 414.58" fill="#b93900"/><polygon points="458.3 446.49 455.79 443.76 486.01 416 486.01 446.49 458.3 446.49" fill="#b93900"/></g><g clip-path="url(#w)"><polygon points="371.17 330.12 369.65 331.51 369.65 330.12 371.17 330.12" fill="#f89c36"/><polygon points="373.15 330.12 369.66 333.33 369.66 331.51 371.18 330.12 373.15 330.12" fill="#f79b36"/><polygon points="375.13 330.12 369.65 335.15 369.65 333.33 373.15 330.12 375.13 330.12" fill="#f79a36"/><polygon points="377.11 330.12 369.66 336.97 369.66 335.15 375.13 330.12 377.11 330.12" fill="#f69937"/><polygon points="379.09 330.12 369.65 338.79 369.65 336.97 377.11 330.12 379.09 330.12" fill="#f59835"/><polygon points="381.07 330.12 369.66 340.61 369.66 338.79 379.09 330.12 381.07 330.12" fill="#f59736"/><polygon points="383.05 330.12 369.65 342.42 369.65 340.61 381.07 330.12 383.05 330.12" fill="#f49636"/><polygon points="385.03 330.12 369.66 344.24 369.66 342.42 383.05 330.12 385.03 330.12" fill="#f39536"/><polygon points="387.01 330.12 369.65 346.06 369.65 344.24 385.03 330.12 387.01 330.12" fill="#f29436"/><polygon points="388.99 330.12 369.66 347.88 369.66 346.06 387.01 330.12 388.99 330.12" fill="#f39336"/><polygon points="390.97 330.12 369.65 349.7 369.65 347.88 388.99 330.12 390.97 330.12" fill="#f29236"/><polygon points="392.95 330.12 369.66 351.51 369.66 349.7 390.97 330.12 392.95 330.12" fill="#f19136"/><polygon points="394.92 330.12 369.65 353.33 369.65 351.51 392.94 330.12 394.92 330.12" fill="#f09037"/><polygon points="396.9 330.12 369.66 355.15 369.66 353.33 394.93 330.12 396.9 330.12" fill="#f08f37"/><polygon points="398.88 330.12 369.65 356.97 369.65 355.15 396.9 330.12 398.88 330.12" fill="#ef8e37"/><polygon points="400.86 330.12 369.66 358.79 369.66 356.97 398.88 330.12 400.86 330.12" fill="#ee8d37"/><polygon points="402.84 330.12 369.65 360.61 369.65 358.79 400.86 330.12 402.84 330.12" fill="#ed8c37"/><polygon points="404.82 330.12 369.66 362.42 369.66 360.61 402.84 330.12 404.82 330.12" fill="#ed8a37"/><polygon points="406.8 330.12 369.65 364.24 369.65 362.42 404.82 330.12 406.8 330.12" fill="#ec8938"/><polygon points="408.78 330.12 369.66 366.06 369.66 364.24 406.8 330.12 408.78 330.12" fill="#eb8838"/><polygon points="410.76 330.12 369.65 367.88 369.65 366.06 408.78 330.12 410.76 330.12" fill="#ea8738"/><polygon points="412.74 330.12 369.66 369.7 369.66 367.88 410.76 330.12 412.74 330.12" fill="#eb8638"/><polygon points="414.72 330.12 369.65 371.51 369.65 369.7 412.74 330.12 414.72 330.12" fill="#ea8538"/><polygon points="416.7 330.12 369.66 373.33 369.66 371.51 414.72 330.12 416.7 330.12" fill="#e88438"/><polygon points="418.68 330.12 369.65 375.15 369.65 373.33 416.7 330.12 418.68 330.12" fill="#e78338"/><polygon points="420.65 330.12 369.66 376.97 369.66 375.15 418.68 330.12 420.65 330.12" fill="#e88238"/><polygon points="422.63 330.12 369.65 378.79 369.65 376.97 420.65 330.12 422.63 330.12" fill="#e78139"/><polygon points="424.61 330.12 369.66 380.61 369.66 378.79 422.63 330.12 424.61 330.12" fill="#e68039"/><polygon points="426.59 330.12 369.65 382.42 369.65 380.61 424.61 330.12 426.59 330.12" fill="#e58039"/><polygon points="428.57 330.12 369.66 384.24 369.66 382.42 426.59 330.12 428.57 330.12" fill="#e57f39"/><polygon points="430.55 330.12 369.65 386.06 369.65 384.24 428.57 330.12 430.55 330.12" fill="#e47e38"/><polygon points="432.53 330.12 369.66 387.88 369.66 386.06 430.55 330.12 432.53 330.12" fill="#e37d38"/><polygon points="434.51 330.12 369.65 389.7 369.65 387.88 432.53 330.12 434.51 330.12" fill="#e27c38"/><polygon points="436.49 330.12 369.66 391.51 369.66 389.7 434.51 330.12 436.49 330.12" fill="#e27b38"/><polygon points="438.47 330.12 369.65 393.33 369.65 391.51 436.49 330.12 438.47 330.12" fill="#e17a38"/><polygon points="440.45 330.12 369.66 395.15 369.66 393.33 438.47 330.12 440.45 330.12" fill="#e07938"/><polygon points="442.43 330.12 369.65 396.97 369.65 395.15 440.45 330.12 442.43 330.12" fill="#df7739"/><polygon points="444.4 330.12 369.66 398.79 369.66 396.97 442.43 330.12 444.4 330.12" fill="#df7639"/><polygon points="446.38 330.12 369.65 400.61 369.65 398.79 444.4 330.12 446.38 330.12" fill="#de7539"/><polygon points="448.36 330.12 369.66 402.42 369.66 400.61 446.38 330.12 448.36 330.12" fill="#dd7439"/><polygon points="450.34 330.12 369.65 404.24 369.65 402.42 448.36 330.12 450.34 330.12" fill="#dc7339"/><polygon points="452.32 330.12 369.66 406.06 369.66 404.24 450.34 330.12 452.32 330.12" fill="#dc7239"/><polygon points="454.3 330.12 369.65 407.88 369.65 406.06 452.32 330.12 454.3 330.12" fill="#db7139"/><polygon points="456.28 330.12 369.66 409.7 369.66 407.88 454.3 330.12 456.28 330.12" fill="#da7039"/><polygon points="457.25 331.45 369.66 411.92 369.66 409.7 456.28 330.12 457.25 330.12 457.25 331.45" fill="#da7039"/><polygon points="457.25 333.67 369.66 414.14 369.66 411.92 457.25 331.45 457.25 333.67" fill="#d96e38"/><polygon points="457.25 335.89 369.66 416.36 369.66 414.13 457.25 333.67 457.25 335.89" fill="#d86d37"/><polygon points="457.25 338.11 369.66 418.57 369.66 416.36 457.25 335.89 457.25 338.11" fill="#d96c36"/><polygon points="457.25 340.33 369.66 420.79 369.66 418.57 457.25 338.11 457.25 340.33" fill="#d86a35"/><polygon points="457.25 342.55 369.66 423.01 369.66 420.79 457.25 340.33 457.25 342.55" fill="#d76933"/><polygon points="457.25 344.77 369.66 425.23 369.66 423.01 457.25 342.55 457.25 344.77" fill="#d66831"/><polygon points="457.25 346.99 369.66 427.45 369.66 425.23 457.25 344.77 457.25 346.99" fill="#d66730"/><polygon points="457.25 349.21 369.66 429.67 369.66 427.45 457.25 346.99 457.25 349.21" fill="#d5662f"/><polygon points="457.25 351.43 369.66 431.89 369.66 429.67 457.25 349.21 457.25 351.43" fill="#d4652e"/><polygon points="457.25 353.64 369.66 434.11 369.66 431.89 457.25 351.43 457.25 353.64" fill="#d3642d"/><polygon points="457.25 355.87 369.66 436.33 369.66 434.11 457.25 353.64 457.25 355.87" fill="#d3622c"/><polygon points="457.25 358.08 369.66 438.55 369.66 436.33 457.25 355.87 457.25 358.08" fill="#d2612b"/><polygon points="457.25 360.3 369.66 440.77 369.66 438.55 457.25 358.08 457.25 360.3" fill="#d1602a"/><polygon points="457.25 362.52 369.66 442.99 369.66 440.77 457.25 360.3 457.25 362.52" fill="#d05f28"/><polygon points="457.25 364.74 369.66 445.21 369.66 442.99 457.25 362.52 457.25 364.74" fill="#d05e27"/><polygon points="457.25 366.96 369.66 447.43 369.66 445.21 457.25 364.74 457.25 366.96" fill="#cf5d26"/><polygon points="457.25 369.18 369.66 449.65 369.66 447.43 457.25 366.96 457.25 369.18" fill="#ce5c24"/><polygon points="457.25 371.4 369.66 451.87 369.66 449.65 457.25 369.18 457.25 371.4" fill="#cd5b22"/><polygon points="457.25 373.62 369.66 454.09 369.66 451.87 457.25 371.4 457.25 373.62" fill="#cd5a21"/><polygon points="457.25 375.84 369.66 456.31 369.66 454.09 457.25 373.62 457.25 375.84" fill="#cc5720"/><polygon points="457.25 378.06 369.66 458.52 369.66 456.31 457.25 375.84 457.25 378.06" fill="#cb561f"/><polygon points="457.25 380.28 369.66 460.74 369.66 458.52 457.25 378.06 457.25 380.28" fill="#cb551e"/><polygon points="457.25 382.5 369.66 462.96 369.66 460.74 457.25 380.28 457.25 382.5" fill="#ca541d"/><polygon points="457.25 384.72 369.66 465.18 369.66 462.96 457.25 382.5 457.25 384.72" fill="#c9531b"/><polygon points="457.25 386.94 369.66 467.4 369.66 465.18 457.25 384.72 457.25 386.94" fill="#c8521a"/><polygon points="457.25 389.16 369.66 469.62 369.66 467.4 457.25 386.94 457.25 389.16" fill="#c85119"/><polygon points="457.25 391.38 369.66 471.84 369.66 469.62 457.25 389.16 457.25 391.38" fill="#c75018"/><polygon points="457.25 393.6 369.66 474.06 369.66 471.84 457.25 391.38 457.25 393.6" fill="#c64f16"/><polygon points="457.25 395.81 369.66 476.28 369.66 474.06 457.25 393.6 457.25 395.81" fill="#c64e15"/><polygon points="457.25 398.04 369.66 478.5 369.66 476.28 457.25 395.81 457.25 398.04" fill="#c54d14"/><polygon points="457.25 400.25 369.66 480.72 369.66 478.5 457.25 398.04 457.25 400.25" fill="#c44c13"/><polygon points="457.25 402.47 369.66 482.94 369.66 480.72 457.25 400.25 457.25 402.47" fill="#c44b11"/><polygon points="457.25 404.69 369.66 485.16 369.66 482.94 457.25 402.47 457.25 404.69" fill="#c34a10"/><polygon points="457.25 406.91 369.66 487.38 369.66 485.16 457.25 404.69 457.25 406.91" fill="#c2490f"/><polygon points="457.25 409.13 369.66 489.6 369.66 487.38 457.25 406.91 457.25 409.13" fill="#c2470d"/><polygon points="457.25 411.35 369.66 491.82 369.66 489.6 457.25 409.13 457.25 411.35" fill="#c1460c"/><polygon points="457.25 413.57 369.66 494.04 369.66 491.82 457.25 411.35 457.25 413.57" fill="#c0450b"/><polygon points="457.25 415.79 369.66 496.26 369.66 494.04 457.25 413.57 457.25 415.79" fill="#c0440b"/><polygon points="457.25 418.01 369.66 498.48 369.66 496.26 457.25 415.79 457.25 418.01" fill="#bf4309"/><polygon points="457.25 420.23 369.66 500.69 369.66 498.48 457.25 418.01 457.25 420.23" fill="#be4208"/><polygon points="457.25 422.45 369.66 502.91 369.66 500.69 457.25 420.23 457.25 422.45" fill="#be4107"/><polygon points="457.25 424.67 369.66 505.13 369.66 502.91 457.25 422.45 457.25 424.67" fill="#bd4005"/><polygon points="457.25 426.89 369.66 507.35 369.66 505.13 457.25 424.67 457.25 426.89" fill="#bd3f04"/><polygon points="457.25 429.11 369.66 509.57 369.66 507.35 457.25 426.89 457.25 429.11" fill="#bc3f03"/><polygon points="457.25 431.33 369.66 511.79 369.66 509.57 457.25 429.11 457.25 431.33" fill="#bb3e03"/><polygon points="457.25 433.55 369.66 514.01 369.66 511.79 457.25 431.33 457.25 433.55" fill="#bb3d02"/><polygon points="457.25 435.76 369.66 516.23 369.66 514.01 457.25 433.55 457.25 435.76" fill="#ba3c01"/><polygon points="457.25 437.99 369.66 518.45 369.66 516.23 457.25 435.76 457.25 437.99" fill="#ba3b01"/><polygon points="457.25 440.2 369.66 520.67 369.66 518.45 457.25 437.99 457.25 440.2" fill="#b93b01"/><polygon points="457.25 442.42 369.66 522.89 369.66 520.67 457.25 440.2 457.25 442.42" fill="#b93900"/><polygon points="384.07 541.59 369.66 525.9 369.66 522.89 457.25 442.43 457.25 541.59 384.07 541.59" fill="#b93900"/></g><g clip-path="url(#x)"><rect x="391.92" y="190.9" width="34.36" height="25.12" transform="translate(122.29 581.37) rotate(-71.78)" fill="url(#y)"/></g><g clip-path="url(#z)"><rect x="362.73" y="109.98" width="117.21" height="112.64" transform="translate(11.3 306.91) rotate(-32.7)" fill="url(#aa)"/></g><g clip-path="url(#ab)"><rect x="161.05" y="-28.9" width="129.55" height="137.05" transform="translate(96.44 253.05) rotate(-54.38)" fill="url(#ac)"/></g><g clip-path="url(#g)"><path d="M203.8,13.55c-4.87,5.4-12,9-18.62,11.53L190,36.94a62.19,62.19,0,0,0,10.36-4.3V71.92h14.61V12.71H204.57Z" transform="translate(34.36 52.94)" fill="#fff"/><path d="M261.44,38.86c-3.62-3.06-8.93-5-15.82-5.66.22-2.14.4-5.17.56-7.36h19.73V12.71H233.25c-.48,11.16-1.15,21.65-2.53,32.93,6.76,0,13.92-.14,19.15,2.49,4.7,2.29,4.3,9.95-1.1,11-6.18,1.65-13.42-.37-18.52-3.16L227.3,69.1c12.22,6,33,6.6,39.13-7.85,3-7.47,1.28-17.49-5-22.39" transform="translate(34.36 52.94)" fill="#fff"/><path d="M412.56,142.88a23.1,23.1,0,0,1-6.6,2.72,43,43,0,0,1-8.64,1.08l.65,10a49.51,49.51,0,0,0,6.73-.34L397,179.84l10.69,3.52,12.51-38Z" transform="translate(34.36 52.94)" fill="#fff"/><path d="M448.41,160c-2.2-8.89-13.89-12.7-20.93-6.86-7.33,5.68-11.73,20.28-9.37,28.37,2.24,8.86,13.82,12.74,20.95,6.89,6.67-4.61,12-20.73,9.35-28.4m-10.85,7.17c-.65,3-4.08,16.39-8.43,12.72-1.62-5.52,1.67-13,4.63-17.63,3.7-4.18,4.8,1.76,3.8,4.91" transform="translate(34.36 52.94)" fill="#fff"/><path d="M50.51,161c-3.14-1.26-6.95-1.43-11.58-.5-.23-1-.67-2.66-.92-3.66l13.29-4.38-3.37-10.25-23.34,7.68c2.29,8.06,4.29,15.81,5.93,24.15,4.57-1.46,9.69-3.42,13.84-2.81,4.92,1.41,3.32,6.67-1.27,7.55-3.94,1.43-7.38,1-10.87.47l1.06,11c10.13,1.69,25-2.79,26-14.53.4-6-3.17-12.66-8.76-14.68" transform="translate(34.36 52.94)" fill="#fff"/></g></svg>