<svg xmlns="http://www.w3.org/2000/svg" xmlns:xlink="http://www.w3.org/1999/xlink" width="40.85" height="57.51" viewBox="0 0 40.85 57.51"><defs><clipPath id="a" transform="translate(10.12 1.82)"><path d="M9,.53C7.72.74,6.87,2.33,7.06,4.07S8.41,7,9.64,6.82,11.72,5,11.53,3.28,10.36.5,9.23.5L9,.53" fill="none"/></clipPath><linearGradient id="b" y1="50.22" x2="1" y2="50.22" gradientTransform="matrix(0, 53.11, 53.11, 0, -2657.93, -11.12)" gradientUnits="userSpaceOnUse"><stop offset="0" stop-color="#ffc330"/><stop offset="0.36" stop-color="#e99135"/><stop offset="0.57" stop-color="#da7039"/><stop offset="0.83" stop-color="#c54c14"/><stop offset="1" stop-color="#b93900"/></linearGradient><clipPath id="c" transform="translate(10.12 1.82)"><rect width="23.22" height="50.22" fill="none"/></clipPath><clipPath id="d" transform="translate(10.12 1.82)"><path d="M.53,15A7.81,7.81,0,0,0,0,17.91V18a8.62,8.62,0,0,0,5.05,8c-1.72-2.64-2.5-6.44-.93-9.25a4.73,4.73,0,0,1,.32-.46l-1.2-2.39-.18-.35.27-.27.61-.64L2.73,12a7,7,0,0,0-2.2,3" fill="none"/></clipPath><linearGradient id="e" y1="50.22" y2="50.22" gradientTransform="matrix(5.38, 0, 0, -5.38, 10.03, 291.21)" xlink:href="#b"/><clipPath id="f" transform="translate(10.12 1.82)"><path d="M19.05,6.3l.14.08a4.65,4.65,0,0,1,.56.34,4.35,4.35,0,0,1,.91.85,3.27,3.27,0,0,1,.54,1,2.17,2.17,0,0,1,.08,1,2,2,0,0,1-.35.84,3.22,3.22,0,0,1-1.63,1.08,8.08,8.08,0,0,1-2.3.39c-.28,0-.56,0-.84,0h0l-.12,0-1.39.65.61.64.27.27-.18.35-.73,1.46A16.47,16.47,0,0,0,17.39,15a11,11,0,0,0,1.55-.39A9.64,9.64,0,0,0,20.46,14a6.23,6.23,0,0,0,.72-.46,5.27,5.27,0,0,0,.68-.57,4.65,4.65,0,0,0,1.05-1.52,3.86,3.86,0,0,0,.3-1.86,4,4,0,0,0-.56-1.69,4.56,4.56,0,0,0-1.13-1.22,4.93,4.93,0,0,0-1.38-.72,4.64,4.64,0,0,0-.73-.2,4.55,4.55,0,0,0-.73-.09l-.36,0Z" fill="none"/></clipPath><linearGradient id="g" y1="50.22" y2="50.22" gradientTransform="matrix(9.17, 0, 0, -9.17, 24.58, 472.91)" xlink:href="#b"/><clipPath id="h" transform="translate(10.12 1.82)"><path d="M9.3,18.78a.73.73,0,0,1-.55-.25l.55,3.61.55-3.61a.75.75,0,0,1-.55.25" fill="none"/></clipPath><linearGradient id="i" y1="50.18" y2="50.18" gradientTransform="matrix(0, 4.68, 4.68, 0, -225.71, 16.92)" xlink:href="#b"/><clipPath id="j" transform="translate(10.12 1.82)"><path d="M7.82,12l.31,2.45.5,3.27a.73.73,0,0,1,.5-.42.73.73,0,0,1-.57-.71.75.75,0,0,1,.57-.72.73.73,0,0,1,0-1.42.75.75,0,0,1-.57-.72.73.73,0,0,1,.57-.71.75.75,0,0,1-.57-.72.74.74,0,0,1,.57-.71.75.75,0,0,1-.57-.71.74.74,0,1,1,.9.71.73.73,0,0,1,.57.71.74.74,0,0,1-.57.72.72.72,0,0,1,.57.71.74.74,0,0,1-.57.72.73.73,0,0,1,0,1.42.74.74,0,0,1,.57.72.72.72,0,0,1-.57.71.74.74,0,0,1,.51.42L10.84,12c-.26-1.39-.9-2.06-1.52-2.06S8,10.64,7.82,12" fill="none"/></clipPath><linearGradient id="k" y1="50.23" y2="50.23" gradientTransform="matrix(0, 9.96, 9.96, 0, -491.03, 7.02)" xlink:href="#b"/><clipPath id="l" transform="translate(10.12 1.82)"><path d="M10,24.46,9.73,25l-.43.87L8.86,25l-.28-.55-2.51-5C4.58,28,4.75,37.74,5.11,50.22,6.26,37.06,8.53,31,9.3,26.21c1.63,6.65,3.18,12.28,6.72,24-.16-.73-1.33-18.4-3.5-30.74Z" fill="none"/></clipPath><linearGradient id="m" y1="50.25" y2="50.25" gradientTransform="matrix(0, 44.45, 44.45, 0, -2223.15, 4.46)" xlink:href="#b"/><clipPath id="n" transform="translate(10.12 1.82)"><path d="M9.09,7.93v.32a.29.29,0,0,0,.58,0V7.93a.29.29,0,0,0-.58,0" fill="none"/></clipPath><linearGradient id="o" y1="50.22" x2="1" y2="50.22" gradientTransform="matrix(0, 4.32, 4.32, 0, -207.82, 5.45)" gradientUnits="userSpaceOnUse"><stop offset="0" stop-color="#daf1ef"/><stop offset="0.1" stop-color="#daf1ef"/><stop offset="0.58" stop-color="#00b4f2"/><stop offset="0.64" stop-color="#0dacf2"/><stop offset="0.76" stop-color="#3196f2"/><stop offset="0.91" stop-color="#6973f3"/><stop offset="0.99" stop-color="#8760f3"/><stop offset="1" stop-color="#8760f3"/></linearGradient><clipPath id="p" transform="translate(10.12 1.82)"><path d="M11.48,6.88l-1.4.62a.43.43,0,0,0-.2.36v.46a.43.43,0,0,0,.2.36l1.4.61a.09.09,0,0,0,.13-.08V7a.1.1,0,0,0-.09-.09h0" fill="none"/></clipPath><linearGradient id="q" y1="50.16" x2="1" y2="50.16" gradientTransform="matrix(0, 4.7, 4.7, 0, -225.04, 4.13)" xlink:href="#o"/><clipPath id="r" transform="translate(10.12 1.82)"><path d="M7.15,7V9.21a.09.09,0,0,0,.13.08l1.4-.61a.43.43,0,0,0,.2-.36V7.86a.43.43,0,0,0-.2-.36l-1.4-.62h0A.09.09,0,0,0,7.15,7" fill="none"/></clipPath><linearGradient id="s" y1="50.28" x2="1" y2="50.28" gradientTransform="matrix(0, 4.7, 4.7, 0, -228.35, 6.32)" xlink:href="#o"/><clipPath id="t" transform="translate(10.12 1.82)"><path d="M14.16,4.91a1.2,1.2,0,0,0,1.18,1.22h.17L19,7.9a.28.28,0,0,0,.13,0,.28.28,0,0,0,.22-.1.31.31,0,0,0,0-.43L16.52,4.81a1.18,1.18,0,0,0-2.36.1" fill="none"/></clipPath><linearGradient id="u" y1="50.22" x2="1" y2="50.22" gradientTransform="matrix(5.23, 0, 0, -5.23, 24.28, 270.22)" xlink:href="#o"/><clipPath id="v" transform="translate(10.12 1.82)"><polygon points="2.78 11.45 3.23 11.66 4.86 12.41 3.72 13.6 4.84 15.83 6.24 18.6 9 24.09 9.02 23.94 7.6 14.57 7.45 13.61 6.93 10.18 6.54 7.61 2.78 11.45" fill="none"/></clipPath><linearGradient id="w" y1="50.26" x2="1" y2="50.26" gradientTransform="matrix(0, -8.48, -8.48, 0, 431.98, 20.44)" xlink:href="#o"/><clipPath id="x" transform="translate(10.12 1.82)"><polygon points="11.2 13.23 9.57 23.94 9.59 24.09 12.36 18.58 14.01 15.31 14.87 13.6 13.73 12.41 15.01 11.82 15.81 11.45 12.06 7.61 11.2 13.23" fill="none"/></clipPath><linearGradient id="y" y1="50.14" x2="1" y2="50.14" gradientTransform="matrix(0, -4.41, -4.41, 0, 233.72, 18.09)" xlink:href="#o"/><clipPath id="z" transform="translate(10.12 1.82)"><path d="M8.83,18.05a.47.47,0,1,0,.47-.47.47.47,0,0,0-.47.47" fill="none"/></clipPath><linearGradient id="aa" y1="50.22" x2="1" y2="50.22" gradientTransform="matrix(0.93, 0, 0, -0.93, 18.96, 66.33)" xlink:href="#o"/><clipPath id="ab" transform="translate(10.12 1.82)"><path d="M8.83,16.62a.47.47,0,0,0,.93,0,.47.47,0,0,0-.93,0" fill="none"/></clipPath><linearGradient id="ac" y1="50.22" x2="1" y2="50.22" gradientTransform="matrix(0.93, 0, 0, -0.93, 18.96, 64.9)" xlink:href="#o"/><clipPath id="ad" transform="translate(10.12 1.82)"><path d="M8.83,15.19a.47.47,0,1,0,.47-.46.47.47,0,0,0-.47.46" fill="none"/></clipPath><linearGradient id="ae" y1="50.22" x2="1" y2="50.22" gradientTransform="matrix(0.93, 0, 0, -0.93, 18.96, 63.47)" xlink:href="#o"/><clipPath id="af" transform="translate(10.12 1.82)"><path d="M8.83,13.76a.47.47,0,1,0,.47-.46.47.47,0,0,0-.47.46" fill="none"/></clipPath><linearGradient id="ag" y1="50.22" x2="1" y2="50.22" gradientTransform="matrix(0.93, 0, 0, -0.93, 18.96, 62.04)" xlink:href="#o"/><clipPath id="ah" transform="translate(10.12 1.82)"><path d="M8.83,12.33a.47.47,0,1,0,.47-.46.47.47,0,0,0-.47.46" fill="none"/></clipPath><linearGradient id="ai" y1="50.22" x2="1" y2="50.22" gradientTransform="matrix(0.93, 0, 0, -0.93, 18.96, 60.61)" xlink:href="#o"/><clipPath id="aj" transform="translate(10.12 1.82)"><path d="M8.83,10.91a.47.47,0,1,0,.47-.47.47.47,0,0,0-.47.47" fill="none"/></clipPath><linearGradient id="ak" y1="50.22" x2="1" y2="50.22" gradientTransform="matrix(0.93, 0, 0, -0.93, 18.96, 59.18)" xlink:href="#o"/></defs><g clip-path="url(#a)"><rect x="5.4" y="-0.3" width="7.79" height="8.14" transform="translate(9.7 8.09) rotate(-36.51)" fill="url(#b)"/></g><g clip-path="url(#c)"><path d="M7.06,4.07c.19,1.74,1.35,3,2.58,2.75S11.72,5,11.53,3.28,10.18.31,9,.53,6.87,2.33,7.06,4.07Z" transform="translate(10.12 1.82)" fill="none" stroke="#fff" stroke-miterlimit="10"/></g><g clip-path="url(#d)"><rect x="10.12" y="13.84" width="5.05" height="13.92" fill="url(#e)"/></g><g clip-path="url(#f)"><rect x="24.74" y="7.44" width="8.65" height="9.68" fill="url(#g)"/></g><g clip-path="url(#h)"><rect x="7.78" y="18.56" width="3.03" height="3.55" transform="translate(-0.15 11.34) rotate(-36.51)" fill="url(#i)"/></g><g clip-path="url(#j)"><rect x="5.79" y="9.79" width="7.09" height="8.09" transform="matrix(0.8, -0.59, 0.59, 0.8, 3.72, 10.08)" fill="url(#k)"/></g><g clip-path="url(#l)"><rect x="-3.44" y="19.09" width="27.49" height="31.52" transform="translate(-8.59 14.78) rotate(-36.51)" fill="url(#m)"/></g><g clip-path="url(#n)"><rect x="8.85" y="7.59" width="1.06" height="0.99" transform="translate(7.41 12.58) rotate(-53.23)" fill="url(#o)"/></g><g clip-path="url(#p)"><rect x="9.25" y="6.67" width="3" height="2.85" transform="matrix(0.6, -0.8, 0.8, 0.6, 7.95, 13.67)" fill="url(#q)"/></g><g clip-path="url(#r)"><rect x="6.51" y="6.67" width="3" height="2.85" transform="translate(6.85 11.49) rotate(-53.23)" fill="url(#s)"/></g><g clip-path="url(#t)"><rect x="24.28" y="5.51" width="5.26" height="4.24" fill="url(#u)"/></g><g clip-path="url(#v)"><rect x="-2.78" y="11.24" width="17.36" height="9.22" transform="translate(-0.65 20.49) rotate(-79.19)" fill="url(#w)"/></g><g clip-path="url(#x)"><rect x="4.01" y="11.24" width="17.36" height="9.22" transform="translate(4.87 27.16) rotate(-79.19)" fill="url(#y)"/></g><g clip-path="url(#z)"><rect x="18.96" y="19.4" width="0.93" height="0.93" fill="url(#aa)"/></g><g clip-path="url(#ab)"><rect x="18.96" y="17.97" width="0.93" height="0.93" fill="url(#ac)"/></g><g clip-path="url(#ad)"><rect x="18.96" y="16.55" width="0.93" height="0.92" fill="url(#ae)"/></g><g clip-path="url(#af)"><rect x="18.96" y="15.12" width="0.93" height="0.92" fill="url(#ag)"/></g><g clip-path="url(#ah)"><rect x="18.96" y="13.69" width="0.93" height="0.93" fill="url(#ai)"/></g><g clip-path="url(#aj)"><rect x="18.96" y="12.26" width="0.93" height="0.92" fill="url(#ak)"/></g></svg>