<svg xmlns="http://www.w3.org/2000/svg" xmlns:xlink="http://www.w3.org/1999/xlink" viewBox="0 0 479.85 142.8"><defs><clipPath id="a" transform="translate(0 0)"><rect width="479.85" height="142.8" fill="none"/></clipPath></defs><g clip-path="url(#a)"><path d="M354.26,51.94,348,46l-1.65,7.15c3.39,0,9.39.5,9.39-4.38,0-3.72-5.32-2.77-7.74-2.77m33.75,4.8c-2.83,5.28-3.64,17.42,5.71,15,9.16-2.34,12.27-23.13.56-20.3a10.14,10.14,0,0,0-6.27,5.28m79.33-4.71-1.89,8.17c2.62,0,5.47.1,7.56-1.43,2.45-1.78,3.63-6.74-2.9-6.74Zm14.55-6c7.95,4.94,5.55,22.37-15.78,22.37h-2.55l-2.53,11H444.17L452.37,38c6,0,18.13-1.07,23.29,2.15m-34.54,20c0-1.31,4.37-18.92,5.12-22.17H435.58c-1,4.29-4.63,22-6.05,24.73-2.11,4.1-9.93,4.58-9.93-.27,0-2.85,4.54-20.61,5.43-24.46H414.36c-1.07,4.62-5.15,20.36-5.47,24.57-.69,8.9,6.59,11.61,14.35,11.61,10,0,15.58-4.32,17.88-14m-34.54-8.73c0,24.66-30.74,29.27-36.67,14.37-4.33-10.9,3.66-28.51,21.06-28.51,8.83,0,15.61,4.91,15.61,14.14m-43.4-11.21c6.69,4.14,4.66,14.87-4.94,18.61l8,14.65H354.41l-6.32-12.35h-3.55L341.7,73.44H331.12L339.31,38c7,0,18.43-1.16,23.87,2.23m-33.69,14,.27-1.14H312.33l-1.89,8.25h6.68L316,66c-5.41.27-9.86-.72-9.86-6.89,0-11.11,10.41-17.64,19.19-11.5,3,2.12,1.47,2.35,4.87,2.35l2.26-9.31c-9.67-5.06-22.66-5-30.76,3-5.37,5.27-8.53,15.11-5.45,22.41,4.71,11.18,20.13,8.39,29.25,5.22Z" transform="translate(0 0)" fill="#c9c9c9" fill-rule="evenodd"/><path d="M248.51,13.2c-4.92-3.67-11.94-8.2-21.84-9.49C240,12.85,241.32,33.79,230,50.3,227.07,21.45,190.83-5.17,163.33.86c36.23,14.57,50.56,68.4,18,112.91,19.46-12.71,50.1-35.81,66-58.07,8.44-11.86,16.55-31,1.18-42.5m11.15,5.05c49.18,28-21.74,72.44-26.82,77.61,17.44-4.17,33.13-23.52,62.59-8.31-28.16,5.68-82.49,30.76-108.5,25.83,20.88-11.91,56.88-40.91,68.34-61.4,6.32-9.45,8.74-27.89,4.39-33.73" transform="translate(0 0)" fill="#c9c9c9" fill-rule="evenodd"/><path d="M22.45,50.45m.89-1c2-4-4.4-3.3-6.41-3.3l-1.2,5.22c2.3,0,6.38.55,7.61-1.92M20.19,59.2A37.7,37.7,0,0,0,14,59l-1.51,6.51c3.12,0,10.16.7,10.16-3.94a2.54,2.54,0,0,0-.24-1.17h0a2.77,2.77,0,0,0-2.19-1.21M162,58.64l-1.59,6.88c3.33,0,11,.66,10.06-5-.45-2.69-6.91-1.84-8.47-1.84m12.52-7.46C187,54.3,182,72,168.06,73.43c-5.18.54-14.54.15-20.18.15l8.19-35.49h10.62L163.8,50.63c3.37,0,7.51-.24,10.67.55M108,73.72c15.3,1.12,17.74-14.64,21.25-27.38h7.69l-6.27,27.24h10.62l8.18-35.49H121c-1.33,5.72-2.73,11.86-4.47,17.41-2.85,9.14-4.17,8.73-9.1,8.73l-2.13,9.21ZM93.21,37.4c22.29,0,19,28.65,1.64,35.31-7.08,2.72-15,1.63-21.71-1.43l2.07-9h2c5.6,6.5,16.54,4.87,19.65-3.22h-15L83.68,51H98.2c-.53-8.27-11.47-6.34-17.71-1.65-.61.46-1.92.19-2.67.19l2.1-9.3A33.62,33.62,0,0,1,93.21,37.4m-17.4,1.83.26-1.14H65.19l-15.54,18,4.18-18H43.42L35.23,73.58h9.86l17-20-4.67,20H67.88ZM29.67,55c6.91,3.79,5.43,18.54-13.93,18.54H0L8.19,38.09c5.23,0,13.67-.53,18.56.52,9.93,2.14,10.35,12.62,2.5,16.21Z" transform="translate(0 0)" fill="#c9c9c9" fill-rule="evenodd"/><path d="M229.21,120.66c-25.51,9-42,6.18-47.39-1.4,5.37,7.58,23.64,15,48.58,4.06,19.88-8.68,39.72-13.94,63.39-22-23.22,5.48-43.72,12.07-64.58,19.38M331.72,82.77l.42.75L298.07,99.18a18.75,18.75,0,0,1-5.54,12.88C281.76,123,279.18,120.41,273.78,138c-9.72-8.6-35.23-3.28-54.11-.52-17.1,2.51-32.5-2.48-42.3-9.61l.06.6c9.61,7.49,24.6,12.9,41.33,11.28,18.27-1.76,48.9-8.8,53.82,1.79-11.65-7.06-45.08.42-55,1.1-17.94,1.22-33-4.63-42.28-13.09-.93-6.69-1.06-12.83-2-19.52,10.46,15,52,3.9,69.66-2.2C275.15,96.76,312.45,88,331.72,82.77" transform="translate(0 0)" fill="#c9c9c9" fill-rule="evenodd"/></g></svg>