<svg width="0" height="0" class="hidden">
  <symbol xmlns="http://www.w3.org/2000/svg" viewBox="0 0 21.98 11.7" id="ic_arr_ver">
    <polygon points="21.27 0 10.99 10.28 0.71 0 0 0.71 10.28 10.99 10.99 11.7 11.7 10.99 21.98 0.71 21.27 0" fill="currentColor"></polygon>
  </symbol>
  <symbol xmlns="http://www.w3.org/2000/svg" viewBox="0 0 35.99 29.05" id="ic_arrow_hor">
    <rect x="6.05" y="14.03" width="29.93" height="1" fill="currentColor"></rect>
    <rect x="-2.65" y="7.12" width="20.54" height="1" transform="translate(-3.15 7.62) rotate(-45)" fill="currentColor"></rect>
    <rect x="7.12" y="11.16" width="1" height="20.54" transform="translate(-12.93 11.66) rotate(-45)" fill="currentColor"></rect>
  </symbol>
  <symbol xmlns="http://www.w3.org/2000/svg" xmlns:xlink="http://www.w3.org/1999/xlink" viewBox="0 0 16 16" id="ic_calendar">
    <path d="M3.5,6a.5.5,0,1,1-.5.5A.5.5,0,0,1,3.5,6m3,0a.5.5,0,1,0,.5.5A.5.5,0,0,0,6.5,6m3,0a.5.5,0,1,0,.5.5A.5.5,0,0,0,9.5,6m3,0a.5.5,0,1,0,.5.5.5.5,0,0,0-.5-.5m-9,3a.5.5,0,1,0,.5.5A.5.5,0,0,0,3.5,9m3,0a.5.5,0,1,0,.5.5A.5.5,0,0,0,6.5,9m3,0a.5.5,0,1,0,.5.5A.5.5,0,0,0,9.5,9m3,0a.5.5,0,1,0,.5.5.5.5,0,0,0-.5-.5m-9,3a.5.5,0,1,0,.5.5.5.5,0,0,0-.5-.5m3,0a.5.5,0,1,0,.5.5.5.5,0,0,0-.5-.5m3,0a.5.5,0,1,0,.5.5.5.5,0,0,0-.5-.5m3,0a.5.5,0,1,0,.5.5.5.5,0,0,0-.5-.5M15,2H14V3h1V15H1V3H2V2H1A1,1,0,0,0,0,3V15a1,1,0,0,0,1,1H15a1,1,0,0,0,1-1V3a1,1,0,0,0-1-1M11,2H5V3h6ZM4,4.5V.5a.5.5,0,0,0-1,0v4a.5.5,0,0,0,1,0m9,0V.5a.5.5,0,0,0-1,0v4a.5.5,0,0,0,1,0" fill="currentColor"></path>
  </symbol>
  <symbol xmlns="http://www.w3.org/2000/svg" viewBox="0 0 12.67 9.48" id="ic_check">
    <polygon points="10.87 0 4.99 5.89 1.8 2.7 0 4.5 4.09 8.59 4.99 9.48 5.89 8.59 12.67 1.8 10.87 0" fill="currentColor"></polygon>
  </symbol>
  <symbol xmlns="http://www.w3.org/2000/svg" viewBox="0 0 18.77 18.77" id="ic_close">
    <rect x="-3.39" y="8.89" width="25.54" height="1" transform="translate(-3.89 9.39) rotate(-45.04)" fill="currentColor"></rect>
    <rect x="8.88" y="-3.39" width="1" height="25.54" transform="translate(-3.89 9.38) rotate(-45)" fill="currentColor"></rect>
  </symbol>
  <symbol xmlns="http://www.w3.org/2000/svg" xmlns:xlink="http://www.w3.org/1999/xlink" viewBox="0 0 30 24.9" id="ic_email">
    <defs>
      <clipPath id="a" transform="translate(0 0)">
        <rect width="30" height="24.9" fill="none"></rect>
      </clipPath>
    </defs>
    <g clip-path="url(#a)">
      <path d="M29.28.72A2.37,2.37,0,0,0,27.54,0H2.46A2.37,2.37,0,0,0,.72.72,2.37,2.37,0,0,0,0,2.46v20a2.37,2.37,0,0,0,.72,1.74,2.37,2.37,0,0,0,1.74.72H27.54A2.46,2.46,0,0,0,30,22.44v-20A2.37,2.37,0,0,0,29.28.72M7.62,2H26.53L15.86,12.64H14.12L3.45,2H7.62Zm14.76,21H3.62l6.87-6.87a1,1,0,0,0,0-1.46,1,1,0,0,0-.73-.3,1,1,0,0,0-.73.3L2,21.67V3.4L12.9,14.34a1,1,0,0,0,.83.28l.11,0h2.33l.09,0,.08,0a1,1,0,0,0,.73-.3l11-11V21.48l-6.87-6.87a1,1,0,0,0-1.46,0,1,1,0,0,0-.3.73,1,1,0,0,0,.3.73l6.87,6.87H22.38Z" transform="translate(0 0)" fill="currentColor"></path>
    </g>
  </symbol>
  <symbol xmlns="http://www.w3.org/2000/svg" xmlns:xlink="http://www.w3.org/1999/xlink" viewBox="0 0 16.17 13.42" id="ic_email2">
    <path d="M15.78.39A1.28,1.28,0,0,0,14.84,0H1.32A1.27,1.27,0,0,0,.39.39,1.28,1.28,0,0,0,0,1.33V12.1A1.27,1.27,0,0,0,.39,13a1.27,1.27,0,0,0,.93.39H14.84a1.33,1.33,0,0,0,1.33-1.32V1.33a1.28,1.28,0,0,0-.39-.94M5.66,8.65,2,12.35a.53.53,0,0,1-.77,0,.54.54,0,0,1,0-.78l3.7-3.7a.54.54,0,0,1,.78,0,.56.56,0,0,1,0,.78M15,12.35a.54.54,0,0,1-.78,0l-3.7-3.7a.56.56,0,0,1,0-.78.54.54,0,0,1,.78,0l3.7,3.7a.54.54,0,0,1,0,.78m.17-10.41L9.35,7.75a.54.54,0,0,1-.45.15H7.26a.55.55,0,0,1-.45-.15L1,2a.54.54,0,0,1,0-.78.55.55,0,0,1,.77,0L7.43,6.81H8.74l5.64-5.65a.56.56,0,0,1,.78,0,.54.54,0,0,1,0,.78" transform="translate(0 0)" fill="currentColor"></path>
  </symbol>
  <symbol xmlns="http://www.w3.org/2000/svg" viewBox="0 0 17.9 23.5" id="ic_location">
    <path d="M86.8,115.32a8.33,8.33,0,0,1,2.52.38,7.7,7.7,0,0,1,5,5A8.05,8.05,0,0,1,93.15,128l-6.37,8.18L80.41,128a7.9,7.9,0,0,1-1.58-4.77,7.9,7.9,0,0,1,8-7.94m0-1a9,9,0,0,0-7.19,14.31l7.17,9.18,7.16-9.19a9,9,0,0,0,1.35-8.2,8.73,8.73,0,0,0-5.68-5.68,9.67,9.67,0,0,0-2.81-.42Z" transform="translate(-77.83 -114.32)" fill="currentColor"></path>
    <path d="M86.78,119.44A3.82,3.82,0,1,1,83,123.26a3.83,3.83,0,0,1,3.82-3.82m0-1a4.82,4.82,0,1,0,4.82,4.82,4.82,4.82,0,0,0-4.82-4.82Z" transform="translate(-77.83 -114.32)" fill="currentColor"></path>
  </symbol>
  <symbol xmlns="http://www.w3.org/2000/svg" xmlns:xlink="http://www.w3.org/1999/xlink" viewBox="0 0 16.03 17.01" id="ic_phone">
    <defs>
      <clipPath id="a" transform="translate(0 0)">
        <rect width="16.03" height="17.01" fill="none"></rect>
      </clipPath>
    </defs>
    <g clip-path="url(#a)">
      <path d="M3.23,1h0a.8.8,0,0,1,.59.32L6.08,4.27a.78.78,0,0,1,.19.56A.75.75,0,0,1,6,5.36c-.18.17-.5.52-.69.69a1.73,1.73,0,0,0,0,2.21L8.48,11.7a1.45,1.45,0,0,0,1,.41,1.91,1.91,0,0,0,1.15-.39l.57-.53a.83.83,0,0,1,.51-.18h.05a.73.73,0,0,1,.48.2l2.51,2.33a.78.78,0,0,1,.24.6.83.83,0,0,1-.32.6A5.07,5.07,0,0,1,11.55,16a3.24,3.24,0,0,1-.36,0C7.87,15.81.82,7.94,1,4.59A6.3,6.3,0,0,1,2.58,1.34l0-.06A.78.78,0,0,1,3.23,1m0-1A1.8,1.8,0,0,0,1.86.64L1.81.7A7.15,7.15,0,0,0,0,4.54C-.21,8.38,7.23,16.72,11.1,17l.45,0a6,6,0,0,0,3.78-1.5,1.76,1.76,0,0,0,.7-1.32,1.79,1.79,0,0,0-.54-1.37L13,10.48A1.77,1.77,0,0,0,11.85,10h-.1a1.84,1.84,0,0,0-1.16.42L10,11a1.12,1.12,0,0,1-.48.13A.49.49,0,0,1,9.19,11L6.12,7.62A.79.79,0,0,1,6,6.74l.35-.34.29-.3a1.74,1.74,0,0,0,.59-1.22,1.82,1.82,0,0,0-.4-1.23L4.67.72A1.79,1.79,0,0,0,3.33,0h-.1Z" transform="translate(0 0)" fill="currentColor"></path>
    </g>
  </symbol>
  <symbol xmlns="http://www.w3.org/2000/svg" xmlns:xlink="http://www.w3.org/1999/xlink" viewBox="0 0 17.15 17.15" id="ic_time">
    <path d="M8.58,1A7.58,7.58,0,1,1,1,8.58,7.59,7.59,0,0,1,8.58,1m0-1a8.58,8.58,0,1,0,8.57,8.58A8.58,8.58,0,0,0,8.58,0" transform="translate(0 0)" fill="currentColor"></path>
    <path d="M8.58,2.59a.5.5,0,0,0-.5.5V8.62a.5.5,0,0,0,.5.5.5.5,0,0,0,.5-.5V3.09a.5.5,0,0,0-.5-.5" transform="translate(0 0)" fill="currentColor"></path>
    <path d="M8.58,8.14a.5.5,0,0,0-.36.14.51.51,0,0,0,0,.71l3.92,3.92a.52.52,0,0,0,.35.14.54.54,0,0,0,.36-.14.51.51,0,0,0,0-.71L8.93,8.28a.49.49,0,0,0-.35-.14" transform="translate(0 0)" fill="currentColor"></path>
  </symbol>
  <symbol xmlns="http://www.w3.org/2000/svg" xmlns:xlink="http://www.w3.org/1999/xlink" viewBox="0 0 16.03 17.01" id="ic_phone2">
    <path d="M3.23,0A1.8,1.8,0,0,0,1.86.64L1.81.7A7.15,7.15,0,0,0,0,4.54C-.21,8.38,7.23,16.72,11.1,17l.45,0a6,6,0,0,0,3.78-1.5,1.76,1.76,0,0,0,.7-1.32,1.79,1.79,0,0,0-.54-1.37L13,10.48A1.77,1.77,0,0,0,11.85,10h-.1a1.84,1.84,0,0,0-1.16.42L10,11a1.12,1.12,0,0,1-.48.13A.49.49,0,0,1,9.19,11L6.12,7.62A.79.79,0,0,1,6,6.74l.35-.34.29-.3a1.74,1.74,0,0,0,.59-1.22,1.82,1.82,0,0,0-.4-1.23L4.67.72A1.79,1.79,0,0,0,3.33,0h-.1Z" transform="translate(0 0)" fill="currentColor"></path>
  </symbol>
  <symbol xmlns="http://www.w3.org/2000/svg" viewBox="0 0 8.78 10.3" id="ic_video_play">
    <polygon points="0 0 0 10.3 8.78 5.15 0 0" fill="currentColor"></polygon>
  </symbol>
  <symbol xmlns="http://www.w3.org/2000/svg" viewBox="0 0 20.21 23.09" id="ic_video_play2">
    <path d="M1,1.72l17.19,9.82L1,21.36ZM0,0V23.09L20.21,11.54Z" transform="translate(0 0)" fill="currentColor"></path>
  </symbol>
  <symbol xmlns="http://www.w3.org/2000/svg" xmlns:xlink="http://www.w3.org/1999/xlink" viewBox="0 0 25.84 15.49" id="ic_vkontakte">
    <path d="M14.44,1a8.22,8.22,0,0,1,.11,2.44c0,.53,0,1.1,0,1.72,0,.89,0,3.58,1.86,3.58,1.21,0,1.63-1,2.07-2,.15-.34.32-.73.54-1.17a29.58,29.58,0,0,1,2.41-4,2.64,2.64,0,0,1,.53,0A10.72,10.72,0,0,1,24.68,2a20.58,20.58,0,0,1-2.22,3.45c-1.39,1.85-1.95,2.64-1.83,3.49a2.15,2.15,0,0,0,1,1.38,7,7,0,0,1,.88.74c2,2,2.26,2.62,2.29,2.73,0,.54-.41.69-.76.72H21.13a5.75,5.75,0,0,1-.61-.57c-1.68-1.68-3-2.87-4.14-2.87a2.83,2.83,0,0,0-2.72,2.72,3.15,3.15,0,0,1-.06.72H13c-1.43-.06-3.2-.13-6-3.05S2.84,6,1.18,1.9l1,0,1.32,0H4a2.59,2.59,0,0,1,.32.42c.5.75,1,1.59,1.49,2.39C7.57,7.49,8.38,8.74,9.5,8.74a1.37,1.37,0,0,0,1-.41c.79-.79.9-2.86.9-4V2.58a1.92,1.92,0,0,0-.49-1.32A3.26,3.26,0,0,1,12.08,1h2.36m.22-1H12.08A5,5,0,0,0,9.5.86s-1.07.83-.86.86h0c.11,0,.35,0,.61,0,.49,0,1.07.13,1.07.89V4.3s0,3.44-.86,3.44-2.58-3.44-4.3-6C4.68.94,4.45.85,4,.85h-.5C2.55.86,1.76.9.9.9s-1,.54-.86.82c1.72,4.3,3,7,6.22,10.4,3,3.12,5,3.29,6.68,3.36h.86c.86,0,.86-1.24.86-1.72A1.85,1.85,0,0,1,16.38,12c.86,0,2.33,1.48,3.44,2.58.86.86.86.86,1.72.86h2.58a1.75,1.75,0,0,0,1.72-1.72c0-.54-.59-1.45-2.58-3.44-1.72-1.72-2.6-.83,0-4.3C24.84,3.91,26,2,25.8,1.44c-.14-.37-2.38-.9-3.87-.9-.62,0-1.1.09-1.25.32a31.52,31.52,0,0,0-2.58,4.3c-.86,1.72-1,2.58-1.72,2.58s-.86-1.67-.86-2.58c0-2.84.41-4.85-.86-5.16" transform="translate(0 0)" fill="currentColor"></path>
  </symbol>
  <symbol xmlns="http://www.w3.org/2000/svg" xmlns:xlink="http://www.w3.org/1999/xlink" viewBox="0 0 25.84 15.49" id="ic_vkontakte2">
    <path d="M13.8,15.48c.85,0,.85-1.24.85-1.72A1.85,1.85,0,0,1,16.38,12c.85,0,2.33,1.48,3.44,2.58.86.86.86.86,1.72.86h2.58a1.75,1.75,0,0,0,1.72-1.72c0-.54-.59-1.45-2.58-3.44-1.72-1.72-2.61-.83,0-4.3C24.84,3.91,26,2,25.8,1.44S21.2.08,20.68.86a31.52,31.52,0,0,0-2.58,4.3c-.87,1.72-1,2.58-1.72,2.58s-.87-1.67-.87-2.58c0-2.84.42-4.85-.86-5.16H12.08A5,5,0,0,0,9.49.86s-1.06.83-.85.86,1.72-.36,1.72.86V4.3s0,3.44-.87,3.44S6.91,4.3,5.2,1.72C4.52.71,4.34.86,3.47.86S1.76.9.89.9s-1,.54-.86.82c1.72,4.3,3,7,6.23,10.4,3,3.12,5,3.29,6.68,3.36.42,0,0,0,.86,0" transform="translate(0 0)" fill="currentColor"></path>
  </symbol>
  <symbol xmlns="http://www.w3.org/2000/svg" xmlns:xlink="http://www.w3.org/1999/xlink" viewBox="0 0 34.33 34.49" id="ic_whatsapp">
    <path d="M29.33,5A17.1,17.1,0,0,0,.14,17.09a17.18,17.18,0,0,0,2.28,8.55L0,34.49l9.06-2.38a17.11,17.11,0,0,0,8.17,2.09h0A17.1,17.1,0,0,0,29.33,5M25.6,23.2a4.4,4.4,0,0,1-2.89,2A5.8,5.8,0,0,1,20,25.06a25.55,25.55,0,0,1-2.43-.9c-4.28-1.85-7.08-6.16-7.3-6.45a8.3,8.3,0,0,1-1.74-4.42,4.76,4.76,0,0,1,1.5-3.56,1.54,1.54,0,0,1,1.13-.53H12c.26,0,.62-.1,1,.74s1.21,3,1.32,3.17a.77.77,0,0,1,0,.74,3.27,3.27,0,0,1-.43.72c-.21.25-.45.55-.64.75s-.44.44-.19.87a13.28,13.28,0,0,0,2.38,3,11.52,11.52,0,0,0,3.43,2.11c.43.22.68.18.93-.1s1.06-1.25,1.35-1.68.57-.35,1-.21S24.6,20.46,25,20.67s.71.32.82.5a3.7,3.7,0,0,1-.25,2" transform="translate(0 0)" fill="currentColor" fill-rule="evenodd"></path>
  </symbol>
  <symbol xmlns="http://www.w3.org/2000/svg" xmlns:xlink="http://www.w3.org/1999/xlink" viewBox="0 0 35.84 35.15" id="ic_zoom">
    <path d="M21.57,1A13.15,13.15,0,0,1,34.84,14,13.14,13.14,0,0,1,21.57,27,13.15,13.15,0,0,1,8.3,14,13.15,13.15,0,0,1,21.57,1m0-1A14.14,14.14,0,0,0,7.3,14,14.13,14.13,0,0,0,21.57,28,14.13,14.13,0,0,0,35.84,14,14.14,14.14,0,0,0,21.57,0" transform="translate(0)" fill="currentColor"></path>
    <line x1="11.79" y1="23.59" x2="0.5" y2="34.65" fill="none" stroke="currentColor" stroke-linecap="round" stroke-miterlimit="10"></line>
    <path d="M28.57,14.49h-14a.5.5,0,0,1-.5-.5.51.51,0,0,1,.5-.5h14a.5.5,0,0,1,.5.5.5.5,0,0,1-.5.5" transform="translate(0)" fill="currentColor"></path>
    <path d="M21.07,21V7a.51.51,0,0,1,.5-.5.5.5,0,0,1,.5.5V21a.5.5,0,0,1-.5.5.5.5,0,0,1-.5-.5" transform="translate(0)" fill="currentColor"></path>
  </symbol>
</svg>